<?xml version="1.0" encoding="UTF-8"?>
<svg id="Layer_1" xmlns="http://www.w3.org/2000/svg" version="1.1" viewBox="0 0 1024 810">
  <!-- Generator: Adobe Illustrator 29.5.0, SVG Export Plug-In . SVG Version: 2.1.0 Build 137)  -->
  <defs>
    <style>
      .st0 {
        fill: #ff5c6c;
      }

      .st1 {
        fill: #f93840;
      }

      .st2 {
        fill: #fc404f;
      }

      .st3 {
        fill: #ff9399;
      }

      .st4 {
        fill: #ff9a9f;
      }

      .st5 {
        fill: #ffa2a6;
      }

      .st6 {
        fill: #ff6675;
      }

      .st7 {
        fill: #ff7a85;
      }

      .st8 {
        fill: #ff606f;
      }

      .st9 {
        fill: #f8373b;
      }

      .st10 {
        fill: #fd4655;
      }

      .st11 {
        fill: #ff8b93;
      }

      .st12 {
        fill: #ff727f;
      }

      .st13 {
        fill: #ff5161;
      }

      .st14 {
        fill: #ff848d;
      }

      .st15 {
        fill: #fff;
      }

      .st16 {
        fill: #fe4d5d;
      }

      .st17 {
        fill: #ff6c7a;
      }

      .st18 {
        fill: #fb3c48;
      }

      .st19 {
        fill: #ff5666;
      }

      .st20 {
        fill: #ffa7aa;
      }
    </style>
  </defs>
  <path class="st9" d="M461.8,745.9c-8.7,10-19.8,13.9-32.6,11.3-43.8-8.8-84.2-26.1-121.3-50.9-69.3-46.5-116.7-109.6-141.9-189.3-.2-.7-.4-1.5-.2-2.6,6.5,3.9,12.7,7.9,18.7,12.4,6.9,5.1,13.4,10.7,20.3,16,4.9,3.8,10.1,7,15,10.9,13.4,10.6,26.7,21.4,40.1,32,7.8,6.2,15.8,12.3,23.6,18.5,7.9,6.3,15.7,12.9,23.7,19.1,7,5.4,14.4,10.4,21.4,15.8,10.6,8.2,21,16.5,31.5,24.8,6.3,5,12.5,10.2,18.9,15.1,4,3.1,8.2,6,12.2,9.1,11.7,9,23.3,18.1,34.9,27.2,2.4,1.9,4.5,4.2,6.9,6.1,4.5,3.4,9.3,6.3,13.8,9.7,4.5,3.5,8.8,7.2,13.1,11,1,.9,1.5,2.6,2.2,3.9Z"/>
  <path class="st1" d="M462.1,745.8c-1-1.2-1.4-2.8-2.5-3.7-4.3-3.8-8.6-7.5-13.1-11-4.5-3.4-9.3-6.4-13.8-9.7-2.5-1.8-4.5-4.2-6.9-6.1-11.6-9.1-23.2-18.2-34.9-27.2-4-3.1-8.2-6-12.2-9.1-6.3-5-12.6-10.1-18.9-15.1-10.5-8.3-20.9-16.7-31.5-24.8-7-5.4-14.4-10.4-21.4-15.8-8-6.2-15.7-12.8-23.7-19.1-7.8-6.2-15.8-12.3-23.6-18.5-13.4-10.7-26.6-21.4-40.1-32-4.8-3.8-10.1-7.1-15-10.9-6.8-5.2-13.4-10.8-20.3-16-6-4.5-12.3-8.5-18.8-12.7-4-15.3-7.7-30.7-11.2-46.1-.8-3.6-1-7.3-1.1-11.4,1.5,0,2.8.2,3.7.9,7.7,5.8,15.5,11.6,23,17.6,7.6,6,14.9,12.2,22.4,18.3,10.3,8.3,20.6,16.6,31,24.7,2.5,1.9,5.6,2.8,8.7,4.4,5.3,10.5,10,20.9,15.6,30.9,14.3,25.5,32.6,48,54.5,67.5,7.5,6.7,15.6,12.6,23.5,19.1.2.6.4.8.6,1.1,0-.6-.1-1.2-.3-2.1-1.4-3.8-2.8-7.2-4.1-10.6-9.2-23.1-16.7-46.6-21.5-71.3,2.2.6,4.4,1.2,6.2,2.5,3.6,2.6,7,5.5,10.6,8.2,7.4,5.7,14.9,11.3,22.3,17.1,7.1,5.6,14.1,11.5,21.2,17.1,7.8,6.2,15.7,12.3,23.7,18.4,5.2,4,10.6,7.8,15.9,11.7,4.4,7.7,8.3,15.8,13.3,23.1,10.4,15,21.3,29.6,35.4,41.5,14.4,12.2,15.6,34.5,2.9,48.9Z"/>
  <path class="st4" d="M835,300.7c3.8,14,7.6,28,11.1,42.4-7.8-5.2-15.4-10.7-22.8-16.5-13.8-10.7-27.6-21.6-41.4-32.5-11.8-9.3-23.4-18.8-35.3-28-1.1-.9-3.1-.5-5-.9-14.3-22.8-31.2-43.2-51.1-60.8-10.1-9-21.5-16.6-32.3-25-.3-.1-.5,0-.7,0,.1.2.3.4.5,1,.6,1.9,1.1,3.6,1.8,5.1,4.1,10.5,8.3,21,12.1,31.5-5.6-3.7-10.9-7.3-15.9-11.2-11.3-8.8-22.4-17.9-33.7-26.8-11.1-8.6-22.4-16.9-33.5-25.5-15.8-12.4-31.2-25.2-47-37.5-19-14.8-38.3-29.1-57.3-43.8-3.5-2.7-6.4-6.3-9.6-9.5,4.1,0,8.3-.1,12.4-.3,8.4-.3,16.8-.8,25.3-.7,6.7,0,13.5,1,20.6,1.9,1.5,1.7,2.3,3.3,3.6,4.3,13.6,10.7,27.2,21.3,40.8,31.9,11.3,8.8,22.7,17.4,34,26.3,7.4,5.8,14.5,12,21.9,17.8,10.1,7.9,20.4,15.4,30.4,23.3,12.5,9.7,24.9,19.6,37.4,29.4,14.1,11,28.4,21.8,42.4,32.8,12.9,10.1,25.6,20.3,38.4,30.4,15.2,12,30.5,24,45.8,36,2.3,1.8,4.8,3.3,7.1,4.9Z"/>
  <path class="st5" d="M835,300.4c-2.4-1.3-4.9-2.8-7.1-4.6-15.3-12-30.5-24-45.8-36-12.8-10.1-25.6-20.4-38.4-30.4-14.1-11-28.3-21.8-42.4-32.8-12.5-9.7-24.9-19.7-37.4-29.4-10.1-7.8-20.4-15.4-30.4-23.3-7.4-5.8-14.5-12-21.9-17.8-11.3-8.9-22.7-17.5-34-26.3-13.6-10.6-27.2-21.2-40.8-31.9-1.3-1-2.1-2.6-3.2-4.2,19.8,1.2,39.4,4.4,58.6,9.5,1.3.4,2.7.8,4.4,1.6,1.4,1.4,2.4,2.3,3.5,3.2,10.2,7.8,20.4,15.5,30.5,23.3,9.7,7.5,19.4,15.2,29.1,22.8,11.3,8.8,22.7,17.5,34,26.3,18.3,14.4,36.5,28.8,54.8,43.2,15,11.8,30,23.5,45.1,35.2,4.1,3.1,8.6,5.8,12.9,8.6,10,15.7,17.5,32.7,24.1,50,1.6,4.2,3,8.4,4.5,13Z"/>
  <path class="st14" d="M849,430.1c-7.5,13.1-19.1,18.5-33.8,18.4-8,0-16.1,0-24.5-.6-1.3-1.7-2-3.1-3.1-4.1-5.3-4.3-10.8-8.5-16.2-12.7-13-10.1-25.9-20.2-38.9-30.4-5.9-4.7-11.6-9.6-17.5-14.2-10.7-8.3-21.7-16.2-32.3-24.5-14.7-11.4-29.3-23-44-34.5-.9-.7-2.7-.3-4.3-.7-4.4-14.4-8.4-28.6-12.7-42.7-2.9-9.4-6.2-18.6-9.1-28.1,2.3.7,4.7,1.3,6.6,2.6,3.6,2.6,7,5.6,10.5,8.3,11.7,9,23.4,17.9,35.1,27,12.4,9.6,24.6,19.4,37,29.1,1.2.9,2.7,1.3,4.3,2.2,3.4,17.6,6.6,34.9,9.8,52.8,21.4,0,43.2,0,65.4,0,2.5,1.3,4.7,2.3,6.7,3.7,5,3.7,9.7,7.5,14.7,11.3,8,6,16.1,11.8,23.9,18.1,7.7,6.1,15,12.7,22.4,19.1Z"/>
  <path class="st10" d="M366.6,461.8c1.9,15.9,3.8,31.8,5.4,48-2-.8-3.8-1.7-5.3-3-7.6-6.2-15.1-12.6-22.8-18.7-13.7-10.9-27.5-21.6-41.4-32.3-1.7-1.3-4.1-1.6-6.3-2.8-.2-1.7-.4-3-.5-4.7-4.1,0-7.9,0-11.7-.3-.1-.8,0-1.4-.4-1.6-8.9-7.3-17.7-14.6-26.7-21.8-8.3-6.6-16.9-12.8-25.3-19.4-11.4-8.9-22.6-18.1-34-27-10.3-8.1-20.6-16.1-31.1-23.9-3-2.2-6.7-3.4-10-5.1,3.8-15.1,7.6-30.1,12-45.4,2.9.6,5.6.9,7.4,2.3,13.5,10.4,26.8,21.1,40.3,31.6,4,3.1,8.2,5.9,12.3,9.2-2.2,10.5-4.3,20.6-6.5,31.3,13.9,0,26.7,0,39.6.3,3.4,3.3,6.7,6.5,10.2,9.3,13.2,10.6,26.5,21,39.8,31.5,13.3,10.5,26.5,21,39.9,31.4,4.9,3.9,10.1,7.5,15.1,11.2Z"/>
  <path class="st3" d="M474.4,62.6c3.6,3.2,6.4,6.8,9.9,9.5,19,14.7,38.3,29.1,57.3,43.8,15.8,12.3,31.3,25.1,47,37.5,11,8.7,22.4,16.9,33.5,25.5,11.3,8.8,22.4,17.9,33.7,26.8,5,3.9,10.4,7.5,16.2,11.4,5.4,13.7,10.4,27.1,15,40.7,3.1,9.2,5.7,18.6,8.2,27.9-2.4-1.1-4.6-1.9-6.4-3.3-11.1-8.7-22-17.7-33.2-26.4-17.4-13.6-34.9-27.1-52.6-40.5-2.3-1.7-5.5-2.2-8.4-3.5-3.5-7.8-6.9-15.2-10.2-22.7-6.3-14.5-14.3-27.7-26.8-37.9-11.3-9.2-24.4-14.5-38.4-18-1.1-2.3-1.9-4.6-3.5-6-8.7-7.1-17.6-13.9-26.4-20.8-7.9-6.1-15.7-12.3-23.7-18.3-9.2-6.9-18.5-13.8-27.7-20.7,7.1-1.1,14.2-2.4,21.3-3.4,4.9-.7,9.7-1.1,15-1.6Z"/>
  <path class="st13" d="M534.8,501.7c4.2,14.4,8.3,28.8,12.2,43.5-.7.1-1.2,0-1.6-.3-13.5-10.7-27-21.5-40.5-32.2-8.9-7.1-17.9-14.1-26.9-21.1-6.2-4.8-12.4-9.6-18.8-14.2-1-.7-2.8-.3-4.2-.4-2.4-8.1-5-16.1-7.2-24.3-.9-3.1-2.1-4.5-5.6-4.4-7.2.3-14.5,0-22.1-.5-4-3.5-7.5-6.5-11.2-9.4-21.8-17.3-43.7-34.4-65.6-51.7-12.5-9.9-25-20-37.6-29.8-1.6-1.2-3.9-1.4-6-2.4,1.8-9.7,3.6-19.1,5.9-28.5,2.1.5,4,.7,5.4,1.7,3.2,2.3,6.1,5.2,9.3,7.7,10.7,8.5,21.4,17.1,32.4,25.4,4.9,3.7,10.2,6.7,15.4,10.4-.2,2.4-.4,4.5-.6,7.2,3.5,0,6.5,0,9.6.3.4.8.6,1.5,1,1.8,10.2,7.9,20.6,15.7,30.8,23.6,10.3,8,20.6,16.2,30.8,24.3,13.1,10.3,26.2,20.5,39.2,30.8,6.8,5.3,13.3,10.9,20.1,16.2,8.1,6.4,16.3,12.6,24.5,18.8,3.6,2.7,7.5,5.1,11.2,7.7Z"/>
  <path class="st12" d="M740,448c-23.3.8-46.7,2.3-69.2-6.3-3.6-1.4-7.4-2.2-11.4-3.6-3-3.3-5.4-6.5-8.4-8.9-15-11.8-30.2-23.4-45.3-35-12.2-9.4-24.3-18.9-36.5-28.3-15.9-12.4-31.9-24.7-47.7-37.2-.9-.7-1.3-2.2-1.6-3.2,7.6,2.1,15,4,22.2,6.2,14.2,4.2,28.3,8.5,42.5,12.7,13.6,3.9,27.3,7.6,41,11.8,8.1,6.9,16.1,13.6,24.3,20.1,11,8.6,22.3,17,33.3,25.6,16.6,12.9,33.3,25.9,49.8,38.9,2.6,2.1,4.7,4.9,7,7.4Z"/>
  <path class="st10" d="M486.6,587.5c-6.2-21.4-12.3-42.8-18.4-64.8.9-.8,1.8-1.3,2.2-1,6.6,4.8,13.2,9.6,19.6,14.6,4.8,3.7,9.3,7.6,14,11.4,13.4,10.6,26.8,21.2,40.3,31.7,5.2,4,10.6,7.9,15.9,11.8,3.4,11.3,6.7,22.7,10.4,35.1,3.2-6.4,5.9-11.8,9-17.1,6.7,5.5,12.9,11,19.4,16.2,5.7,4.6,11.7,8.9,17.6,13.3,6.4,4.7,12.8,9.4,19.2,14-5.9,12-11.9,24-18.3,36.1-2.3-2.2-3.8-4.9-6-6.6-10.6-8.4-21.4-16.5-32.1-24.9-17-13.2-34-26.5-50.9-39.9-9.8-7.7-19.3-15.8-29.2-23.3-3.7-2.8-6.8-7.6-12.7-6.5Z"/>
  <path class="st8" d="M829.3,635.9c0,14.6-4,28.1-11.6,40.7-5.5-4.4-10.4-9.2-15.6-13.4-10.2-8.1-20.6-16-31-23.7-3.7-2.8-7.9-4.9-11.8-7.3-2.2-3.5-3.9-7.5-6.7-10.3-25.6-25.9-51.3-51.5-77-77.2-9.7-9.7-13.5-21.2-9.6-35,11.3,7.8,22.3,15.8,33,24,12,9.2,23.7,18.7,35.6,28,15.9,12.5,31.8,24.9,47.6,37.4,9.2,7.2,18.3,14.6,27.5,21.8,6.5,5.1,13.2,10,19.8,15Z"/>
  <path class="st19" d="M759.1,632.6c4,2,8.2,4.2,11.9,6.9,10.5,7.8,20.8,15.6,31,23.7,5.3,4.2,10.1,8.9,15.4,13.6-6.6,12.1-15.9,21.9-28.3,29-5.7-4.1-10.7-8.1-15.7-12-12.1-9.5-24.1-19.1-36.2-28.5-16.4-12.8-32.8-25.4-49.2-38.2-12.8-9.9-25.5-19.9-38.2-29.9-8-6.3-15.8-12.8-23.8-19-6.7-5.2-13.6-10.1-20.4-15.2,12.7-12.7,34.8-12.2,48.2,1.1,26.4,26.4,52.8,52.7,79.2,79.2,5,5,10.7,6.8,17.3,4.1,6.2-2.6,8.9-7.8,8.9-14.9Z"/>
  <path class="st13" d="M605.4,563.2c7.1,4.9,14,9.9,20.6,15,8,6.2,15.9,12.7,23.8,19,12.7,10,25.4,20,38.2,29.9,16.4,12.8,32.8,25.4,49.2,38.2,12.1,9.4,24.1,19,36.2,28.5,5,4,10,7.9,15.4,12.1-8.3,5.2-17.2,9.6-27.8,11.1-11.2-8.2-21.9-16-32.3-24.1-11.8-9.2-23.3-18.7-35-28-8.9-7.1-18-13.9-27-20.9-12-9.4-24-18.8-36-28.2-8.1-6.4-16.1-12.8-24.4-19-4.9-3.6-10.2-6.8-15.2-10.2,3.9-8.2,6.8-17,14.3-23.3Z"/>
  <path class="st2" d="M486.7,587.9c5.8-1.4,8.9,3.3,12.6,6.1,10,7.5,19.4,15.6,29.2,23.3,16.9,13.3,33.9,26.6,50.9,39.9,10.7,8.3,21.5,16.4,32.1,24.9,2.2,1.8,3.7,4.4,5.8,6.9-5.5,11.8-11.3,23.4-17.7,35.1-2.9-1.7-5.1-3.5-7.5-5.3-10.4-7.7-20.9-15.3-31.1-23.2-9.7-7.5-19.2-15.4-28.8-23.1-7.3-5.9-14.7-11.7-22.2-17.4-1.2-.9-3.1-1-4.6-1.5-4.3-14.8-8.7-29.6-13-44.5-2-6.9-3.9-13.9-5.8-21.2Z"/>
  <path class="st16" d="M299.9,354.7c2,.7,4.4.8,5.9,2.1,12.6,9.8,25,19.9,37.6,29.8,21.8,17.3,43.7,34.5,65.6,51.7,3.7,2.9,7.2,6,10.9,9.3-14.6.5-29.3.6-44,.8-3.1,0-6.2,0-9.9,0,.3,4.4.5,8.5.7,13-5.1-3.3-10.2-6.9-15.2-10.8-13.3-10.4-26.6-20.9-39.9-31.4-13.3-10.5-26.6-20.9-39.8-31.5-3.5-2.8-6.8-6-9.8-9.3,11.8-.4,23.2-.4,34.5-.4,1.2-8.1,2.2-15.7,3.3-23.3Z"/>
  <path class="st6" d="M829.3,635.4c-6.7-4.6-13.4-9.4-19.9-14.5-9.2-7.2-18.3-14.6-27.5-21.8-15.8-12.5-31.7-24.9-47.6-37.4-11.9-9.3-23.6-18.8-35.6-28-10.7-8.3-21.6-16.2-32.8-24.4,2-10.3,8.4-17.4,18-21.9,3.2,3,5.9,6,9,8.4,14.1,10.9,28.4,21.6,42.5,32.6,14,10.9,27.7,22,41.7,32.9,10.2,8,20.5,15.8,30.7,23.6,3.4,2.5,6.9,4.9,10.3,7.3,7.8,13.2,11.3,27.6,11.2,43.3Z"/>
  <path class="st7" d="M740.4,448.2c-2.7-2.6-4.8-5.5-7.5-7.6-16.5-13.1-33.1-26-49.8-38.9-11.1-8.6-22.3-16.9-33.3-25.6-8.2-6.4-16.1-13.2-23.9-20.1,5.2,1,10,2.4,15.6,4-2.4-11.3-4.6-22.1-6.9-32.9,1.4.1,3.2-.3,4.1.4,14.7,11.4,29.3,23,44,34.5,10.7,8.3,21.6,16.2,32.3,24.5,6,4.6,11.6,9.6,17.5,14.2,12.9,10.2,25.9,20.3,38.9,30.4,5.4,4.2,10.9,8.4,16.2,12.7,1.1.9,1.8,2.4,2.7,3.9-10.5.4-20.9.6-31.4.7-6,0-12,0-18.5-.3Z"/>
  <path class="st2" d="M156.3,349.5c3.5,1.3,7.2,2.6,10.2,4.8,10.5,7.8,20.8,15.8,31.1,23.9,11.4,8.9,22.6,18.1,34,27,8.4,6.6,17,12.8,25.3,19.4,9,7.1,17.8,14.5,26.7,21.8.3.2.2.9,0,1.7-5,.4-9.7.4-14.3.4-15.4.1-30.8.2-46.4.1-2.1-1.2-4.2-2-5.8-3.3-5.3-4-10.4-8.1-15.5-12.2-10.2-8.1-20.2-16.4-30.6-24.3-6.3-4.8-13.2-8.7-19.8-13.1,1.7-15.3,3.5-30.6,5.4-46.2Z"/>
  <path class="st16" d="M590.8,586.7c5.3,3.2,10.6,6.3,15.5,10,8.3,6.2,16.3,12.6,24.4,19,12,9.4,23.9,18.9,36,28.2,9,7,18.1,13.9,27,20.9,11.7,9.3,23.2,18.8,35,28,10.4,8.1,21.1,16,31.9,24.1-13.5,3.6-27.3,2.5-40.8-1.5-13.3-3.9-24.9-10.9-34.8-20.6-14.3-14.2-28.5-28.5-42.8-42.7-1.1-1.1-2.2-2.1-3.6-3.4-.8,1.4-1.5,2.5-2.4,3.8-6.7-4.5-13.1-9.1-19.4-13.8-5.9-4.4-11.9-8.7-17.6-13.3-6.4-5.2-12.6-10.7-19.1-16.4,3.4-7.5,7-14.8,10.8-22.3Z"/>
  <path class="st12" d="M282.8,138.7c9.2-6.7,18.3-13.5,28-20.2,3.9,2.8,7.2,5.6,10.6,8.3,6.9,5.4,14,10.6,20.9,16,6.1,4.8,11.9,9.8,17.9,14.6,5.7,4.5,11.5,8.8,17.3,13.2,13.2,10.2,26.3,20.4,39.4,30.9-4.9,12.9-9.8,25.5-14.9,37.7-15.7-12.5-31.2-24.8-46.9-37-3.3-2.6-7.1-4.5-10.7-7,2.1-6.6,4.2-12.9,6.5-19.3,0,0,0,0-.4.2-4,2.6-7.7,5-11.7,7.3-1.5-1.7-2.5-3.5-4-4.7-10.4-8.3-20.9-16.5-31.5-24.6-6.8-5.2-13.7-10.3-20.6-15.4Z"/>
  <path class="st17" d="M519.6,325.4c.6,1.1,1,2.6,1.9,3.3,15.9,12.4,31.8,24.8,47.7,37.2,12.1,9.4,24.3,18.9,36.5,28.3,15.1,11.7,30.3,23.2,45.3,35,3,2.4,5.4,5.6,8.1,8.8-22.8-6.2-45.6-12.8-68.7-19.9-1.4-1.9-2.4-3.5-3.8-4.6-4.6-3.6-9.3-7.1-13.9-10.7-13.8-10.8-27.6-21.6-41.4-32.4-11.1-8.7-22.1-17.7-33.3-26.4-9.9-7.7-20.1-15.2-30-23-5.1-4.1-9.8-8.7-14.5-13.3,3.9.5,7.6.8,11.2,1.8,18.3,5.2,36.6,10.5,54.9,15.8Z"/>
  <path class="st20" d="M806.2,237.1c-4.2-2.5-8.8-5.1-12.8-8.3-15.1-11.6-30.1-23.4-45.1-35.2-18.3-14.4-36.5-28.9-54.8-43.2-11.3-8.8-22.7-17.5-34-26.3-9.7-7.6-19.4-15.3-29.1-22.8-10.1-7.8-20.3-15.5-30.5-23.3-1.1-.8-2.1-1.8-3.1-3,17.5,6.1,35.4,11.7,52.5,19.2,43.1,18.7,79.8,46.7,111.6,81,17.4,18.8,32.8,39.2,45.3,61.9Z"/>
  <path class="st14" d="M336.7,103.2c16-7.1,31.9-14.2,48.4-21.1,1.3,1.2,2.1,2.2,3,2.9,7.4,5.7,14.9,11.2,22.2,17,13.2,10.3,26.5,20.4,39.3,31.1,3.7,3.1,9.7,4.3,10.1,10.7-5.6,4.2-11.6,7.6-16.2,12.3-5.7,5.8-10.2,12.7-15.3,18.8-9.8-8.4-19.2-16.7-29.1-24.6-13.1-10.4-26.4-20.6-39.8-30.7-7.4-5.6-15.1-11-22.6-16.5Z"/>
  <path class="st18" d="M150.8,396.1c6.7,3.9,13.6,7.9,19.9,12.7,10.4,7.8,20.4,16.2,30.6,24.3,5.2,4.1,10.3,8.2,15.5,12.2,1.7,1.3,3.7,2.1,5.9,3.7,1.5,7.7,2.1,15.1,4,22,4.8,17.2,10.2,34.2,15.4,51.3-2.8-1.4-6-2.3-8.5-4.2-10.5-8.1-20.7-16.4-31-24.7-7.5-6.1-14.9-12.3-22.4-18.3-7.6-6-15.3-11.8-23-17.6-.9-.7-2.2-.9-3.7-1.3-1.2-19.9-1.9-39.7-2.6-60Z"/>
  <path class="st18" d="M505.5,653.9c1.6.1,3.4.2,4.6,1.1,7.5,5.7,14.8,11.6,22.2,17.4,9.6,7.7,19.1,15.6,28.8,23.1,10.2,7.9,20.7,15.5,31.1,23.2,2.3,1.8,4.6,3.6,7.3,5.5-2.4,5.7-4.6,11.6-7.9,16.7-7.8,12-19.2,18.1-33.6,16.6-14.9-1.6-25.6-10-29.9-24.3-8-26.2-15.1-52.7-22.6-79.4Z"/>
  <path class="st11" d="M459.9,143.6c-.6-6.2-6.7-7.4-10.3-10.5-12.8-10.8-26.1-20.9-39.3-31.1-7.4-5.7-14.8-11.3-22.2-17-1-.7-1.7-1.8-2.7-3,14.6-4.6,29.4-8.8,44.1-13,2.5-.7,5.1-.9,8.1-1.3,9.6,6.8,18.9,13.7,28.1,20.6,8,6,15.8,12.1,23.7,18.3,8.9,6.9,17.7,13.7,26.4,20.8,1.6,1.3,2.4,3.7,3.1,5.9-11.2-.6-22-1.8-32.5,1-9,2.5-17.7,6.1-26.5,9.3Z"/>
  <path class="st3" d="M741.9,265.4c1.6.2,3.6-.1,4.7.7,11.8,9.2,23.5,18.7,35.3,28,13.7,10.9,27.5,21.7,41.4,32.5,7.4,5.7,15,11.2,22.8,16.9,2.4,13.6,4.6,27.2,6.6,40.8.5,3.5.5,7,.4,10.9-1.2,0-2.1-.3-2.9-.9-10.3-8-20.6-16.1-30.9-24.2-12.1-9.5-24-19.1-36.1-28.5-3.2-2.5-7-4.3-10.6-6.8-3.8-10.3-6.8-20.5-11.1-30.2-6-13.3-13-26.2-19.5-39.3Z"/>
  <path class="st0" d="M508.3,409.7c5.3,18.1,10.5,36.1,15.4,54.5-4.9-2.8-9.7-5.6-14-9-11.4-8.9-22.5-18.2-33.9-27.1-18.6-14.5-37.3-28.7-55.9-43.2-2.3-1.8-3.8-4.5-5.3-6.8,4.1,0,7.7,0,11.7,0-1.6-5.5-3.2-10.3-4.3-15.2-1.6-7-2.7-14.1-3.7-21.1,3.5,2,6.9,3.9,9.9,6.2,8.4,6.5,16.6,13.2,24.9,19.8,15,11.8,30,23.5,45.1,35.2,3.2,2.5,6.7,4.6,10.1,6.8Z"/>
  <path class="st2" d="M296.2,453.4c2.1.8,4.5,1.1,6.2,2.4,13.9,10.6,27.7,21.4,41.4,32.3,7.7,6.1,15.2,12.5,22.8,18.7,1.5,1.3,3.3,2.2,5.3,3.4,4.7,19.4,9,38.7,13,58.3-1.3,0-2.4-.4-3.2-1-12.1-9.5-24.1-19.1-36.2-28.6-10.6-8.4-21.1-16.9-31.8-25.2-3.9-3-8.4-5.4-12.8-8.4-1.7-17.5-3.2-34.7-4.7-51.9Z"/>
  <path class="st18" d="M301.1,505.7c4.2,2.7,8.7,5,12.7,8,10.7,8.2,21.2,16.8,31.8,25.2,12,9.6,24.1,19.1,36.2,28.6.8.6,1.9.9,3.2,1.4,7.1,21.5,15.4,42.5,25.6,63-5.3-3.6-10.6-7.4-15.8-11.4-7.9-6.1-15.9-12.2-23.7-18.4-7.1-5.6-14.1-11.5-21.2-17.1-7.4-5.8-14.9-11.4-22.3-17.1-3.5-2.7-6.9-5.6-10.6-8.2-1.8-1.3-4-1.9-6.4-2.8-3.4-17.1-6.4-34.1-9.4-51.1Z"/>
  <path class="st19" d="M414.2,378.1c1.9,2.3,3.5,5,5.7,6.8,18.6,14.5,37.3,28.7,55.9,43.2,11.4,8.9,22.5,18.2,33.9,27.1,4.3,3.4,9.1,6.2,14,9.3,3.9,12.1,7.4,24.3,11,36.7-3.7-2.2-7.5-4.6-11.2-7.3-8.2-6.2-16.4-12.4-24.5-18.8-6.8-5.3-13.4-10.9-20.1-16.2-13-10.3-26.2-20.5-39.2-30.8-10.3-8.1-20.5-16.3-30.8-24.3-10.2-7.9-20.5-15.7-30.8-23.6-.5-.3-.7-1-.6-1.9,12.5-.3,24.6-.3,36.8-.3Z"/>
  <path class="st7" d="M336.4,103.2c7.9,5.4,15.5,10.8,22.9,16.4,13.3,10.1,26.7,20.3,39.8,30.7,9.9,7.8,19.3,16.2,28.9,24.8-3.7,9-7.3,17.5-10.9,25.9-13.1-10.2-26.3-20.4-39.4-30.6-5.7-4.4-11.6-8.7-17.3-13.2-6-4.8-11.9-9.8-17.9-14.6-6.9-5.4-14-10.6-20.9-16-3.4-2.6-6.7-5.5-10.3-8.4,8.1-5.1,16.5-10.1,25.2-15.2Z"/>
  <path class="st8" d="M508.3,409.3c-3.4-1.9-6.9-4-10.1-6.5-15.1-11.7-30.1-23.4-45.1-35.2-8.3-6.5-16.5-13.3-24.9-19.8-3-2.3-6.3-4.1-9.9-6.6.1-10.2,3.9-18.4,11.9-24.8,2.5.9,4.8,1.4,6.6,2.6,3.9,2.7,7.6,5.8,11.3,8.7,15.7,12.2,31.4,24.3,47,36.5,13.2,10.3,26.5,20.6,39.6,31,3.6,2.9,6.6,6.5,9.9,9.8-10-2.7-19.9-5.5-29.9-8.2-3.1-.9-6.2-1.7-10.2-2.8,1.4,5.4,2.7,10.1,3.9,15.1Z"/>
  <path class="st16" d="M560.3,590.8c-5.3-3.6-10.7-7.4-15.9-11.4-13.5-10.5-26.9-21.1-40.3-31.7-4.7-3.7-9.2-7.7-14-11.4-6.5-5-13-9.8-19.6-14.6-.4-.3-1.4.2-2.3.6-4.5-14.7-8.8-29.7-13.2-45,1.4-.2,3.2-.7,4.2,0,6.4,4.6,12.6,9.4,18.8,14.2,9,7,18,14,26.9,21.1,13.5,10.7,27,21.5,40.5,32.2.3.3.8.4,1.6.6,4.7,15,9,30,13.4,45.3Z"/>
  <path class="st19" d="M185,261.5c7.4-13.2,14.7-26.4,22.7-39.7,14.6,10.5,28.7,21.2,42.8,31.9,4.4,3.3,8.8,6.6,13.1,10.1-7.2,13.8-14.2,27.2-21.6,40.5-3.4-2.4-6.5-4.7-9.5-7.1-9.9-7.8-19.8-15.7-29.8-23.4-5.7-4.4-11.7-8.3-17.6-12.4Z"/>
  <path class="st16" d="M184.7,261.8c6.1,3.9,12.1,7.8,17.9,12.2,10,7.7,19.8,15.6,29.8,23.4,3,2.4,6.1,4.6,9.5,7.4-4.3,14.2-8.8,28-13.3,41.7-4.1-2.9-8.4-5.7-12.4-8.8-13.5-10.5-26.8-21.2-40.3-31.6-1.8-1.4-4.5-1.7-7.2-2.6,5-13.8,10.4-27.7,16.1-41.7Z"/>
  <path class="st0" d="M263.6,263.5c-4.4-3.3-8.8-6.5-13.2-9.8-14.1-10.7-28.1-21.4-42.5-32.1,8.4-11.9,17.2-23.7,26.3-35.4,7.6,5.9,14.7,11.7,21.9,17.3,11,8.6,22,17.1,32.8,25.9-8.6,11.5-17,22.8-25.4,34Z"/>
  <path class="st6" d="M544.8,405.4c-3.5-3.5-6.5-7.1-10.1-10-13.1-10.5-26.3-20.7-39.6-31-15.7-12.2-31.4-24.3-47-36.5-3.8-2.9-7.4-6-11.3-8.7-1.8-1.2-4.1-1.8-6.4-2.9,6.5-5.8,14.2-8.6,22.9-8.3,4.9,4.4,9.6,9,14.8,13.1,9.9,7.8,20,15.3,30,23,11.2,8.7,22.1,17.6,33.3,26.4,13.8,10.8,27.6,21.6,41.4,32.4,4.6,3.6,9.3,7,13.9,10.7,1.4,1.1,2.4,2.7,3.5,4.4-15-3.9-30.1-8.1-45.3-12.5Z"/>
  <path class="st11" d="M772.7,335.2c3.5,2.1,7.2,4,10.5,6.5,12.1,9.4,24.1,19,36.1,28.5,10.3,8.1,20.6,16.1,30.9,24.2.7.6,1.6.8,2.8,1.3.7,11.6,2.4,23.2-3.7,34.3-7.7-6.2-15-12.7-22.7-18.9-7.8-6.2-16-12.1-23.9-18.1-4.9-3.7-9.7-7.6-14.7-11.3-2-1.4-4.2-2.5-6.7-4.1-3.1-14.4-5.8-28.4-8.6-42.4Z"/>
  <path class="st6" d="M289.1,229.2c-11-8.5-22-17.1-33-25.7-7.2-5.7-14.3-11.5-21.7-17.5,7.7-8.8,15.6-17.2,24.1-25.8,6.7,4.3,12.9,8.5,18.9,13,10.6,8.1,21.1,16.3,31.5,24.6,1.9,1.6,3.2,4,4.6,6.3-8.2,8.5-16.3,16.8-24.4,25Z"/>
  <path class="st17" d="M313.7,203.9c-1.6-2-2.8-4.4-4.7-6-10.4-8.3-20.9-16.6-31.5-24.6-6-4.5-12.2-8.7-18.6-13.2,7.6-7.1,15.5-14.1,23.8-21.3,7.2,5,14.1,10.1,20.9,15.3,10.6,8.1,21.1,16.4,31.5,24.6,1.5,1.2,2.5,3,3.8,4.9-1.8,1.7-3.9,2.7-5.6,4.2-6.5,5.3-12.9,10.7-19.4,16Z"/>
  <path class="st17" d="M818,591.8c-3.4-2.1-6.9-4.5-10.2-7-10.3-7.8-20.6-15.6-30.7-23.6-13.9-10.9-27.7-22-41.7-32.9-14.1-10.9-28.4-21.6-42.5-32.6-3.1-2.4-5.8-5.4-8.7-8.5,12.4-6.5,29-4.3,38.8,5.4,27.7,27.5,55.3,55.1,82.8,82.9,4.6,4.7,8.1,10.5,12.2,16.1Z"/>
  <path class="st15" d="M301,505.3c3.2,17.4,6.2,34.4,9.4,51.7,5.2,24.7,12.6,48.3,21.8,71.3,1.4,3.4,2.7,6.8,4,10.7,0,.4-.2.6-.2.6-7.8-6.3-16-12.2-23.5-18.9-21.8-19.5-40.2-41.9-54.5-67.5-5.6-10-10.2-20.4-15.6-30.9-5.4-17.3-10.9-34.3-15.7-51.5-1.9-6.9-2.5-14.3-3.7-21.8,15.3-.5,30.7-.6,46.1-.7,4.6,0,9.2,0,14.3,0,4.2,0,8,0,12.1,0,.2,1.7.3,3,.5,4.7,1.6,17.6,3.2,34.8,4.8,52.3Z"/>
  <path class="st15" d="M336.3,639.4c.2.5.2,1.1.3,1.7-.2-.3-.4-.6-.6-1.1,0-.3.2-.5.3-.6Z"/>
  <path class="st15" d="M658,179.9c-.2-.1-.4-.3-.5-.5.2,0,.4,0,.7,0,.1.2,0,.4-.2.5Z"/>
  <path class="st11" d="M612.6,256c-5.1-12-10-24.3-15-36.6-.9-2.1-1.8-4.3-2.7-6.7,2.7.7,6,1.2,8.2,2.9,17.6,13.4,35.1,26.9,52.6,40.5,11.1,8.7,22.1,17.7,33.2,26.4,1.8,1.4,4,2.2,6.4,3.3,3.7,12.8,7.1,25.6,10.5,38.7-1.4-.2-2.9-.6-4.1-1.5-12.4-9.6-24.6-19.4-37-29.1-11.6-9.1-23.4-18-35.1-27-3.5-2.7-6.9-5.7-10.5-8.3-1.9-1.3-4.2-1.9-6.6-2.6Z"/>
  <path class="st19" d="M305.7,325.9c1.2-7.6,2.8-15.2,5-23.1,4.2,1.9,8.2,3.6,11.6,6.2,13.2,10.4,26.1,21.1,39.2,31.5,3.3,2.6,7,4.6,10.5,6.9-1.2,7.5-2.4,15-3.7,22.8-5.3-2.9-10.7-5.9-15.5-9.6-10.9-8.3-21.6-16.9-32.4-25.4-3.1-2.5-6-5.3-9.3-7.7-1.4-1-3.3-1.2-5.4-1.7Z"/>
  <path class="st17" d="M330.7,233.7c4.5-12.5,9-25.1,13.7-37.9,3.8,1.9,7.6,3.8,10.9,6.4,15.6,12.1,31.1,24.4,46.9,37-3.9,12.8-8,25.3-12.6,38-5.3-3.5-10.1-7-14.8-10.7-9-7.1-17.8-14.5-26.9-21.5-5.4-4.1-11.4-7.6-17.1-11.3Z"/>
  <path class="st15" d="M351,176c0,0,.1,0,0,0-.1,0,0,0,0,0Z"/>
  <path class="st8" d="M330.5,234.1c5.8,3.4,11.8,6.9,17.2,11,9.1,6.9,17.9,14.3,26.9,21.5,4.7,3.7,9.5,7.3,14.6,11-3,12.1-6.4,24.1-10.1,36.1-1.3-.9-2.1-1.8-3-2.5-5.8-4.5-11.8-8.9-17.6-13.4-12.8-9.9-25.7-19.8-38.5-29.8,3.4-11.2,6.9-22.3,10.5-33.8Z"/>
  <path class="st0" d="M319.9,268.1c13.1,9.7,25.9,19.6,38.7,29.5,5.8,4.5,11.7,8.9,17.6,13.4,1,.7,1.8,1.7,2.8,2.8-2.1,11.2-4.4,22-6.9,33.2-3.7-2-7.4-4-10.7-6.6-13.1-10.4-26-21.1-39.2-31.5-3.3-2.6-7.3-4.3-11.4-6.5,2.7-11.4,5.7-22.7,9-34.4Z"/>
</svg>