<?xml version="1.0" encoding="UTF-8"?>
<svg id="Layer_1" xmlns="http://www.w3.org/2000/svg" version="1.1" viewBox="0 0 1024 842">
  <!-- Generator: Adobe Illustrator 29.5.0, SVG Export Plug-In . SVG Version: 2.1.0 Build 137)  -->
  <defs>
    <style>
      .st0 {
        fill: #ff8d95;
      }

      .st1 {
        fill: #ff9ba0;
      }

      .st2 {
        fill: #ff5969;
      }

      .st3 {
        fill: #ff9fa3;
      }

      .st4 {
        fill: #fd4757;
      }

      .st5 {
        fill: #ff606f;
      }

      .st6 {
        fill: #f8373a;
      }

      .st7 {
        fill: #fa3944;
      }

      .st8 {
        fill: #ff5263;
      }

      .st9 {
        fill: #ff838d;
      }

      .st10 {
        fill: #fe4e5f;
      }

      .st11 {
        fill: #fe4a5a;
      }

      .st12 {
        fill: #ff707d;
      }

      .st13 {
        fill: #ff6876;
      }

      .st14 {
        fill: #fb3d4b;
      }

      .st15 {
        fill: #f9373e;
      }

      .st16 {
        fill: #fa3c47;
      }

      .st17 {
        fill: #ff969c;
      }

      .st18 {
        fill: #ff7985;
      }

      .st19 {
        fill: #fc4150;
      }
    </style>
  </defs>
  <path class="st19" d="M564,671.9c-16.7,4.4-33.8,6.2-51.6,5.9-2.2-2.2-3.6-4.3-5.5-5.8-9-7-18.2-13.8-27.2-20.8-8.9-6.9-17.6-14.1-26.4-21-9.5-7.4-19.1-14.7-28.7-22-5.9-4.5-11.7-9.2-17.7-13.7-5.1-3.9-10.4-7.4-15.4-11.4-10.3-8.2-20.4-16.8-30.7-25-4.7-3.7-9.8-6.9-14.4-10.6-9.4-7.6-18.4-15.6-27.9-23-11.5-9-23.5-17.6-35.1-26.6-8.9-6.9-17.5-14.2-26.3-21.1-2.1-1.7-5-2.4-7.5-3.5-1.2-6.9-3.1-13.8-3.4-20.7-.6-11.2,3.9-20.7,12.6-28.3,4.1,2.2,7.8,3.9,11.1,6.3,4.9,3.6,9.4,7.8,14.2,11.6,11.5,8.9,23,17.8,34.6,26.6,3,2.3,6.4,4.2,9.6,6.3,7,17.2,14.3,34.3,25.5,49.4,30.6,41.6,71.3,66.9,122.1,76,.5,0,1,.3,1.8.9,1.4,1.6,2.2,2.9,3.3,3.7,11.3,8.9,22.7,17.6,33.9,26.5,14.4,11.4,28.8,22.8,43.1,34.3,2.2,1.8,4,4.1,6,6.2Z"/>
  <path class="st14" d="M249.7,473.5c2.4.8,5.3,1.5,7.4,3.1,8.9,6.9,17.4,14.2,26.3,21.1,11.6,9,23.6,17.5,35.1,26.6,9.5,7.4,18.5,15.4,27.9,23,4.6,3.7,9.7,6.9,14.4,10.6,10.3,8.2,20.4,16.8,30.7,25,5,4,10.3,7.6,15.4,11.4,5.9,4.5,11.8,9.2,17.7,13.7,9.5,7.4,19.2,14.6,28.7,22,8.9,6.9,17.5,14.1,26.4,21,9,7,18.2,13.8,27.2,20.8,1.9,1.5,3.4,3.5,5.1,5.7-14-.4-28.1-1.1-42.6-2.3-2.4-2.6-4.2-5-6.5-6.9-9.3-7.6-18.7-15.2-28.2-22.6-8.2-6.4-16.8-12.3-25-18.7-8.1-6.3-15.8-12.9-23.8-19.2-15.6-12.2-31.4-24.3-46.9-36.5-7.9-6.2-15.5-12.9-23.5-19.1-15.6-12.2-31.4-24.3-47.2-36.3-1.5-1.1-3.6-1.4-5.4-2-4.4-13.4-8.8-26.7-13.3-40.5Z"/>
  <path class="st11" d="M525,563.9c-57.9,5.9-104.4-14.9-139.8-60.7-15.8-20.4-24.3-44-27.6-69.8,2.3.3,4.4.5,5.9,1.6,4.9,3.6,9.7,7.5,14.5,11.3,9.3,7.5,18.4,15.1,27.8,22.4,9.6,7.4,19.5,14.2,29.1,21.6,13.9,10.7,27.5,21.8,41.3,32.6,12.5,9.8,25.2,19.3,37.6,29.3,4.2,3.4,7.6,7.7,11.3,11.5Z"/>
  <path class="st16" d="M263,514.4c1.8.3,4,.5,5.4,1.6,15.8,12,31.5,24.1,47.2,36.3,7.9,6.2,15.5,12.9,23.5,19.1,15.6,12.3,31.3,24.3,46.9,36.5,8,6.3,15.8,13,23.8,19.2,8.2,6.4,16.8,12.3,25,18.7,9.5,7.4,18.9,15,28.2,22.6,2.2,1.8,4,4.2,6,6.7-45.1-6.1-86-22.9-122-50.7-37.6-29.1-66-65.5-84.1-110.1Z"/>
  <path class="st8" d="M431.9,424c4.9,27.5,19.6,47.6,45.2,59.3,9.5,4.4,19.7,5.8,30.5,6.8,1,1.6,1.2,3.1,2.1,3.8,3.7,3.3,7.5,6.5,11.5,9.4,15.4,11.6,30.9,23.1,46.2,34.8,3.5,2.7,6.4,6.3,9.6,9.4-9.1,3.7-18.1,7.4-27.6,10.8-1-1.5-1.3-3-2.2-3.7-10.9-8.6-21.8-17.1-32.7-25.6-13.6-10.5-27.4-20.8-40.9-31.4-10.9-8.6-21.5-17.6-32.5-26.2-15.5-12.1-31.2-23.8-46.8-35.9-11.5-8.9-22.8-18.1-34.2-27.1-1.1-.9-2.6-1.1-4-1.7,0-13,0-26,.3-39.5,1.9.5,3.6,1.3,5,2.4,10.3,8,20.5,16.1,30.8,24.2,11.8,9.3,23.5,18.7,35.4,27.9,1.2.9,2.9,1.4,4.3,2Z"/>
  <path class="st17" d="M431.7,56.8c11-7,22.8-11.9,35.9-14.6,1,1.2,1.3,2.2,2,2.8,6.9,5.4,13.8,10.8,20.8,16.2,8.8,6.7,17.7,13.4,26.4,20.2,10.6,8.2,21.1,16.6,31.6,24.9,15.8,12.4,31.5,24.7,47.3,37,15.8,12.3,31.7,24.5,47.4,36.9,2.3,1.8,3.9,4.5,5.9,6.8h-65c-2-8.6-3.2-17.2-6.1-25.2-9.9-27.3-29.7-43.4-58.1-48.7-6.1-1.1-12.6-.8-19.3-1.5-1.6-2-2.3-4-3.8-5.1-12.5-9.8-25.1-19.4-37.7-29-9.1-6.9-18.2-13.8-27.2-20.7Z"/>
  <path class="st3" d="M498,37c41-2.7,76.9,9.8,108,36.4,16.4,14,29.7,30.7,38.2,50.5,4.9,11.3,7.8,23.5,11.2,35.7-2.8-.9-5.5-1.9-7.6-3.5-6.5-4.8-12.8-9.9-19.2-14.9-12.8-9.9-25.7-19.7-38.5-29.8-14.1-11.2-28-22.8-42.2-33.9-14.6-11.4-29.5-22.3-44.2-33.6-2.3-1.8-3.8-4.6-5.7-7Z"/>
  <path class="st9" d="M666,290c-2.8.3-5.6,1-8.3,1-24.8,0-49.6.1-74.3,0-16.5,0-30.2-9.1-35.6-23.3-6-15.8-2.6-32.1,10.4-43,5-4.1,12-5.8,18.5-8.2,1.3,1.3,2,2.5,3,3.3,7,5.5,14,11,21.1,16.4,19.6,15.4,39.3,30.7,58.9,46.2,2.6,2,4.3,5,6.4,7.6Z"/>
  <path class="st6" d="M477,791.7c-27.9,0-55.9.5-83.8,0-16.5-.3-28.6-8.6-34.6-24.1-5.9-15.3-2.9-29.5,9.2-40.6,5-4.6,12.3-6.7,19-9.6,6.7,5.9,12.8,11.6,19.4,16.8,4.2,3.4,9.3,5.6,13.5,8.9,18.3,14.3,36.5,28.8,54.6,43.4,1.4,1.1,1.9,3.4,2.9,5.1Z"/>
  <path class="st18" d="M550.9,327.8c5.7-9.5,14-15.5,24.9-16.7,9.3-1.1,18.8-.7,28.8-.6,2.8,3.1,4.8,6.2,7.5,8.4,8.3,6.8,16.8,13.4,25.3,19.9,8.9,6.8,18,13.4,26.9,20.4,6.5,5.1,12.6,10.6,18.9,16-4.8,6.5-11.7,9.3-19.2,9.7-13.3.8-26.7.5-40.5.2-5.7-5.2-10.8-10.1-16.2-14.5-7.1-5.7-14.4-11.1-21.6-16.5-11.5-8.8-23.1-17.5-34.6-26.2Z"/>
  <path class="st1" d="M497.6,37c2.3,2.4,3.8,5.2,6.1,7,14.6,11.3,29.6,22.2,44.2,33.6,14.2,11.1,28,22.7,42.2,33.9,12.7,10.1,25.6,19.9,38.5,29.8,6.4,5,12.7,10,19.2,14.9,2.2,1.6,4.8,2.6,7.6,3.9,1.4,8.8,2.4,17.5,3.5,27.1-3.8,0-6.4,0-9.4,0-2.4-2.3-4-5-6.3-6.9-15.7-12.4-31.6-24.6-47.4-36.9-15.8-12.3-31.6-24.7-47.3-37-10.6-8.3-21-16.6-31.6-24.9-8.7-6.8-17.6-13.4-26.4-20.2-7-5.3-13.9-10.7-20.8-16.2-.7-.6-1.1-1.6-1.6-2.8,9.7-2,19.4-3.6,29.5-5.3Z"/>
  <path class="st4" d="M564.4,672c-2.4-2.1-4.2-4.5-6.4-6.3-14.3-11.5-28.7-22.9-43.1-34.3-11.3-8.9-22.7-17.6-33.9-26.5-1.1-.9-1.9-2.1-2.9-3.6,14.2,0,28.5,1,42.8.7,8.8-.2,17.5-2.1,26.8-3,1.9,1.7,3.2,3.3,4.7,4.5,18.3,14.1,36.6,28.1,54.8,42.3,3.3,2.6,5.9,6,8.9,9-16.4,7.7-33.4,13.6-51.6,17.1Z"/>
  <path class="st10" d="M356.1,407.5c1.4,0,2.9.3,4,1.2,11.4,9,22.7,18.2,34.2,27.1,15.5,12.1,31.3,23.8,46.8,35.9,11,8.6,21.5,17.6,32.5,26.2,13.5,10.6,27.3,20.9,40.9,31.4,11,8.5,21.9,17,32.7,25.6.9.7,1.2,2.2,1.8,3.7-7.7,2-15.4,3.7-23.6,5.4-4.2-3.9-7.6-8.2-11.7-11.6-12.4-10-25.1-19.5-37.6-29.3-13.8-10.8-27.4-21.9-41.3-32.6-9.5-7.4-19.5-14.2-29.1-21.6-9.4-7.3-18.6-14.9-27.8-22.4-4.8-3.8-9.5-7.7-14.5-11.3-1.5-1.1-3.6-1.4-5.8-2-.8-8.4-1.2-16.7-1.5-25.5Z"/>
  <path class="st15" d="M477.5,791.8c-1.4-1.8-1.9-4.1-3.3-5.2-18.1-14.6-36.3-29.1-54.6-43.4-4.2-3.3-9.3-5.6-13.5-8.9-6.5-5.2-12.6-10.9-19-16.8,18-.6,36-.9,54.5-.8,1,1.4,1.3,2.7,2.1,3.3,11.8,9.6,23.6,19.2,35.6,28.5,14.9,11.5,30,22.7,44.8,34.3,3.1,2.4,5.3,5.9,7.9,8.9-18,0-36,.1-54.5,0Z"/>
  <path class="st12" d="M356.1,224c.2-17.4.5-34.8,1.2-52.6,2.1.3,4,.8,5.3,1.8,18.2,14.3,36.2,28.9,54.4,43.1,4.3,3.4,9.4,5.8,14.1,8.7,0,17.7,0,35.4-.3,53.5-2.2-.4-4.2-.9-5.7-2-3.9-2.8-7.7-5.7-11.5-8.7-13.2-10.4-26.4-21-39.7-31.3-5.7-4.4-11.8-8.3-17.8-12.5Z"/>
  <path class="st14" d="M538,716.5c19.7,0,39.4-.1,59.6.2,1.4,1.5,2.2,2.9,3.3,3.8,12,9.6,24.1,19.1,36.2,28.6,6.5,5.1,13.1,10,19.7,15-4.8,14.8-14.3,24.3-30.4,26.7-1.7-1.9-2.7-3.7-4.2-4.9-15.4-12.2-30.9-24.4-46.4-36.5-9.1-7-18.6-13.5-27.4-20.9-3.9-3.3-9.8-5.4-10.3-11.9Z"/>
  <path class="st18" d="M431.3,224.7c-4.9-2.5-9.9-5-14.3-8.3-18.2-14.2-36.3-28.8-54.4-43.1-1.4-1.1-3.2-1.5-5.2-2.2.7-16,5.5-31,12.4-45.8,2.1.3,3.9.6,5.2,1.5,14,10.8,27.8,21.7,41.8,32.5,5.2,4,10.7,7.4,16.1,11.1-.4,16-.8,32.1-1.1,48.1,0,2-.1,4-.4,6.3Z"/>
  <path class="st13" d="M356.1,224.5c6,3.7,12.1,7.6,17.8,12,13.3,10.3,26.5,20.9,39.7,31.3,3.8,3,7.5,5.9,11.5,8.7,1.6,1.1,3.5,1.7,5.7,2.5.4,16.7.5,33.4.1,50.5-4.8-2.6-9.2-5.4-13.4-8.6-17.7-13.9-35.3-27.9-53-41.8-2.6-2-5.6-3.4-8.4-5.1,0-16.4,0-32.7,0-49.5Z"/>
  <path class="st7" d="M532.5,791.8c-3.1-3.1-5.3-6.6-8.4-9-14.8-11.6-30-22.8-44.8-34.3-12-9.3-23.8-18.9-35.6-28.5-.8-.7-1.1-1.9-1.7-3.2,16.3-.4,32.7-.5,49.5,0,1.8,2.4,2.8,4.9,4.6,6.3,8.2,6.4,16.8,12.3,25,18.8,14,10.9,27.7,22.2,41.7,33.1,5.8,4.5,12.1,8.4,18,12.8,1.1.8,1.5,2.7,2.2,4.1-16.7,0-33.4.1-50.5,0Z"/>
  <path class="st10" d="M616.3,654.8c-3.3-3-5.9-6.4-9.2-8.9-18.2-14.2-36.5-28.2-54.8-42.3-1.6-1.2-2.8-2.8-4.3-4.6,15.9-4.2,31.2-9.8,46.6-17,2.2,1.1,3.7,2.1,5.1,3.3,16.5,12.9,33,25.8,49.3,38.8,2.7,2.2,4.7,5.3,7,8-13.1,7.5-26.3,15-39.7,22.6Z"/>
  <path class="st0" d="M431.4,56.9c9.4,6.8,18.5,13.7,27.6,20.6,12.6,9.6,25.2,19.2,37.7,29,1.4,1.1,2.2,3.1,3.3,5-16.5,2.4-31.1,8.9-44.4,19.5-1.8-1.3-2.7-2.8-4-3.8-10.8-8.4-21.7-16.8-32.6-25.2-7.4-5.8-14.8-11.6-22.2-17.4,7.6-6.8,15.1-13.8,23-20.4,3.4-2.9,7.5-4.9,11.6-7.3Z"/>
  <path class="st9" d="M396.5,84.8c7.7,5.6,15.1,11.4,22.5,17.2,10.8,8.4,21.7,16.7,32.6,25.2,1.3,1,2.2,2.5,3.6,3.9-1.8,2.7-3.9,5.2-6.1,7.7-7.8,9.1-12.7,19.6-16.1,31.3-5.6-3.5-11.2-7-16.4-10.9-14-10.7-27.8-21.7-41.8-32.5-1.2-1-3-1.2-5-1.8,5.7-15.2,15.3-28,26.5-40.1Z"/>
  <path class="st2" d="M431.9,423.6c-1.5-.2-3.1-.6-4.4-1.6-11.8-9.2-23.6-18.6-35.4-27.9-10.2-8.1-20.5-16.1-30.8-24.2-1.4-1.1-3.1-1.9-4.9-2.9-.4-15.1-.4-30.1,0-45.5,6.4,3.7,12.7,7.4,18.4,11.9,15.6,12.2,30.9,24.8,46.5,37.1,2.9,2.3,6.6,3.7,9.9,5.5.3,15.7.6,31.4.8,47.6Z"/>
  <path class="st5" d="M431.2,375.5c-3.4-1.4-7-2.8-10-5.1-15.6-12.3-30.9-24.9-46.5-37.1-5.7-4.5-11.9-8.2-18.3-12.3-.4-15.4-.4-30.8-.4-46.6,2.9,1.2,5.9,2.6,8.5,4.7,17.7,13.9,35.3,27.9,53,41.8,4.1,3.2,8.6,6,13.3,9.1.4,15.1.5,30.1.5,45.6Z"/>
  <path class="st16" d="M583.5,791.8c-1.2-1.5-1.5-3.4-2.6-4.2-5.9-4.4-12.2-8.2-18-12.8-14-10.9-27.7-22.2-41.7-33.1-8.2-6.4-16.8-12.4-25-18.8-1.8-1.4-2.8-3.9-4.2-6.2,15-.4,30.1-.5,45.5-.4.9,6.6,6.8,8.7,10.8,12,8.8,7.4,18.3,13.8,27.4,20.9,15.5,12.1,31,24.3,46.4,36.5,1.5,1.2,2.5,3,3.8,4.8-8.5.7-17.1,1.1-25.7,1.3-5.5.1-10.9,0-16.8,0Z"/>
  <path class="st12" d="M763.4,479.1c-4.9,14.2-9.8,28.4-15.2,42.6-2.2-1.8-3.8-3.8-5.7-5.3-16-12.5-32-25-48.1-37.3-2.4-1.8-5.4-2.7-8.1-4,2.5-10.2,4.8-20.5,7.6-30.6,1.2-4.4,3.3-8.5,5.5-13,4.4,2.4,8.4,4.8,12,7.6,13.5,10.6,26.8,21.5,40.3,32.1,3.7,2.9,7.8,5.4,11.7,8Z"/>
  <path class="st5" d="M634.3,495.1c-8.7,10.3-17.4,20.6-26.7,30.9-17.4-13-34.1-25.9-50.8-38.8-3.5-2.7-6.7-5.8-10-8.7,10.6-7.1,19.3-16.1,26.6-27.3,4,1.3,7.8,2.2,10.6,4.4,16.9,13,33.6,26.2,50.3,39.4Z"/>
  <path class="st13" d="M634.6,494.9c-17-13-33.7-26.2-50.6-39.2-2.9-2.2-6.7-3.2-10.4-4.7,5.4-11.5,8.9-23.6,9.2-37,3.3,0,6.3,0,9.8.4,3.9,2.4,7.5,4,10.6,6.4,16.1,12.3,32.1,24.9,48.2,37.3-3.5,13.1-9.1,25.3-16.8,36.8Z"/>
  <path class="st13" d="M686.1,475.4c2.9,1,5.9,1.9,8.3,3.7,16.1,12.3,32.1,24.8,48.1,37.3,1.9,1.5,3.5,3.5,5.5,5.5-5.9,11.8-12,23.4-18.7,34.9-4.2-2.6-7.9-5.1-11.4-7.9-11-8.7-21.8-17.6-32.9-26.2-5.1-3.9-10.6-7.2-15.9-10.7,5.6-12.1,11.3-24.2,17-36.7Z"/>
  <path class="st0" d="M666.4,290c-2.5-2.6-4.3-5.6-6.8-7.6-19.5-15.5-39.2-30.8-58.9-46.2-7-5.5-14.1-10.9-21.1-16.4-1-.8-1.7-1.9-2.6-3.2,15.3-.4,30.7-.5,46.5-.3,5.3,4.6,10,9,15,13,9.6,7.8,19.5,15.3,29.2,23,7.9,6.3,15.7,12.6,23.6,18.9-5.8,9.5-13.3,16.6-25,18.9Z"/>
  <path class="st9" d="M683.4,375c-6.6-5.2-12.7-10.7-19.2-15.8-8.8-7-17.9-13.5-26.9-20.4-8.5-6.5-17-13.1-25.3-19.9-2.7-2.2-4.7-5.3-7.1-8.3,20-.1,40-1,59.9.6,19.7,1.6,34.3,22.5,30.8,42-1.5,8.3-5.1,16.1-12.3,21.9Z"/>
  <path class="st2" d="M546.5,478.7c3.7,2.8,6.9,5.8,10.3,8.5,16.7,13,33.4,25.9,50.5,38.9-9.6,7.3-19.7,14.4-30,21.6-3.5-3.1-6.4-6.7-9.9-9.4-15.3-11.7-30.8-23.2-46.2-34.8-3.9-3-7.7-6.2-11.5-9.4-.9-.8-1.2-2.2-1.7-3.8,5.2-1.1,10.6-1.1,15.6-2.7,7.7-2.4,15.1-5.8,22.9-8.9Z"/>
  <path class="st8" d="M656.4,632.1c-2.6-2.6-4.6-5.8-7.3-8-16.3-13.1-32.9-25.9-49.3-38.8-1.4-1.1-3-2.1-4.8-3.3,9.6-6.7,19.5-13.2,30.1-19.8,2.9,1.3,5.4,2.4,7.5,4,15.2,11.8,30.4,23.5,45.3,35.5,2.6,2.1,4.2,5.6,6.2,8.5-9.1,7.3-18.2,14.6-27.7,21.9Z"/>
  <path class="st5" d="M668.8,512.2c5.6,3.3,11.1,6.6,16.2,10.5,11.1,8.6,21.9,17.5,32.9,26.2,3.5,2.8,7.2,5.3,11.1,8.1-6.7,9.7-13.8,19.3-21.4,28.9-16.2-12.4-31.8-24.8-47.4-37.2-3.8-3-7.9-5.8-11.9-8.7,6.8-9.2,13.5-18.4,20.5-27.8Z"/>
  <path class="st18" d="M763.6,478.8c-4.1-2.4-8.2-4.8-11.9-7.7-13.5-10.6-26.8-21.5-40.3-32.1-3.6-2.8-7.6-5.2-11.7-7.9,8-12.8,23.7-19.6,38-16.6,16,3.4,27.6,15.2,30.4,30.7,2,11.5-1.9,22.3-4.4,33.6Z"/>
  <path class="st2" d="M647.9,540.2c4.2,2.7,8.3,5.4,12.1,8.5,15.6,12.4,31.2,24.8,47.2,37.4-7.3,8-14.9,15.9-22.8,24-2.4-2.7-3.9-6.2-6.5-8.4-14.9-12-30.1-23.8-45.3-35.5-2.1-1.6-4.5-2.7-7.2-4.1,7.2-7.2,14.7-14.4,22.5-21.8Z"/>
  <path class="st12" d="M550.6,328c11.8,8.5,23.4,17.3,34.9,26,7.2,5.5,14.6,10.8,21.6,16.5,5.5,4.4,10.6,9.3,15.8,14.3-15.7.3-31.6,1.6-47.2-.3-22.6-2.7-37.3-27.5-28.3-50.6.8-2,1.9-3.9,3.1-6Z"/>
  <path class="st17" d="M691.6,270.9c-8.1-6.1-16-12.4-23.9-18.6-9.7-7.7-19.5-15.2-29.2-23-5-4-9.7-8.4-14.5-12.9,11.8-.4,23.6-.6,35.4-.4,24.6.4,42.1,24.2,35.2,47.8-.7,2.4-1.8,4.6-3,7.1Z"/>
  <path class="st4" d="M328.2,474.5c-3.2-1.7-6.5-3.6-9.5-5.9-11.6-8.8-23.1-17.7-34.6-26.6-4.8-3.8-9.3-7.9-14.2-11.6-3.3-2.4-7-4.1-10.8-6.4,10.3-10,22.6-12.4,35.9-8.3,14.1,4.3,22.5,14.2,25.9,28.4,2.4,10,4.8,20,7.3,30.4Z"/>
  <path class="st12" d="M651.6,457.8c-16.3-12.2-32.2-24.7-48.4-37-3.1-2.4-6.7-4-10.2-6.3,21.5-.3,43-.3,64.9-.3.7,15.1-1.9,29.4-6.4,43.7Z"/>
  <path class="st4" d="M656.9,763.6c-6.7-4.6-13.3-9.5-19.8-14.6-12.1-9.5-24.2-19-36.2-28.6-1.1-.9-1.9-2.2-2.8-3.7,9.7-.2,19.6-.8,29.3.3,20.8,2.3,35.1,25.1,29.6,46.5Z"/>
</svg>