<?xml version="1.0" encoding="UTF-8"?>
<svg id="Layer_1" xmlns="http://www.w3.org/2000/svg" version="1.1" viewBox="0 0 1024 588">
  <!-- Generator: Adobe Illustrator 29.5.0, SVG Export Plug-In . SVG Version: 2.1.0 Build 137)  -->
  <defs>
    <style>
      .st0 {
        fill: #ff5b6b;
      }

      .st1 {
        fill: #ff9a9f;
      }

      .st2 {
        fill: #f93941;
      }

      .st3 {
        fill: #ff9299;
      }

      .st4 {
        fill: #ff8992;
      }

      .st5 {
        fill: #ff7f89;
      }

      .st6 {
        fill: #ff7380;
      }

      .st7 {
        fill: #fa3943;
      }

      .st8 {
        fill: #ff6d7b;
      }

      .st9 {
        fill: #fe4c5d;
      }

      .st10 {
        fill: #ff8f96;
      }

      .st11 {
        fill: #ff7984;
      }

      .st12 {
        fill: #ff6271;
      }

      .st13 {
        fill: #fd4959;
      }

      .st14 {
        fill: #ff6876;
      }

      .st15 {
        fill: #ff5565;
      }

      .st16 {
        fill: #fe4f60;
      }

      .st17 {
        fill: #ff959c;
      }

      .st18 {
        fill: #fb3d4a;
      }

      .st19 {
        fill: #fc4252;
      }

      .st20 {
        fill: #ffa0a4;
      }

      .st21 {
        fill: #f8383c;
      }
    </style>
  </defs>
  <path class="st13" d="M671.1,412.4c-9.6,6-19.8,7-30.6,3.9-11.9-3.4-23.9-6.6-36.3-10.5-5-5.1-9.3-10.1-14.4-14.2-14.4-11.6-29.2-22.8-43.8-34.1-9.7-7.5-19.5-14.7-29.1-22.3-4.3-3.4-8.1-7.5-12.1-11.3,18.7,0,37.4,0,56.6.4.8,1,1.1,1.7,1.5,2.1,17.4,13.7,34.7,27.5,52.2,41.1,14.8,11.5,29.8,22.6,44.6,34.1,4.1,3.2,7.5,7.1,11.2,10.7Z"/>
  <path class="st21" d="M579.1,535.3c-7.1,9.8-17.2,13.9-28.9,14.2-14,.3-28,.3-41.9-.4-18.6-1-33.2-17-34-36.2-.8-18.2,12.8-35,31.3-37.6,1.2,1.2,1.8,2.3,2.7,2.9,6.2,4.5,12.5,8.6,18.5,13.3,14,10.8,27.9,21.7,41.5,33,3.9,3.2,10.1,4.4,10.8,10.9Z"/>
  <path class="st10" d="M857,182.8c-6.3-2.9-12.5-5.8-18.8-8.8-23.5-11-47-22-70.9-33.5-2-2.6-3.3-5.3-5.4-6.9-27.7-21.6-55.4-43-83.2-64.5-13.7-10.6-27.5-21.3-41.1-32.1-3.8-3-7.2-6.6-10.7-9.9,15.4,2.6,30.8,5.1,46.7,8.1,2.1,2.2,3.6,4.3,5.5,5.7,7.6,5.9,15.3,11.6,22.8,17.5,11.3,8.9,22.4,18,33.7,26.8,13.3,10.4,26.8,20.6,40.1,31,14.7,11.5,29.4,23.1,44.1,34.6,10.8,8.4,21.8,16.7,32.6,25.2,2,1.6,3.1,4.4,4.6,6.7Z"/>
  <path class="st5" d="M698,117.8c-24.6-5-49.2-10-73.8-15.4-1.2-2.1-1.9-4.2-3.4-5.4-11.8-9.2-23.8-18.3-35.7-27.4-16.2-12.5-32.4-25-48.4-37.8-3.9-3.1-7.1-7.2-10.7-10.8,18,.4,36,.8,54.6,1.6.9,1,1.1,1.7,1.6,2,5.8,4.6,11.8,9.1,17.6,13.7,12.2,9.6,24.4,19.3,36.6,28.9,9.9,7.8,19.7,15.6,29.7,23.3,7.7,6,15.7,11.6,23.2,17.8,3.3,2.7,5.8,6.3,8.7,9.5Z"/>
  <path class="st14" d="M762,299c-6.1-1.2-12.5-1.5-18.3-3.7-19.9-7.5-39.5-15.7-59.5-24.3-1.1-2.2-1.7-4.3-3-5.4-8.7-6.9-17.6-13.5-26.4-20.3-14.5-11.4-28.8-22.9-43.3-34.2-12.3-9.6-24.8-18.8-37-28.4-3.5-2.8-6.4-6.4-9.6-9.7,15.7,1.5,31.5,3.1,47.7,5.1,1.9,2.3,3.1,4.4,4.8,5.7,17.7,13.9,35.5,27.7,53.2,41.5,10.7,8.3,21.4,16.7,32.2,25,15.3,11.8,30.7,23.5,45.8,35.6,4.8,3.8,8.9,8.6,13.3,13Z"/>
  <path class="st4" d="M698.3,117.9c-3.2-3.3-5.8-7-9-9.6-7.6-6.2-15.5-11.8-23.2-17.8-9.9-7.7-19.8-15.5-29.7-23.3-12.2-9.6-24.4-19.3-36.6-28.9-5.8-4.6-11.8-9.1-17.6-13.7-.5-.4-.7-1.1-1.2-1.9,10.4.8,20.9,1.9,31.4,3,4.6.5,9.1.9,14.1,1.4,4,3.4,7.3,7,11.1,10,13.6,10.8,27.3,21.5,41.1,32.1,27.7,21.5,55.5,42.9,83.2,64.5,2.1,1.6,3.4,4.3,5.1,6.8-22.8-7.2-45.5-14.8-68.6-22.6Z"/>
  <path class="st18" d="M549.2,398.7c-20.4.8-40.9,1.5-61.8,1.9-1.2-2-1.5-4-2.7-5-2.8-2.5-6-4.5-9.1-6.7-6.9-5.1-13.9-10.1-20.7-15.4-11-8.7-21.9-17.7-32.7-26.6-2.8-2.3-5.5-4.6-8.3-6.9,16.2-3.8,32.4-7.5,49.4-11.1,10,7.7,19.2,15.2,28.6,22.5,17,13.2,34.1,26.1,51,39.4,2.6,2,4.2,5.3,6.3,8Z"/>
  <path class="st8" d="M762.4,299c-4.8-4.4-8.9-9.2-13.7-13-15.1-12.1-30.6-23.8-45.8-35.6-10.7-8.3-21.5-16.6-32.2-25-17.8-13.8-35.5-27.6-53.2-41.5-1.8-1.4-3-3.5-4.5-5.6,14.7,2.3,29.5,5,44.6,8.1,1.3,1.6,2.1,3,3.2,3.9,14.7,11.5,29.4,22.9,44.1,34.4,16.7,13,33.4,26,50.1,39,10.6,8.2,21.1,16.5,31.6,24.7-6.4,6.9-14.5,10.3-24.3,10.7Z"/>
  <path class="st12" d="M564.6,172.9c3.6,3.3,6.5,7,10,9.8,12.2,9.6,24.8,18.9,37,28.4,14.5,11.3,28.8,22.9,43.3,34.2,8.7,6.9,17.7,13.4,26.4,20.3,1.3,1,1.8,3.1,2.7,5.1-11.7-2.8-23.4-6.2-35.2-9.2-9-2.3-18.1-4.2-27.4-6.8-1.7-2.3-2.7-4.5-4.4-5.8-13.8-10.8-27.7-21.5-41.6-32.2-15.1-11.8-30.3-23.5-45.3-35.5-3.3-2.7-6-6.1-9-9.2,14.4.2,28.8.5,43.6.8Z"/>
  <path class="st0" d="M520.5,172c3.5,3.2,6.2,6.6,9.5,9.3,15,12,30.2,23.7,45.3,35.5,13.8,10.8,27.8,21.4,41.6,32.2,1.7,1.3,2.7,3.5,4.1,5.6-14.1-1.4-28.2-3.3-42.4-5.1-4.6-.6-9.2-.8-14.3-1.8-2-2.4-3.3-4.6-5.2-6.1-11.9-9.4-24-18.7-36-28-15.6-12.2-31.2-24.4-46.8-36.6-.7-.5-1-1.6-1.5-2.4,15.1-.9,30.1-1.8,45.6-2.6Z"/>
  <path class="st17" d="M701,41.1c14.4,3.9,28.8,7.9,43.6,12.3,1.8,2.4,2.9,4.7,4.8,6.2,10.8,8.5,21.9,16.6,32.7,25.1,16.3,12.8,32.4,25.8,48.7,38.5,19.5,15.2,39.1,30,58.6,45.2,1.4,1.1,1.8,3.3,2.7,4.9-5.1,3-10.2,6-15.6,8.7-1.2-1.7-1.6-3.5-2.8-4.4-13.8-11-27.7-22-41.7-32.9-21.9-17.1-44-34.1-66-51.1-20.7-16-41.3-32-61.9-48.1-1.3-1-2.1-2.8-3.1-4.3Z"/>
  <path class="st19" d="M433,256.8c-15.4,4-30.8,8-46.7,11.7-.8-.9-1-1.6-1.4-2-10.3-8.3-20.6-16.7-31-24.9-10.5-8.3-21.2-16.5-31.7-24.8-1.1-.9-1.6-2.6-2.3-4,13.8-5,27.5-9.9,41.7-14.6,9.6,7.8,18.7,15.3,28,22.6,13.8,10.8,27.7,21.5,41.5,32.4,1,.8,1.3,2.4,1.9,3.7Z"/>
  <path class="st19" d="M549.6,398.8c-2.4-2.8-4-6.1-6.6-8.1-16.9-13.3-34-26.2-51-39.4-9.4-7.3-18.6-14.8-28.2-22.4,4.5-1,9.3-2.2,14.1-2.7,8.7-1,17.5-1.5,26.7-2.2,4.4,3.9,8.2,8,12.5,11.4,9.5,7.6,19.4,14.8,29.1,22.3,14.6,11.3,29.4,22.5,43.8,34.1,5.1,4.1,9.4,9,14,14-11.7-1.5-23.4-3.4-35.2-5.1-6.2-.9-12.6-1.1-19.2-1.8Z"/>
  <path class="st16" d="M523,247.1c-10.1.6-20.2,1.1-30.2,1.8-6,.4-11.9,1-18.3,1.1-.8-1-.9-1.8-1.4-2.1-10.1-8.2-20.2-16.4-30.5-24.4-11.5-8.9-23.2-17.4-34.8-26.2-3.8-2.9-7.2-6.1-10.8-9.2,14.1-3,28.1-5.9,42.7-8.6,14.6,11.5,28.7,22.7,42.9,33.9,11.6,9.1,23.2,18.2,34.7,27.5,2.2,1.8,3.9,4.2,5.8,6.3Z"/>
  <path class="st1" d="M892.4,173.1c-1.2-1.5-1.7-3.7-3-4.7-19.5-15.1-39.1-30-58.6-45.2-16.3-12.7-32.4-25.8-48.7-38.5-10.8-8.5-21.9-16.6-32.7-25.1-1.8-1.4-3-3.8-4.4-6.1,20.5,7,41,14.4,61.8,22.5,3.4,3.4,6.4,6.4,9.7,9,9.8,7.9,19.6,15.6,29.5,23.4,9.2,7.3,18.4,14.6,27.7,21.7,9.7,7.4,19.6,14.6,29.4,21.9-1.3,8-4.7,15-10.7,21Z"/>
  <path class="st19" d="M177.9,113.8c13.1-6.9,26.2-13.9,39.7-20.6,2.5,2.5,4.4,5.1,6.8,6.9,5.2,4.1,10.7,7.7,15.9,11.8,10.9,8.6,21.8,17.2,32.5,26.1,3,2.5,5.4,5.7,8.1,8.6-13.7,6.4-27.5,12.9-41.6,19-1.3-1.8-1.9-3.7-3.2-4.8-18.3-14.4-36.8-28.6-55.2-42.9-1.3-1-2.1-2.8-3.1-4.2Z"/>
  <path class="st18" d="M319.5,212.8c1.1,1.3,1.6,3,2.7,3.9,10.5,8.4,21.1,16.5,31.7,24.8,10.4,8.2,20.7,16.6,31,24.9.5.4.7,1.1,1.1,2-14.4,5.7-28.8,11-43.6,16-1.4-2.1-2.1-4.3-3.5-5.4-6.7-5.3-13.8-10.1-20.5-15.3-9.3-7.1-18.5-14.4-27.7-21.7-4-3.2-7.7-6.6-11.6-10,5.9-3.2,11.7-6.7,17.8-9.6,7.3-3.5,14.9-6.4,22.7-9.6Z"/>
  <path class="st11" d="M525.5,20.9c4,3.7,7.2,7.7,11.1,10.8,16,12.8,32.2,25.3,48.4,37.8,11.9,9.2,23.9,18.2,35.7,27.4,1.5,1.2,2.3,3.3,3.1,5.2-16.2-1.4-32.1-3-48.4-5.2-1.8-2.4-2.9-4.7-4.7-6.1-10.1-7.9-20.5-15.6-30.7-23.5-15.1-11.8-30.1-23.6-45.1-35.5-3.8-3-7.2-6.5-10.9-9.7,13.7-.5,27.4-.9,41.5-1.3Z"/>
  <path class="st18" d="M177.6,113.9c1.4,1.3,2.1,3.1,3.4,4.1,18.4,14.3,36.8,28.6,55.2,42.9,1.3,1,1.9,2.9,2.8,4.8-8.9,5.3-17.6,10.6-26.8,15-17.4,8.2-39.5,1.1-48.3-15-10.4-19.1-5.1-39.8,13.7-51.8Z"/>
  <path class="st13" d="M281.3,146.6c-3-2.8-5.4-6.1-8.5-8.6-10.7-8.8-21.6-17.5-32.5-26.1-5.2-4.1-10.7-7.7-15.9-11.8-2.4-1.9-4.3-4.4-6.5-7,12.1-5.9,24.2-11.5,36.8-16.8,3.6,2.5,6.8,4.5,9.8,6.8,17.6,13.6,35.2,27.3,52.7,41.1,2,1.6,3.1,4.3,4.6,6.5-13.4,5.2-26.9,10.4-40.7,15.7Z"/>
  <path class="st6" d="M786.9,288.2c-10.8-8.1-21.3-16.4-31.9-24.6-16.7-13-33.4-26-50.1-39-14.7-11.5-29.5-22.9-44.1-34.4-1.1-.9-1.9-2.3-2.8-3.7,20.1,5.4,40.3,11.2,60.7,17.6,7,6.4,13.5,12.4,20.4,18,12.3,9.8,24.8,19.3,37.2,28.8,7,5.4,14.1,10.9,21.2,16.3-2.1,7.6-4,15.4-10.6,21Z"/>
  <path class="st12" d="M474.1,98.3c-12.3,1.6-24.6,3.1-36.9,4.7-2.1.3-4.3.6-6.9.5-1.8-1.8-3-3.3-4.5-4.5-5.1-4.1-10.4-8.2-15.6-12.2-13.5-10.6-27-21.2-40.5-31.9-5-4-9.9-8.1-14.9-12.1,13.1-3,26.1-6.1,39.7-8.8.9,1,1.3,1.7,1.9,2.2,19.8,15.6,39.7,31.2,59.5,46.9,6.2,4.9,12.1,10.1,18.1,15.2Z"/>
  <path class="st7" d="M413.6,339.9c3.2,2.3,5.9,4.6,8.7,6.9,10.9,8.9,21.7,17.9,32.7,26.6,6.7,5.3,13.8,10.3,20.7,15.4,3,2.2,6.2,4.3,9.1,6.7,1.2,1.1,1.6,3,2.3,5-14,3.2-28.1,5.9-42.6,8.3-1.4-1.5-2.1-2.8-3.2-3.7-4.5-3.8-9.2-7.5-13.8-11.2-7.9-6.2-15.8-12.4-23.8-18.5-6.2-4.8-12.5-9.5-18.9-14.1-1.5-1.1-3.4-1.6-5.2-2.4,4.4-6.8,10.4-11.5,18.1-14,5.2-1.7,10.3-3.3,15.9-5Z"/>
  <path class="st7" d="M278.7,232.1c4.2,3.2,7.9,6.7,11.9,9.9,9.2,7.3,18.4,14.6,27.7,21.7,6.8,5.2,13.8,10.1,20.5,15.3,1.5,1.2,2.1,3.4,3.2,5.4-8.6,4.3-17,8.6-25.8,12.2-14.8,6.1-30.7,2.2-42.3-10-9.7-10.1-12.7-27.7-6.1-40.8,2.5-5,7-9.1,10.9-13.7Z"/>
  <path class="st0" d="M354.5,42.8c5.3,4,10.2,8.1,15.3,12.1,13.5,10.7,27,21.3,40.5,31.9,5.2,4.1,10.4,8.1,15.6,12.2,1.5,1.2,2.7,2.8,4.1,4.5-13.4,3-26.8,5.7-40.6,8-1.5-2-2.3-4-3.7-5.2-10.4-8.5-20.8-16.8-31.3-25.1-11.2-8.7-22.5-17.3-33.7-26-.7-.5-1-1.5-1.6-2.3,11.7-3.4,23.4-6.7,35.5-10.1Z"/>
  <path class="st13" d="M396.6,188c4,3.1,7.5,6.4,11.2,9.2,11.5,8.8,23.3,17.3,34.8,26.2,10.3,8,20.3,16.2,30.5,24.4.5.4.6,1.1.9,2.1-12.1,2.3-24.2,4.2-36.4,6.1-1.3.2-2.6.6-4.3.8-1-1.3-1.3-2.9-2.3-3.7-13.8-10.8-27.7-21.5-41.5-32.4-9.3-7.3-18.4-14.8-27.6-22.6,11.4-3.6,22.8-6.9,34.6-10.2Z"/>
  <path class="st3" d="M700.6,40.9c1.4,1.6,2.1,3.4,3.4,4.5,20.6,16.1,41.3,32.1,61.9,48.1,22,17,44,34,66,51.1,14,10.9,27.9,21.8,41.7,32.9,1.1.9,1.6,2.7,2.4,4.5-6.1.6-12.2.8-18.7.9-1.9-2.4-3-5.2-5-6.8-10.7-8.6-21.7-16.8-32.6-25.2-14.7-11.5-29.4-23.1-44.1-34.6-13.3-10.4-26.8-20.6-40.1-31-11.3-8.8-22.4-18-33.7-26.8-7.5-5.9-15.3-11.6-22.8-17.5-1.9-1.5-3.4-3.5-5.1-5.6,8.7,1.6,17.5,3.4,26.6,5.5Z"/>
  <path class="st15" d="M523.5,247.2c-2.4-2.2-4.1-4.6-6.3-6.4-11.5-9.2-23.1-18.3-34.7-27.5-14.1-11.2-28.3-22.3-42.4-33.8,11.3-1.8,22.6-3.3,34.4-4.8.9.8,1.2,1.9,1.9,2.4,15.6,12.3,31.2,24.5,46.8,36.6,12,9.3,24,18.6,36,28,1.9,1.5,3.2,3.7,4.8,5.9-13.3,0-26.7-.2-40.5-.5Z"/>
  <path class="st9" d="M671.5,412.3c-4.1-3.5-7.5-7.5-11.6-10.6-14.7-11.5-29.8-22.6-44.6-34.1-17.5-13.6-34.8-27.4-52.2-41.1-.5-.4-.7-1.1-1.1-2,14.4,1.5,28.8,3.3,43.7,5.6.9,1.4,1.2,2.4,2,3,18.9,14.7,37.8,29.4,56.7,44.2,7.4,5.8,14.5,11.9,21.7,17.9-3.2,6.9-7.4,13.1-14.6,17.1Z"/>
  <path class="st6" d="M483.6,22.1c4,3.3,7.5,6.7,11.3,9.7,15,11.9,30,23.8,45.1,35.5,10.2,7.9,20.5,15.6,30.7,23.5,1.8,1.4,2.9,3.7,4.4,5.9-12.4,0-24.7-.4-37.6-1.2-1.5-1.5-2.3-2.8-3.4-3.6-7.8-6.1-15.8-12.1-23.6-18.2-18.1-14.1-36.2-28.2-54.3-42.4-2.3-1.8-4.3-4-6.4-6.1,11.1-1.1,22.3-2.2,33.8-3.2Z"/>
  <path class="st16" d="M322.4,130.9c-1.9-2.2-3-5-5-6.5-17.5-13.8-35.1-27.5-52.7-41.1-3-2.3-6.2-4.4-9.5-6.9,10.9-4.7,22-9,33.6-13.1,2.8,2.3,5,4.4,7.4,6.4,9.2,7.5,18.4,15,27.7,22.3,10.4,8.1,20.9,16.1,31.2,24.2,1,.8,1.3,2.4,1.9,3.7-11.4,3.7-22.8,7.4-34.6,11Z"/>
  <path class="st15" d="M357.4,119.8c-1-1.3-1.3-2.9-2.3-3.7-10.4-8.2-20.9-16.1-31.2-24.2-9.3-7.3-18.5-14.8-27.7-22.3-2.4-1.9-4.6-4-7-6.4,9.6-3.7,19.3-7,29.5-10.4.9.8,1.2,1.8,2,2.3,11.2,8.7,22.6,17.2,33.7,26,10.5,8.2,21,16.6,31.3,25.1,1.5,1.2,2.2,3.2,3.3,5.2-10.4,3-20.8,5.7-31.6,8.4Z"/>
  <path class="st2" d="M579.4,535.1c-.9-6.3-7.2-7.5-11.1-10.7-13.6-11.3-27.6-22.1-41.5-33-6-4.7-12.4-8.8-18.5-13.3-.9-.6-1.5-1.6-2.3-2.8,1.6-.6,3.2-1.2,4.8-1.2,13.5,0,26.9-.4,40.4,0,15,.5,26.4,7.8,32.8,21.4,6.5,13.8,4.9,27.1-4.6,39.5Z"/>
  <path class="st8" d="M449.3,25.4c2.5,2,4.5,4.2,6.8,6.1,18.1,14.2,36.2,28.3,54.3,42.4,7.8,6.1,15.8,12.1,23.6,18.2,1.1.9,2,2.1,3,3.6-10.7.6-21.4.9-32.5.8-1.6-2-2.5-3.9-3.9-5-9.2-7.2-18.6-14.2-27.9-21.3-14.6-11.2-29.1-22.4-43.6-33.7-2.4-1.9-4-4.9-6-7.3,8.6-1.2,17.3-2.4,26.3-3.6Z"/>
  <path class="st2" d="M379.3,359.1c2,.6,3.9,1.1,5.4,2.2,6.4,4.6,12.7,9.3,18.9,14.1,8,6.1,15.9,12.3,23.8,18.5,4.7,3.7,9.3,7.4,13.8,11.2,1.1.9,1.8,2.2,2.8,3.7-8,2.9-16,5.7-24.1,7.9-14.9,4-30.8-1.8-39.8-14.1-9.5-13-9.9-29.3-.8-43.6Z"/>
  <path class="st14" d="M422.6,28.9c2.4,2.5,4,5.4,6.5,7.4,14.4,11.4,29,22.6,43.6,33.7,9.3,7.1,18.7,14.1,27.9,21.3,1.5,1.1,2.3,3,3.5,4.9-9.6.9-19.3,1.5-29.4,2-6.5-5.1-12.4-10.3-18.6-15.2-19.8-15.7-39.7-31.2-59.5-46.9-.6-.5-1-1.3-1.5-2.3,9-1.9,18.1-3.5,27.6-5Z"/>
  <path class="st15" d="M686.3,394.9c-7.5-5.7-14.6-11.9-22-17.7-18.8-14.8-37.8-29.4-56.7-44.2-.7-.6-1.1-1.6-1.6-2.8,21.5,2.9,42.6,8.1,62.7,16.5,10,4.2,16.1,12.6,19.2,23,2.5,8.4,2,16.7-1.6,25.1Z"/>
  <path class="st20" d="M903.3,151.7c-10.1-7-19.9-14.2-29.7-21.6-9.3-7.1-18.5-14.5-27.7-21.7-9.8-7.8-19.7-15.5-29.5-23.4-3.3-2.6-6.3-5.6-9.5-8.8,10.9,4.4,22.1,8.7,32.8,13.9,14.8,7.2,29.3,14.8,43.7,22.8,15,8.3,21.7,21.3,19.8,38.8Z"/>
  <path class="st11" d="M797.7,266.8c-7.2-5-14.3-10.5-21.3-15.9-12.4-9.6-24.9-19.1-37.2-28.8-6.9-5.5-13.4-11.6-20.1-17.7,14.2,5.2,28.5,10.6,42.7,16.3,4.6,1.8,9.1,4.1,13.6,6.3,16.5,8.1,23.9,21,22.4,40Z"/>
</svg>