<?xml version="1.0" encoding="UTF-8"?>
<svg id="Layer_1" xmlns="http://www.w3.org/2000/svg" version="1.1" viewBox="0 0 1024 704">
  <!-- Generator: Adobe Illustrator 29.5.0, SVG Export Plug-In . SVG Version: 2.1.0 Build 137)  -->
  <defs>
    <style>
      .st0 {
        fill: #fc404f;
      }

      .st1 {
        fill: #ff9a9f;
      }

      .st2 {
        fill: #ff6674;
      }

      .st3 {
        fill: #ff858f;
      }

      .st4 {
        fill: #fd4858;
      }

      .st5 {
        fill: #fe4b5b;
      }

      .st6 {
        fill: #ffa3a7;
      }

      .st7 {
        fill: #f8373b;
      }

      .st8 {
        fill: #ff8b93;
      }

      .st9 {
        fill: #ff6170;
      }

      .st10 {
        fill: #ff8f96;
      }

      .st11 {
        fill: #fd4555;
      }

      .st12 {
        fill: #ff5a6a;
      }

      .st13 {
        fill: #ff7e88;
      }

      .st14 {
        fill: #ff717e;
      }

      .st15 {
        fill: #f9373f;
      }

      .st16 {
        fill: #fa3a44;
      }

      .st17 {
        fill: #fb3d4a;
      }

      .st18 {
        fill: #ff949b;
      }

      .st19 {
        fill: #ff5666;
      }

      .st20 {
        fill: #fe5061;
      }

      .st21 {
        fill: #ff6b79;
      }
    </style>
  </defs>
  <path class="st7" d="M538,679c-24.9.2-48.8-4.9-72.3-12.5-40.2-12.9-75.1-34.5-104.9-64.3-37.9-37.9-75.7-75.9-113.3-114.1-20.6-21-35.8-45.8-48.2-72.3-.3-.6-.4-1.3-.3-2.3,1.6.2,3.1.5,4.2,1.3,5.2,4.1,10.3,8.3,15.5,12.4,14,11,27.9,22,41.9,32.9,10.7,8.4,21.4,16.7,32.1,25.1,22.7,17.7,45.4,35.5,68.2,53.2,12.3,9.6,24.7,19.3,37,28.9,3.5,2.7,6.9,5.6,10.4,8.3,9.7,7.5,19.5,14.8,29.1,22.4,14,11,27.9,22.2,42,33.2,6.7,5.3,13.7,10.2,20.5,15.4,8.1,6.3,16,13,24.1,19.3,4.1,3.3,8.5,6.2,12.7,9.6.8.7.9,2.3,1.4,3.5Z"/>
  <path class="st15" d="M538.4,679.1c-.8-1.3-.9-2.9-1.8-3.6-4.1-3.3-8.5-6.3-12.7-9.6-8.1-6.4-16-13-24.1-19.3-6.7-5.3-13.7-10.2-20.5-15.4-14.1-11-28-22.2-42-33.2-9.6-7.6-19.4-14.9-29.1-22.4-3.5-2.7-6.9-5.5-10.4-8.3-12.3-9.6-24.7-19.3-37-28.9-22.7-17.7-45.4-35.5-68.2-53.2-10.7-8.4-21.4-16.7-32.1-25.1-14-11-28-21.9-41.9-32.9-5.2-4.1-10.3-8.3-15.5-12.4-1.1-.8-2.6-1.2-4.3-1.7-4.9-13.4-9.5-26.8-13.6-40.7,2.6.6,5.1,1.1,7,2.6,5.7,4.3,11,9,16.7,13.3,17.1,13,34.4,25.7,51.5,38.8,10.9,8.4,21.4,17.3,32.1,25.9,9.9,8,19.9,15.8,30,23.7,8.4,6.6,16.9,13.1,25.4,19.7,11.3,8.7,22.7,17.5,34,26.2,3.3,2.5,6.3,5.3,9.7,7.6,2.3,1.6,5,2.5,7.5,3.8,8.6,8.4,17.1,16.9,25.8,26,.5,4.5,3.3,4.8,6.2,5,0,0,0,0,0,.4,1.4,1.1,2.7,1.9,4.1,2.6,0,0,0,0,0,.4,1.4,1.1,2.7,1.9,4.1,2.6,0,0-.1,0,0,.4,1.5,2,2.8,4,4.5,5.4,4.8,3.8,9.8,7.3,14.6,11.1,16,12.5,32,25.2,48,37.7,18.7,14.5,37.5,28.8,56.1,43.5,3.1,2.5,8.1,4,7.9,9.5-10.4.2-20.9.5-31.7.6Z"/>
  <path class="st9" d="M706.1,466.9c19.2,19.1,38.9,37.9,57.5,57.6,10.3,11,10.8,24.8,5.2,39.1-8.8-6-17.2-12.2-25.3-18.7-12.2-9.6-24.3-19.4-36.6-29-11.4-8.8-23-17.3-34.4-26.1-14.1-10.9-28-22.1-42-33.2-14.5-11.5-29.1-23-43.7-34.4-8.6-6.7-17.5-13.1-26.2-19.6,8.6-9,16.1-19.4,28.7-23.4.6-.2,1.3-.3,2.5-.1,5.8,4.6,10.9,9,16.2,13.2,16.9,13.3,33.9,26.5,50.8,39.9,11.6,9.1,22.9,18.5,34.7,27.4,3.8,2.9,8.4,4.8,12.7,7.2Z"/>
  <path class="st20" d="M334.1,309c7-7.3,14.1-14.6,21.8-21.8,1.5.5,2.4.9,3.2,1.5,16.4,12.7,32.8,25.4,49.2,38.2,2.6,2,5.1,4.1,7.6,6.1.4,1.6.3,3.8,1.3,4.8,10,10.2,20.2,20.3,30.3,30.4,23.2,23.2,46.4,46.3,69.5,69.5,1.3,1.3,2.6,2.5,5,4.7,4.2-4.7,8.2-9.1,12.6-13.4,10.8,8.4,21.1,16.7,31.4,25,9.1,7.3,18.2,14.7,27.3,22.1-6.5,6.6-13,13.2-20,19.7-1.3-1.4-2-2.8-3.1-3.7-8.1-6.3-16.3-12.5-24.3-18.8-17.3-13.6-34.5-27.3-51.9-40.8-11.8-9.3-23.8-18.4-35.7-27.7-10.6-8.2-21.1-16.5-31.6-24.7-9.1-7.1-18.3-14.2-27.4-21.3-8.2-6.4-16.6-12.7-24.7-19.1-9.2-7.3-18.2-14.8-27.5-22-4.1-3.2-8.6-5.8-13-8.6Z"/>
  <path class="st11" d="M549.1,520.3c-15.4,17.1-39.8,16.4-53.8,2.5-52-51.6-103.8-103.6-155.5-155.4-6.5-6.5-13-13-14.7-22.9,2.3.6,4.5,1.4,6.4,2.6,3.1,2.2,5.9,4.8,8.9,7.1,12.4,9.7,24.9,19.2,37.2,29,19.8,15.7,39.5,31.6,59.4,47.2,19.3,15.1,38.7,30.1,58,45.1,14.3,11.1,28.9,22,43,33.4,4.1,3.3,9.9,5.2,11.1,11.5Z"/>
  <path class="st16" d="M398.9,533.7c-2.4-.9-5-1.9-7.3-3.5-3.4-2.3-6.5-5.1-9.7-7.6-11.3-8.8-22.7-17.5-34-26.2-8.5-6.5-17-13.1-25.4-19.7-10-7.9-20-15.7-30-23.7-10.7-8.6-21.2-17.5-32.1-25.9-17-13.1-34.3-25.8-51.5-38.8-5.7-4.3-11-9.1-16.7-13.3-1.9-1.4-4.4-2-7-3-2.9-14.7-5.3-29.4-7.4-44.6,6,3,11.7,6.1,16.9,10.1,11.2,8.4,22.1,17.3,33.1,26,14.8,11.7,29.5,23.5,44.3,35.2,1,.8,2.4.9,3.6,1.4,12.1,21.6,29,39.3,46.4,56.5,25.7,25.4,51,51.2,76.7,77.1Z"/>
  <path class="st19" d="M593.6,476c-9.4-7.2-18.5-14.6-27.6-22-10.3-8.3-20.6-16.5-31.1-25.1,5.1-5.7,10.3-11,15.9-16.2.7.8.9,1.5,1.4,1.9,7.6,6.2,15.2,12.3,22.8,18.4,14.2,11.1,28.5,22.2,42.7,33.3,20.9,16.3,41.8,32.6,62.6,49,11.9,9.3,23.6,18.8,35.5,28.1,10.8,8.4,21.9,16.6,32.7,25.1,3.6,2.9,6.5,6.6,9.7,10-15,11.9-36.4,10.7-50-2.9-34.3-34.2-68.5-68.5-102.8-102.8-1.3-1.3-2.6-2.5-4.9-4.7-2.3,2.8-4.4,5.3-6.8,8Z"/>
  <path class="st9" d="M235.8,141.9c6.4-7.1,12.8-14.2,19.7-21.2,1.4,1.3,2.3,2.6,3.4,3.5,16,12.4,32,24.6,47.9,37.1,19.8,15.5,39.3,31.4,59.1,46.9,15.8,12.4,31.7,24.5,47.6,36.7,15.7,12.1,31.5,24.3,47.2,36.5,1.1.8,1.6,2.4,2.3,3.6-5.5,5.8-11,11.7-16.8,17.3-3.8-3.2-7.2-6.4-10.8-9.2-12.6-9.8-25.2-19.6-38-29.2-3.6-2.7-7.7-4.7-11.6-7.1-.1-1.4.2-3.2-.5-4-2.6-3-5.6-5.7-8.4-8.5-21.6-21.8-43.3-43.6-64.9-65.4-1.3-1.3-2.3-2.8-3.9-4.7-4,4.4-7.5,8.1-11.6,11.8-5.4-3.6-10.2-7.2-14.8-10.8-11-8.6-21.8-17.3-32.9-25.7-4-3-8.6-5-13-7.5Z"/>
  <path class="st5" d="M333.8,309.2c4.6,2.7,9.2,5.3,13.3,8.5,9.3,7.2,18.3,14.8,27.5,22,8.2,6.5,16.5,12.7,24.7,19.1,9.2,7.1,18.3,14.2,27.4,21.3,10.6,8.2,21.1,16.5,31.6,24.7,11.9,9.2,23.8,18.4,35.7,27.7,17.3,13.6,34.6,27.3,51.9,40.8,8.1,6.3,16.3,12.5,24.3,18.8,1.1.9,1.8,2.3,2.8,3.8-4,4.6-8.1,8.8-12.7,12.9-10.7-8.7-20.9-17.5-31.4-25.8-9.7-7.7-19.9-14.8-29.7-22.4-16-12.5-31.8-25.4-47.8-38-12.2-9.6-24.6-19-36.8-28.6-10.7-8.4-21.3-16.9-31.9-25.2-13.9-10.9-27.9-21.8-42-32.6-5.1-3.9-10.4-7.5-15.6-11.2,2.8-5.2,5.6-10.5,8.7-15.8Z"/>
  <path class="st21" d="M269.7,106.3c5.2-5.1,10.4-10.3,15.9-15.1.9,1.1,1.2,2.2,1.9,2.7,13.3,10.6,26.6,21.3,40,31.8,13.9,10.9,28.1,21.5,42,32.4,18.3,14.4,36.5,29.1,54.8,43.5,14.3,11.2,28.7,22.3,43.2,33.4,2.4,1.9,5.2,3.3,7.8,4.9,4.4,9,4.4,18.2.5,27.8-4.9-3.1-9.2-6.5-13.5-9.8-12.7-9.8-25.6-19.4-38.2-29.3-15.9-12.5-31.6-25.2-47.4-37.7-13.8-10.9-27.8-21.5-41.6-32.3-19.4-15.2-38.8-30.4-58.2-45.7-2.6-2-4.8-4.4-7.2-6.6Z"/>
  <path class="st2" d="M269.4,106.5c2.7,2.1,5,4.4,7.6,6.4,19.4,15.3,38.8,30.5,58.2,45.7,13.8,10.8,27.8,21.4,41.6,32.3,15.9,12.5,31.5,25.2,47.4,37.7,12.6,9.9,25.5,19.5,38.2,29.3,4.3,3.3,8.6,6.7,13.3,10-1.7,7.2-6.2,12.6-12.3,17.1-1.1-1.1-1.6-2.7-2.7-3.5-15.7-12.2-31.4-24.3-47.2-36.5-15.9-12.2-31.8-24.3-47.6-36.7-19.8-15.5-39.3-31.4-59.1-46.9-15.9-12.5-32-24.7-47.9-37.1-1.2-.9-2-2.2-3.1-3.7,4.3-4.9,8.8-9.4,13.6-14.1Z"/>
  <path class="st4" d="M324.8,325.3c5.4,3.4,10.8,7,15.9,10.9,14,10.8,28,21.7,42,32.6,10.7,8.4,21.3,16.9,31.9,25.2,12.2,9.6,24.6,19,36.8,28.6,16,12.6,31.8,25.4,47.8,38,9.8,7.6,20,14.7,29.7,22.4,10.5,8.3,20.6,17.1,31.1,25.9-3.3,3.9-6.8,7.5-10.6,11.2-1.4-6.1-7.3-8-11.4-11.3-14.1-11.4-28.6-22.3-43-33.4-19.4-15-38.8-29.9-58-45.1-19.9-15.6-39.6-31.5-59.4-47.2-12.3-9.7-24.8-19.3-37.2-29-3-2.3-5.8-4.9-8.9-7.1-1.8-1.3-4-2-6.5-3-2.5-6.1-2.2-12.3-.2-18.7Z"/>
  <path class="st12" d="M758.4,578.2c-3.5-3.2-6.4-7-10-9.8-10.7-8.6-21.8-16.7-32.7-25.1-11.9-9.3-23.6-18.8-35.5-28.1-20.8-16.4-41.7-32.7-62.6-49-14.2-11.1-28.5-22.1-42.7-33.3-7.7-6-15.2-12.2-22.8-18.4-.5-.4-.7-1.1-1.1-2,3-3.4,5.9-6.5,9.2-9.7,9,6.4,17.9,12.8,26.5,19.5,14.6,11.4,29.2,22.9,43.7,34.4,14,11.1,27.9,22.3,42,33.2,11.4,8.8,23,17.3,34.4,26.1,12.3,9.5,24.3,19.4,36.6,29,8.2,6.4,16.5,12.6,25.1,19-3.1,4.7-6.5,9.4-10.2,14.2Z"/>
  <path class="st14" d="M475.3,239.5c-2.5-1.3-5.3-2.7-7.7-4.5-14.4-11.1-28.9-22.1-43.2-33.4-18.3-14.4-36.5-29.1-54.8-43.5-13.9-10.9-28.1-21.5-42-32.4-13.4-10.5-26.7-21.2-40-31.8-.7-.6-1-1.6-1.6-2.9,13.8-10.9,34.8-9.9,47.2,2.3,45.2,45,90.2,90.2,135.1,135.5,2.9,2.9,4.7,6.8,7,10.6Z"/>
  <path class="st13" d="M646.2,322c4.5-13.7,17.3-23.4,32.4-23.9,1.7,1.8,2.8,3.5,4.3,4.7,8.3,6.6,16.7,13,25,19.5,18,14.2,36.1,28.3,54,42.6,2.7,2.1,4.7,5.1,7.1,7.6-19.4,0-38.7.1-58.5-.3-2.2-2.6-3.5-5.2-5.6-6.8-15.1-12-30.3-24-45.7-35.7-4-3-8.6-5.2-12.9-7.8Z"/>
  <path class="st16" d="M570.6,678.5c-.2-5.5-5.2-7-8.3-9.5-18.5-14.7-37.4-29-56.1-43.5-16.1-12.5-32-25.2-48-37.7-4.8-3.8-9.8-7.3-14.6-11.1-1.7-1.4-3-3.4-4.5-5.5,10,5.2,19.8,11.3,30.2,16.2,13.3,6.3,27.3,10.7,41.8,13.2,4.7.8,9.4,1.4,14.6,2.6,2.3,2.5,4,4.8,6.2,6.5,7.2,5.6,14.6,10.7,21.8,16.3,15.9,12.4,31.8,24.8,47.3,37.6,2.9,2.4,8.3,2.8,8.2,8.3-12.6,2.1-25.3,4.3-38.4,6.4Z"/>
  <path class="st0" d="M567,603.2c16.4-2,32.5-5.5,48.7-11.2,11,8.1,21.4,16.2,31.7,24.2,9.2,7.1,18.4,14.1,27.5,21.3,2.1,1.7,3.4,4.3,5.1,6.5-13.4,6.4-26.8,12.7-40.6,18.7-5.1-4.5-9.6-8.8-14.5-12.7-7.2-5.7-14.8-11.1-22.1-16.8-8.2-6.4-16.3-13-24.3-19.6-4-3.3-7.7-7-11.5-10.5Z"/>
  <path class="st4" d="M184.8,245c4.8-14.4,9.6-28.8,14.8-43.1,20.8,16.1,41.2,32.2,61.7,48.2-2.8,14.7-5.6,29.4-8.8,44.5-1.8-.1-3.4-.5-4.5-1.3-14.8-11.6-29.4-23.4-44.2-35-6.1-4.7-12.6-8.9-18.9-13.3Z"/>
  <path class="st0" d="M184.6,245.3c6.5,4.1,13,8.3,19.1,13,14.8,11.5,29.5,23.3,44.2,35,1.1.9,2.7,1.2,4.4,1.8-.6,16.9.4,33.6,3.3,50.5-4.8-2.8-9.3-5.8-13.5-9.2-16-12.5-31.8-25.1-47.8-37.6-5.3-4.1-10.9-7.9-16.3-11.8,2.2-13.8,4.3-27.6,6.7-41.7Z"/>
  <path class="st17" d="M177.7,287.4c5.6,3.5,11.2,7.3,16.5,11.4,16,12.5,31.9,25.1,47.8,37.6,4.3,3.3,8.8,6.4,13.5,9.6,3.8,19,11,36.5,20.2,53.7-1.1,0-2.6-.3-3.5-1-14.8-11.7-29.5-23.5-44.3-35.2-11-8.7-21.9-17.5-33.1-26-5.2-3.9-11-7-16.9-10.5-.4-13.1-.4-26.2-.3-39.6Z"/>
  <path class="st20" d="M261.4,249.8c-20.7-15.8-41.1-31.8-61.7-48.3,5.7-11.7,11.6-23,18.2-34.4,8,5.2,15.4,10.4,22.6,15.9,12.6,9.6,25.2,19.3,37.7,29-5.5,12.5-11.1,25-16.8,37.7Z"/>
  <path class="st13" d="M636.1,273.1c-4.6,4.3-8.7,9.2-13.8,12.7-17.5,12.2-40.5,7.5-52.5-10.2-11.1-16.4-7.8-36.3,8.8-50.7,7,5.7,13.3,11.5,20,16.8,11.4,9,23.1,17.5,34.5,26.5,1.4,1.1,2,3.3,2.9,4.9Z"/>
  <path class="st10" d="M600.8,202.4c8.8-8.9,17.5-17.8,26.8-26.5,20,15.6,39.5,30.9,59,46.3-8.8,8.9-17.6,17.8-27.1,26.7-19.1-14.4-37.5-28.8-55.9-43.2-1.1-.9-1.9-2.2-2.9-3.3Z"/>
  <path class="st1" d="M686.9,222.2c-19.8-15.3-39.3-30.6-59-46.4,8.4-9.1,16.9-17.8,26.1-26.5,1.7.7,2.9,1.4,3.9,2.2,18.4,14.2,36.8,28.4,55.2,42.6-6.4,7.2-12.7,14.4-19.1,21.5-2.1,2.3-4.5,4.4-7.1,6.7Z"/>
  <path class="st3" d="M769.4,372.7c-2.8-2.7-4.9-5.6-7.5-7.7-17.9-14.3-36-28.5-54-42.6-8.3-6.5-16.7-12.9-25-19.5-1.5-1.2-2.6-2.9-3.9-4.7,5.9-.6,11.8-1,17.7-1.1,5.8-.1,11.6,0,17.9.5,1.3,1.8,1.9,3.5,3.1,4.4,19.2,15.1,38.6,30.1,57.8,45.2,9.2,7.2,18.2,14.8,27.3,22.1-5.3,1.2-10.5,2.8-15.8,3.4-5.6.6-11.3,0-17.4,0Z"/>
  <path class="st4" d="M680.3,643.9c-2-2.1-3.4-4.8-5.5-6.4-9-7.3-18.3-14.2-27.5-21.3-10.4-8-20.7-16-31.4-24.2,11.8-6.2,24-12.2,36-18.1,17.4,17.4,35.1,35.3,53.7,53.9-8.1,5.2-16.6,10.6-25.4,16.1Z"/>
  <path class="st8" d="M803,369.3c-9.4-7.3-18.4-14.8-27.6-22.1-19.2-15.1-38.5-30.1-57.8-45.2-1.2-.9-1.8-2.6-2.7-4.3,13-.4,26-.5,39.5,0,1.1,1.5,1.5,3,2.4,3.7,16.3,12.6,32.7,25,48.9,37.8,5.4,4.2,10.1,9.3,15.1,13.9-3.8,7.7-9.7,13.1-18,16.4Z"/>
  <path class="st17" d="M566.6,603.2c4.2,3.5,7.9,7.2,11.9,10.5,8,6.6,16.1,13.2,24.3,19.6,7.3,5.7,14.8,11,22.1,16.8,4.9,3.9,9.4,8.2,14.1,12.7-9.7,3.4-19.4,6.4-29.6,9.4-.2-5.5-5.7-6-8.6-8.4-15.5-12.9-31.4-25.2-47.3-37.6-7.1-5.6-14.6-10.8-21.8-16.3-2.2-1.7-3.8-4-5.7-6.4,6.7.3,13.3,1.4,20,1.4,6.7,0,13.4-1.1,20.5-1.6Z"/>
  <path class="st12" d="M278.6,211.9c-12.8-9.5-25.4-19.2-38-28.8-7.2-5.5-14.6-10.7-22.3-16.1,5.4-8.3,11.2-16.5,17.3-24.9,4.6,2.3,9.3,4.4,13.3,7.4,11.1,8.4,21.9,17.1,32.9,25.7,4.7,3.7,9.5,7.2,14.6,11-5.6,8.6-11.5,17.1-17.7,25.8Z"/>
  <path class="st3" d="M600.5,202.6c1.3,1,2,2.3,3.2,3.2,18.4,14.4,36.8,28.8,55.6,43.3-7.3,8-14.9,15.9-22.9,23.9-1.2-1.5-1.8-3.7-3.2-4.8-11.4-8.9-23.1-17.5-34.5-26.5-6.7-5.3-13.1-11-19.7-17,7-7.6,14.2-14.8,21.6-22.1Z"/>
  <path class="st18" d="M483.4,81c-.6-9.7-1-19.3,3.9-28.7,4.8,2.4,9.3,4.8,13.3,7.9,16.5,12.9,32.8,26,49.2,38.9,2.6,2.1,5.9,3.3,8.9,4.9,0,10.4,0,20.7-.3,31.5-2.2-.5-4.1-1.1-5.6-2.3-10-7.8-20-15.8-30-23.7-10.8-8.5-21.5-17.1-32.5-25.4-2-1.5-4.7-2.1-7-3.1Z"/>
  <path class="st3" d="M483.4,151c0-9.4-.1-18.7.2-28.5,2.3.2,4.3.6,5.9,1.7,5.4,3.9,10.5,8,15.8,12,12.7,9.8,25.2,19.8,38,29.5,4.9,3.7,10.3,6.9,15.5,10.3-.3,9.5-3.8,17.6-10.5,24.4-2.8-2.5-5.2-5.1-7.9-7.2-14.4-11.3-28.8-22.6-43.4-33.7-4.2-3.2-9-5.7-13.5-8.5Z"/>
  <path class="st13" d="M483.3,151.5c4.6,2.4,9.4,4.9,13.6,8.1,14.6,11.1,29,22.4,43.4,33.7,2.7,2.1,5,4.6,7.6,7.3-16.9,20.3-52.7,13.2-61.8-12.1-1.9-5.3-2.4-11.3-2.8-17.1-.5-6.5,0-13,0-19.9Z"/>
  <path class="st6" d="M713.4,193.9c-18.7-14-37.1-28.2-55.5-42.4-1-.8-2.2-1.5-3.6-2.3,12.7-16,41.7-16,55-.1,9.5,11.4,12.3,24,7.7,38.1-.7,2.3-2.2,4.4-3.7,6.8Z"/>
  <path class="st18" d="M821.3,352.7c-5.3-4.4-10-9.5-15.4-13.7-16.2-12.7-32.6-25.2-48.9-37.8-.9-.7-1.3-2.2-2-3.6,13.4-.1,26.9-.4,40.3.5,13.5.9,26.7,14.5,29.7,28.8,1.9,9,.5,17.5-3.7,25.8Z"/>
  <path class="st1" d="M558.9,103.5c-3.1-1.1-6.4-2.3-9-4.4-16.5-12.9-32.8-26-49.2-38.9-4-3.1-8.5-5.5-13.1-8.2,3-7.6,8.4-13.2,16.3-16.7,5,4.1,9.5,8,14.2,11.7,9.7,7.7,19.5,15.3,29.4,22.8,3.6,2.7,7.7,4.9,11.5,7.3,0,8.7,0,17.4,0,26.5Z"/>
  <path class="st12" d="M385.5,257.1c4.2,2.2,8.3,4.2,11.9,7,12.8,9.6,25.4,19.4,38,29.2,3.6,2.8,7,6,10.5,9.3-4.9,5.4-9.8,10.4-15.4,15.4-2.9-1.7-5.2-3.2-7.5-4.9-14.7-11.5-29.3-23-44.1-34.5-2.8-2.2-6.1-3.8-9.2-5.6,5.1-5.2,10.3-10.5,15.7-15.9Z"/>
  <path class="st14" d="M646,322.4c4.5,2.2,9.1,4.4,13.1,7.4,15.4,11.7,30.6,23.7,45.7,35.7,2.1,1.7,3.5,4.2,5.2,6.7-11,.2-22,.8-32.9-.3-24.4-2.4-39-26-31-49.6Z"/>
  <path class="st10" d="M483.3,81.5c2.5.6,5.2,1.1,7.1,2.7,10.9,8.3,21.7,16.9,32.5,25.4,10,7.9,19.9,15.8,30,23.7,1.5,1.2,3.4,1.9,5.5,2.8.4,6.4.4,12.7,0,19.5-5.6-2.9-11.1-5.9-16-9.7-15.6-12.3-30.9-24.9-46.6-37.2-3.8-3-8.3-5.1-12.5-7.7,0-6.4-.1-12.7-.1-19.5Z"/>
  <path class="st19" d="M369.5,273.1c3.4,1.7,6.7,3.3,9.5,5.5,14.8,11.4,29.4,23,44.1,34.5,2.2,1.7,4.5,3.3,7.2,5.1-4.3,5-9,9.8-14,14.8-2.8-1.9-5.3-4-7.9-6-16.4-12.7-32.8-25.5-49.2-38.2-.8-.6-1.7-1-2.9-1.6,4.1-4.7,8.6-9.3,13.4-14Z"/>
  <path class="st8" d="M483.3,101.5c4.3,2.1,8.8,4.2,12.6,7.2,15.6,12.3,30.9,24.9,46.6,37.2,4.9,3.8,10.3,6.8,15.9,10.2.4,6.4.5,12.7.4,19.5-5.2-3-10.6-6.1-15.5-9.9-12.8-9.7-25.3-19.7-38-29.5-5.2-4.1-10.4-8.2-15.8-12-1.5-1.1-3.6-1.4-5.8-2.1-.4-6.7-.5-13.4-.5-20.6Z"/>
  <path class="st2" d="M706,466.6c-4.1-2.1-8.7-4-12.6-6.9-11.7-8.9-23.1-18.3-34.7-27.4-16.9-13.3-33.9-26.5-50.8-39.9-5.3-4.2-10.5-8.6-15.9-13.2,13.2-4,25.2-1,34.8,8.4,26.6,26,52.6,52.4,79,79Z"/>
  <path class="st6" d="M558.9,76.6c-3.9-2-8-4.1-11.6-6.9-9.9-7.5-19.6-15.1-29.4-22.8-4.7-3.7-9.1-7.6-13.8-11.7,14.3-9.2,36.3-4.3,47,9.8,7,9.3,8.5,19.9,7.8,31.5Z"/>
  <path class="st16" d="M431,564.6c-2.8.2-5.6-.1-5.9-4.3,1.9,1.1,3.9,2.6,5.9,4.3Z"/>
  <path class="st16" d="M435,567.6c-1.2-.5-2.5-1.2-3.9-2.4,1.2.4,2.5,1.2,3.9,2.4Z"/>
  <path class="st16" d="M439,570.6c-1.2-.5-2.5-1.2-3.9-2.3,1.2.4,2.5,1.2,3.9,2.3Z"/>
</svg>