<?xml version="1.0" encoding="UTF-8"?>
<svg id="Layer_1" xmlns="http://www.w3.org/2000/svg" version="1.1" viewBox="0 0 1024 728">
  <!-- Generator: Adobe Illustrator 29.5.0, SVG Export Plug-In . SVG Version: 2.1.0 Build 137)  -->
  <defs>
    <style>
      .st0 {
        fill: #ff7b86;
      }

      .st1 {
        fill: #f93841;
      }

      .st2 {
        fill: #ff868f;
      }

      .st3 {
        fill: #fd4757;
      }

      .st4 {
        fill: #ff606f;
      }

      .st5 {
        fill: #ff5464;
      }

      .st6 {
        fill: #f8373b;
      }

      .st7 {
        fill: #ff8e96;
      }

      .st8 {
        fill: #fc4352;
      }

      .st9 {
        fill: #ff808a;
      }

      .st10 {
        fill: #ff7682;
      }

      .st11 {
        fill: #ff707d;
      }

      .st12 {
        fill: #fa3b48;
      }

      .st13 {
        fill: #ff6472;
      }

      .st14 {
        fill: #ff5767;
      }

      .st15 {
        fill: #fe4f60;
      }

      .st16 {
        fill: #ff969c;
      }

      .st17 {
        fill: #ff6b78;
      }

      .st18 {
        fill: #fc3f4e;
      }

      .st19 {
        fill: #ff5d6d;
      }
    </style>
  </defs>
  <path class="st7" d="M886.4,249.8c1.9,12.1,4.6,24.1,5.4,36.3.9,14.3.2,28.6-.2,43.4-2.8-1.4-5.2-3.1-7.5-4.9-9.2-7.4-18.2-14.9-27.5-22.2-10.2-8-20.6-16-31-23.7-3.2-2.4-7.1-3.8-10.8-6-6.6-24.4-20.7-42.2-43.5-52.3-7.3-3.2-15.5-4.4-23.3-6.8-1-1.6-1.8-3-3-4-11.6-9.3-23.2-18.6-34.9-27.9-20.3-16-40.5-32-60.9-47.9-15.5-12.1-31.3-23.9-46.8-36-13.4-10.5-26.6-21.3-40-31.8-13.4-10.5-27.2-20.6-40.6-31.2-3.3-2.6-5.8-6.3-8.7-9.5,25.9,0,52-2.2,77.4,4.8,40.6,11.2,71.9,34.8,92.6,71.6,6,10.6,9.4,22.6,14.3,33.8.6,1.4,3.2,2.6,4.8,2.6,13.7.3,27.3.3,41.5.7,1.6,1.7,2.5,3.1,3.8,4.1,13.7,10.8,27.3,21.7,41.1,32.4,10.5,8.1,21.4,15.6,31.8,23.7,10.8,8.4,21.4,17.3,32.1,25.9,9.8,7.9,19.6,15.7,29.5,23.4,1.2.9,3,1,4.5,1.5Z"/>
  <path class="st2" d="M512.5,25.2c3.4,3.3,5.9,6.9,9.2,9.6,13.4,10.6,27.1,20.7,40.6,31.2,13.4,10.5,26.6,21.3,40,31.8,15.5,12.1,31.3,23.9,46.8,36,20.4,15.9,40.6,31.9,60.9,47.9,11.7,9.2,23.3,18.5,34.9,27.9,1.2,1,2,2.4,2.5,4.1-17.2.3-33.8.2-50.5-.2-.7-1.6-1.2-3.1-2.2-4-3.8-3.2-7.6-6.3-11.6-9.3-7.4-5.6-14.9-11-22.2-16.7-16.9-13.1-33.8-26.3-50.6-39.7-1.6-1.2-2.3-3.5-3.4-5.4,3.1-.2,6.2-.4,9.2-.5.4-.4.7-.8,1.1-1.2-5.5-6.1-10.4-12.8-16.6-18.1-12.9-11.2-28.1-17.4-45.4-17.7-6.1-.1-12.3-.2-18.9-.7-1.8-2-3-3.9-4.6-5.1-15.2-11.9-30.5-23.6-45.8-35.4-12.1-9.4-24.1-19-36-28.6-1.8-1.4-2.7-3.8-4.1-5.7,22,0,44,0,66.5,0Z"/>
  <path class="st5" d="M882.4,692.1c-13.3,16.3-39.3,17.4-54.6,2.1-33-32.9-65.9-65.8-98.8-98.8-2.5-2.5-5-3.8-8.7-3.7-10.5.2-21,0-31.9-.4-1.6-1.7-2.6-3.2-3.9-4.3-7.5-6-15.2-11.7-22.6-17.7-8.1-6.5-15.9-13.4-24.1-19.8-11.9-9.2-24-18.1-35.9-27.3-1.8-1.4-2.7-3.9-3.5-6,21.2,0,41.8,0,62.5.4,4.5,4.3,8.9,8.5,13.5,12.3,10.9,8.9,21.9,17.7,33,26.3,13.1,10.2,26.3,20,39.4,30.2,14.7,11.5,29.2,23.3,43.9,34.7,10.3,8,20.9,15.6,31.2,23.6,7.4,5.7,14.6,11.8,22,17.7,12.8,10.2,25.6,20.4,38.4,30.7Z"/>
  <path class="st18" d="M510,591.6c-26.8.4-53.7,1.8-79.6-7-49.6-16.9-82.3-50.4-98.4-100.2-3.9-12.2-6.2-24.7-5.8-37.9,3.8,2.2,7.2,4.8,10.6,7.4,11.4,8.5,22.9,16.9,34.1,25.6,12.6,9.7,24.9,19.8,37.3,29.6,11.3,8.9,22.7,17.7,34,26.6,5.6,4.4,11.1,8.9,16.7,13.2,9.2,7.1,18.4,14,27.6,21,6.6,5,13.2,9.9,19.6,15.2,1.8,1.5,2.7,4.3,4,6.4Z"/>
  <path class="st8" d="M510.4,591.7c-1.8-2.3-2.6-5-4.4-6.5-6.3-5.3-13-10.2-19.6-15.2-9.2-7-18.4-14-27.6-21-5.6-4.3-11.1-8.9-16.7-13.2-11.3-8.9-22.7-17.7-34-26.6-12.5-9.8-24.8-19.9-37.3-29.6-11.2-8.7-22.7-17.1-34.1-25.6-3.4-2.6-6.8-5.2-10.5-7.8-.4-15.7-.5-31.4-.2-47.5,1.2,0,2,.2,2.6.7,8,6.4,16,12.8,24,19.2,11.5,9.2,23,18.4,34.7,27.4,4.5,3.5,9.6,6.2,14.6,9.6,2.6,10.5,6.2,20,12.4,28.5,13.8,19.1,32.5,29.5,55.7,32.6.4.9.6,1.6,1,2,7.8,6.1,15.6,12.2,23.5,18.3,9.4,7.2,18.9,14.4,28.3,21.7,9.3,7.1,18.8,14.1,27.8,21.6,3.9,3.3,6.9,7.7,10.3,11.6-16.7,0-33.4.1-50.5,0Z"/>
  <path class="st6" d="M237.1,544.2c-12.8,12.9-25,26.3-38.5,38.5-11.5,10.3-25.6,11.9-39.7,5.6-14.4-6.4-22.1-18.1-22.2-33.9-.3-29.2,0-58.3.5-87.9,3.6,1,7.1,2,9.8,4.1,11.3,8.7,22.2,17.8,33.4,26.6,10.7,8.4,21.5,16.6,32.2,24.9,6.8,5.2,13.8,10.3,20.4,15.7,1.9,1.6,2.8,4.3,4.2,6.5Z"/>
  <path class="st1" d="M237.4,544.1c-1.7-2.1-2.6-4.8-4.5-6.4-6.6-5.5-13.6-10.5-20.4-15.7-10.8-8.3-21.5-16.5-32.2-24.9-11.2-8.8-22.1-17.9-33.4-26.6-2.7-2.1-6.2-3.1-9.6-4.6-.5-20.7-.5-41.4-.1-62.5,4.6,2.4,8.9,5.1,12.9,8.1,11,8.5,22,17.1,32.9,25.8,5.1,4.1,10.1,8.4,15.3,12.3,4.4,3.3,9.1,6.2,13.6,9.3.2.9.3,1.9,1.2,2.9,9.4,6.6,18.2,12.9,26.8,19.5,8.7,6.7,17,13.9,25.8,20.5,3,2.3,6.3,3.7,5.4,8.3-11.1,11.2-22.3,22.5-33.7,33.9Z"/>
  <path class="st19" d="M891.8,616c0,15.7,0,31.4-.3,47.5-10.6-6.8-20.9-13.9-30.9-21.4-9.9-7.5-19.3-15.6-29-23.2-8.5-6.6-17.2-12.9-25.7-19.4-9.1-7.1-18.1-14.4-27.2-21.5-9.6-7.5-19.3-14.9-28.9-22.5-8.1-6.4-16-13.1-24.2-19.5-6.4-5-13.1-9.5-19.5-14.5-1.5-1.2-2.2-3.4-2.8-5.3,12.3,0,24.1-.2,35.9,0,11.6,0,21.6,4.1,29.9,12.6,14.1,14.4,28.4,28.5,42.6,42.7,1.2,1.2,2.5,2.3,4.7,4.4,0-6.6,0-11.7.3-16.8,1.2.4,2.2.7,3,1.3,8.5,6.6,17,13.2,25.4,19.8,10.3,8.1,20.4,16.3,30.7,24.3,5.2,4,10.6,7.8,15.9,11.6Z"/>
  <path class="st14" d="M703,516.3c1.1,1.8,1.8,4,3.3,5.2,6.4,5,13.1,9.5,19.5,14.5,8.2,6.4,16.1,13.1,24.2,19.5,9.6,7.6,19.3,15,28.9,22.5,9.1,7.1,18,14.4,27.2,21.5,8.5,6.6,17.2,12.8,25.7,19.4,9.8,7.6,19.2,15.7,29,23.2,9.9,7.6,20.3,14.6,30.8,21.9.6,10.3-2.4,19.5-8.8,28-13.1-10-25.9-20.3-38.7-30.5-7.3-5.9-14.5-11.9-22-17.7-10.3-8-20.9-15.6-31.2-23.6-14.7-11.5-29.2-23.2-43.9-34.7-13-10.2-26.3-20.1-39.4-30.2-11.1-8.6-22.1-17.4-33-26.3-4.7-3.8-9-8-13.1-12.4,14.1-.4,27.8-.3,41.5-.3Z"/>
  <path class="st17" d="M366.9,100.2c-2,.2-3.9.4-5.9.5-21.9,0-43.8-.1-65.8.1-8.1,0-16.2,1-24.8,1.2-2.4-2.5-4.1-5-6.4-6.8-5.6-4.4-11.5-8.3-17.1-12.7-10-7.8-19.9-15.8-29.7-23.9-3.7-3.1-7-6.6-10.5-9.9,18.5-11.9,38.4-19.8,60.5-21.7,2.9-.3,5.8-.7,9.2-.7,4.4,3.8,8.3,7.4,12.4,10.7,13.3,10.6,26.7,21.1,40,31.5,11.4,8.9,23,17.8,34.3,26.8,1.5,1.2,2.4,3.3,3.6,4.9Z"/>
  <path class="st3" d="M136.9,274c0-24.4-.1-48.7.3-73.5,2.2.3,4.2.8,5.6,1.9,6.2,4.9,12.2,10.2,18.4,15.1,12.9,10.1,25.8,20.1,38.8,29.9,3.7,2.8,7.9,5.1,11.9,7.6,0,24.4.1,48.7-.3,73.5-10.6-7.1-20.9-14.5-30.9-22.3-12.5-9.8-24.7-19.9-37.1-29.7-1.8-1.4-4.5-1.7-6.8-2.5Z"/>
  <path class="st15" d="M212,254.5c-4-2-8.2-4.3-11.9-7.1-13-9.9-26-19.9-38.8-29.9-6.2-4.9-12.2-10.2-18.4-15.1-1.4-1.1-3.4-1.6-5.5-2.4-1.1-22.1-1.3-44.1,5.6-65.8,2.9.7,5.4,1.2,7.3,2.6,5.7,4.2,11.2,8.7,16.7,13.2,8.9,7.1,17.8,14.3,26.8,21.2,5.9,4.5,12.1,8.6,18.1,12.8,0,23.4.1,46.7,0,70.5Z"/>
  <path class="st18" d="M136.8,274.5c2.4.3,5,.6,6.8,2,12.5,9.8,24.6,19.9,37.1,29.7,10,7.8,20.3,15.2,30.8,22.8.4,22.7.4,45.4,0,68.5-8.6-5.7-16.8-11.8-24.8-18-4.3-3.3-8.2-7-12.5-10.3-6.1-4.7-12.2-9.3-18.5-13.8-6.2-4.5-12.6-8.9-18.9-13.3,0-22.4-.1-44.7,0-67.5Z"/>
  <path class="st0" d="M504,138.4c22,0,44-.1,66.5.3,1.9,2.3,3,4.7,4.8,6.1,11,8.6,22.3,16.9,33.4,25.5,13.7,10.6,27.4,21.2,40.9,32.2,3.9,3.2,7,7.5,10,11.4-21.8,0-43.2,0-64.5-.4-.7-1.4-1.2-2.7-2.1-3.4-5.8-4.4-11.7-8.7-17.4-13.1-9.2-7.1-18.2-14.4-27.4-21.4-6.3-4.8-12.9-9.3-19.1-14.2-6.5-5.1-12.8-10.5-19-16-2.2-2-3.9-4.5-5.9-6.8Z"/>
  <path class="st15" d="M598,516.3c1.3,2,2.2,4.5,4,5.9,11.9,9.2,24,18.1,35.9,27.3,8.2,6.4,16,13.3,24.1,19.8,7.5,6,15.1,11.8,22.6,17.7,1.3,1.1,2.3,2.5,3.5,4.2-21.7.4-43.4.5-65.5,0-1.5-2-2.2-3.9-3.6-5-7.2-5.8-14.7-11.2-21.9-17-10.3-8.2-20.5-16.6-30.9-24.7-10-7.8-20.4-15.2-30.4-23-1.4-1.1-1.8-3.6-2.2-5.5,21.8,0,43.2,0,64.5,0Z"/>
  <path class="st3" d="M533,516.3c.9,1.8,1.2,4.3,2.7,5.4,10,7.8,20.4,15.2,30.4,23,10.4,8.1,20.5,16.5,30.9,24.7,7.3,5.7,14.7,11.2,21.9,17,1.4,1.1,2.1,3,3.1,4.9-20,.4-40.1.5-60.5.5-3.9-4-6.8-8.4-10.7-11.7-9-7.5-18.5-14.4-27.8-21.6-9.4-7.2-18.9-14.4-28.3-21.7-7.9-6-15.7-12.1-23.5-18.3-.5-.4-.7-1.1-.6-2.1,21.1-.3,41.8-.2,62.5-.1Z"/>
  <path class="st12" d="M136.8,342.5c6.4,4,12.8,8.3,19,12.9,6.2,4.5,12.4,9.1,18.5,13.8,4.3,3.3,8.2,7,12.5,10.3,8.1,6.2,16.3,12.3,24.8,18.5.4,20.1.5,40.1.4,60.6-4.6-2.6-9.3-5.6-13.7-8.9-5.2-3.9-10.2-8.2-15.3-12.3-10.9-8.6-21.9-17.3-32.9-25.8-4-3.1-8.3-5.7-12.8-8.6-.4-20-.5-40.1-.5-60.5Z"/>
  <path class="st17" d="M891.9,507c0,19.7,0,39.4-.3,59.5-3.3-1.5-6.2-3.3-9-5.4-8.1-6.3-16.2-12.8-24.3-19.3-8.7-7-17.1-14.6-26.3-20.9-5-3.5-8.5-9.6-15.6-10.4,0-20.2,0-39.8.4-59.5,1.2.4,2.2.7,2.9,1.3,6.9,5.4,13.7,10.9,20.5,16.3,15,11.7,29.9,23.5,45,35.1,1.9,1.5,4.4,2.2,6.6,3.3Z"/>
  <path class="st3" d="M401.8,455c-4.8-3.1-9.9-5.8-14.4-9.2-11.7-8.9-23.2-18.2-34.7-27.4-8-6.4-16-12.8-24-19.2-.6-.5-1.4-.8-2.5-1.2-.4-19.4-.5-38.8,0-58.6,4.2,2,8.1,4.1,11.5,6.8,19.6,15.4,39.1,31.1,58.7,46.5,1,.8,2.7.8,4.2,1.7.5,20.5.8,40.5,1.2,60.5Z"/>
  <path class="st15" d="M400.5,394c-1.4-.4-3.1-.4-4.1-1.2-19.6-15.5-39.1-31.1-58.7-46.5-3.5-2.7-7.4-4.9-11.4-7.3-.4-19-.4-38.1,0-57.5,2.2.4,4.2.9,5.7,2.1,6.3,5,12.5,10.3,18.8,15.3,11,8.6,22.1,17.2,33.3,25.7,5.3,4,11,7.7,16.5,11.9,0,19.5,0,38.5-.1,57.5Z"/>
  <path class="st14" d="M212,183.5c-6.1-3.8-12.3-7.9-18.2-12.4-9.1-6.9-17.9-14.1-26.8-21.2-5.6-4.4-11-8.9-16.7-13.2-1.9-1.4-4.4-1.9-7-2.9,4.9-19.4,14-36.9,27.4-52.2.8.7,1.1,1.4,1.6,1.8,15.7,12.6,31.5,25,47.1,37.6,3.1,2.5,5.9,5.4,8.9,8.1-12,15.9-16.9,34-16.2,54.3Z"/>
  <path class="st10" d="M891.9,506.5c-2.3-.6-4.7-1.4-6.6-2.9-15-11.6-30-23.3-45-35.1-6.9-5.4-13.7-10.9-20.5-16.3-.7-.6-1.7-.9-3-1.8-.4-18.5-.3-36.5,0-54.5,2.6,1.1,5,1.9,6.9,3.3,5.6,4.1,11,8.5,16.4,12.8,12.5,9.7,25,19.5,37.6,29.2,4.5,3.4,9.3,6.5,14,9.7,0,18.4,0,36.7,0,55.5Z"/>
  <path class="st14" d="M400.5,336c-5.5-3.8-11.1-7.5-16.4-11.5-11.2-8.4-22.3-17-33.3-25.7-6.4-5-12.5-10.3-18.8-15.3-1.5-1.2-3.5-1.7-5.6-2.6-.2-16.9,4.1-32.8,10.9-48.7,2.8.7,5.2,1.4,7.1,2.8,3,2.1,5.6,4.6,8.5,6.9,10.4,8.2,20.7,16.4,31.1,24.5,5.6,4.3,11.3,8.4,17.1,13,0,5.1-.2,9.7-.3,14.4-.1,14.1-.2,28.1-.3,42.2Z"/>
  <path class="st16" d="M886.3,249.4c-1.4,0-3.2-.2-4.4-1.1-9.9-7.7-19.7-15.6-29.5-23.4-10.7-8.6-21.2-17.5-32.1-25.9-10.4-8.1-21.3-15.7-31.8-23.7-13.8-10.6-27.5-21.5-41.1-32.4-1.3-1-2.2-2.5-3.4-4,39.3.2,73.2,14.7,101.5,41.7,19.8,18.9,34.2,41.5,40.8,68.9Z"/>
  <path class="st4" d="M401,279c-5.7-4.2-11.5-8.2-17-12.5-10.4-8.1-20.8-16.3-31.1-24.5-2.8-2.3-5.5-4.8-8.5-6.9-2-1.4-4.4-2.1-6.9-3.1,5.9-16.7,15.3-31.5,28-44.3,15.6,11.9,30.8,23.5,45.7,35.5,4.4,3.5,8,8.1,11.8,12.4-3.7,4.8-8.3,8.9-10.7,14-4.4,9.5-7.6,19.5-11.3,29.4Z"/>
  <path class="st12" d="M271.4,510.1c.6-4.4-2.7-5.9-5.7-8.1-8.8-6.6-17.1-13.8-25.8-20.5-8.6-6.6-17.4-12.9-26.5-19.4,13.5-13.9,27.3-27.8,41.8-41.8,6.9,4.8,13,10,19.4,14.7,4.1,3,8.7,5.4,13,8.1,0,16.2.2,32.3.1,48.5,0,1.6-1.1,3.4-2.2,4.6-4.5,4.7-9.1,9.2-14.1,14Z"/>
  <path class="st4" d="M228.4,129.1c-3.2-2.5-6.1-5.4-9.2-7.9-15.7-12.6-31.4-25.1-47.1-37.6-.5-.4-.8-1.1-1.3-2,9.6-13.4,21.8-23.8,35.8-32.8,3.8,3.2,7.1,6.8,10.8,9.8,9.8,8.1,19.7,16,29.7,23.9,5.6,4.4,11.5,8.3,17.1,12.7,2.3,1.8,4,4.3,6,6.8-16.7,4.6-30.4,13.7-41.7,27.1Z"/>
  <path class="st13" d="M816.5,511c7,.4,10.5,6.5,15.5,10,9.2,6.3,17.6,13.9,26.3,20.9,8.1,6.5,16.1,12.9,24.3,19.3,2.7,2.1,5.7,3.9,8.9,5.9.4,16.1.4,32.1.4,48.6-5.4-3.4-10.8-7.1-16-11.2-10.3-8-20.5-16.2-30.7-24.3-8.4-6.6-16.9-13.3-25.4-19.8-.7-.6-1.7-.8-3-1.7-.4-16.2-.3-31.9-.3-47.5Z"/>
  <path class="st9" d="M445.5,25.2c1.8,2,2.8,4.4,4.5,5.8,11.9,9.7,23.9,19.2,36,28.6,15.2,11.9,30.5,23.6,45.8,35.4,1.6,1.3,2.8,3.1,4.1,5-16,.4-32.1.5-48.6.1-3-3.1-5.3-6.1-8.2-8.4-9.6-7.5-19.5-14.7-29.1-22.2-7.6-5.9-14.8-12.1-22.3-18.1-9.6-7.5-19.4-14.8-29-22.4-1-.8-1.2-2.5-1.8-3.8,16,0,32,0,48.5,0Z"/>
  <path class="st10" d="M317,25.2c14.7,0,29.4,0,44.5.3,2.2,2.1,3.7,4,5.6,5.5,5,4,10.2,7.9,15.3,11.9,9.6,7.7,18.9,15.6,28.6,23,12.2,9.4,24.7,18.3,36.9,27.7,1.9,1.5,2.7,4.3,4.1,6.5-15,.1-30,.2-45.5-.2-1.6-2-2.6-3.9-4-5.1-11.4-9.2-22.9-18.4-34.5-27.4-13.9-10.9-28.1-21.4-42-32.4-3.4-2.7-6-6.6-9-10Z"/>
  <path class="st11" d="M421,149c12.6-3.1,25.1-6.3,38.4-9.1,6.7,5.2,12.6,10.4,18.7,15.1,10.4,8.1,21,16,31.4,24.1,10.4,8.1,20.9,16,31.1,24.4,3.5,2.9,6.3,6.8,8.9,10.3-16.5,0-32.5,0-48.5-.4-2.4-2.6-4.7-5.1-7.3-7.2-14.7-11.7-29.5-23.4-44.3-35-9.4-7.4-18.9-14.8-28.4-22.2Z"/>
  <path class="st0" d="M891.9,450.5c-4.7-2.8-9.6-5.8-14.1-9.3-12.6-9.6-25.1-19.4-37.6-29.2-5.5-4.3-10.8-8.7-16.4-12.8-2-1.4-4.4-2.2-7-3.8-.4-15.2-.3-29.9.1-44.5,1.7.5,3.2.8,4.4,1.6,5.4,4.1,10.7,8.3,16,12.5,11.1,8.6,22.1,17.3,33.3,25.8,7,5.2,14.2,10.1,21.3,15.1,0,14.7,0,29.4,0,44.5Z"/>
  <path class="st10" d="M550,213.7c-3.1-3.4-5.8-7.3-9.4-10.3-10.2-8.4-20.7-16.3-31.1-24.4-10.5-8.1-21.1-15.9-31.4-24.1-6.1-4.8-12-9.9-18.2-15.1,6.4-.7,13.1-1.5,19.9-1.7,7.8-.3,15.6,0,23.8.1,2.4,2.4,4.1,5,6.3,6.9,6.2,5.5,12.5,10.8,19,16,6.2,4.9,12.8,9.4,19.1,14.2,9.2,7.1,18.2,14.3,27.4,21.4,5.8,4.5,11.7,8.7,17.4,13.1.9.7,1.4,2,1.7,3.5-15.1.4-29.8.3-44.5.3Z"/>
  <path class="st17" d="M420.6,149c9.8,7.4,19.3,14.8,28.8,22.2,14.8,11.6,29.6,23.3,44.3,35,2.6,2.1,4.9,4.5,6.8,7.2-16.5.7-32.7-.7-48.4,3.5-1.5-2.4-2.5-4.9-4.4-6.4-4.7-3.9-9.8-7.2-14.6-11-14.5-11.2-28.9-22.4-43.3-33.7,10.1-5.6,20.3-11.2,30.8-16.9Z"/>
  <path class="st11" d="M316.5,25.2c3.4,3.4,6,7.3,9.4,10,13.8,11,28,21.5,42,32.4,11.6,9,23,18.2,34.5,27.4,1.5,1.2,2.4,3,3.6,4.9-12.7.4-25.4.5-38.6.5-1.6-1.8-2.5-3.9-4.1-5.1-11.4-9-22.9-17.8-34.3-26.8-13.4-10.5-26.7-21-40-31.5-4.1-3.3-7.9-6.8-11.9-10.6,13-.6,26-.9,39.5-1.2Z"/>
  <path class="st9" d="M891.9,405.5c-7.2-4.6-14.5-9.4-21.4-14.6-11.2-8.5-22.2-17.2-33.3-25.8-5.3-4.2-10.6-8.4-16-12.5-1.1-.8-2.7-1.1-4.5-2.1-.4-13.2-.3-25.8,0-38.5,2.4,1,4.7,1.6,6.5,2.9,10.4,8.2,20.7,16.5,31.1,24.7,10.1,8,20.3,15.9,30.6,23.7,2,1.5,4.6,2.4,6.9,3.6,0,12.7,0,25.4,0,38.5Z"/>
  <path class="st2" d="M891.9,366.5c-2.4-.7-4.9-1.6-6.9-3.2-10.3-7.8-20.5-15.8-30.6-23.7-10.4-8.2-20.7-16.6-31.1-24.7-1.7-1.4-4-2-6.6-3.4-.9-13.2-1.3-25.9-1.8-38.6,3.6,1.9,7.4,3.3,10.6,5.7,10.5,7.7,20.8,15.7,31,23.7,9.2,7.3,18.3,14.8,27.5,22.2,2.3,1.9,4.7,3.6,7.4,5.4.4,12.1.4,24.1.4,36.6Z"/>
  <path class="st9" d="M660,213.7c-3.5-3.8-6.5-8.1-10.4-11.3-13.4-10.9-27.1-21.6-40.9-32.2-11.1-8.6-22.3-16.9-33.4-25.5-1.8-1.4-2.9-3.7-4.3-6,11.7-.4,23.4-.5,35.5-.5,1.6,1.9,2.3,4.2,3.8,5.5,16.8,13.3,33.7,26.5,50.6,39.7,7.3,5.7,14.8,11.1,22.2,16.7,3.9,3,7.8,6,11.6,9.3,1,.9,1.5,2.4,1.8,4.1-12.5.4-24.5.3-36.5.3Z"/>
  <path class="st0" d="M452.4,100.4c-1.8-2.4-2.6-5.2-4.5-6.7-12.2-9.4-24.7-18.4-36.9-27.7-9.7-7.5-19.1-15.4-28.6-23-5-4-10.3-7.9-15.3-11.9-1.9-1.5-3.4-3.4-5.1-5.4,11.3-.4,22.7-.4,34.5-.4,1,1.4,1.2,3.1,2.2,3.9,9.6,7.6,19.4,14.9,29,22.4,7.5,5.9,14.8,12.2,22.3,18.1,9.6,7.5,19.5,14.6,29.1,22.2,2.9,2.3,5.2,5.3,7.8,8.2-11.4.4-22.8.5-34.6.5Z"/>
  <path class="st13" d="M389.5,166c14.7,11.1,29.1,22.4,43.6,33.6,4.8,3.7,9.9,7.1,14.6,11,1.8,1.5,2.9,4,4.1,6.7-11,4.3-20.2,10.8-28.7,18.2-4-4.1-7.6-8.6-12-12.1-14.9-12-30.1-23.6-45.4-35.7,7.7-7.4,15.6-14.4,23.7-21.5Z"/>
  <path class="st8" d="M287.7,442.6c-4.5-2.2-9-4.6-13.1-7.7-6.4-4.7-12.5-9.8-19.1-14.8,8-10.2,18-17.1,32.3-17.1,0,13.3,0,26.2-.1,39.6Z"/>
  <path class="st11" d="M713.2,344.5c-3.4.5-6.9,1.5-10.3,1.5-14.7.2-29.3,0-44.5-.4-2.6-2.5-4.4-4.8-6.7-6.7-4.5-3.6-9.3-6.9-13.8-10.5-12.7-10.1-25.2-20.4-38-30.4-10-7.8-20.3-15.3-30.4-23.1-1.2-.9-1.7-2.7-2.6-4,18.4,0,36.7,0,55.6.3.9,1.1,1.2,1.9,1.8,2.4,9.5,7.4,19.2,14.6,28.7,22,9,7,17.8,14.3,26.8,21.3,10.1,7.8,20.4,15.3,30.4,23.1,1.3,1,1.9,3,2.8,4.5Z"/>
  <path class="st17" d="M566.5,270.8c1.3,1.4,1.9,3.2,3,4.1,10.1,7.8,20.4,15.3,30.4,23.1,12.8,10,25.3,20.3,38,30.4,4.5,3.6,9.3,6.9,13.8,10.5,2.3,1.8,4.1,4.2,6.2,6.6-17.3.4-34.7.4-52.5,0-5-4.4-9.4-8.7-14.2-12.4-10.3-8-20.9-15.6-31.1-23.7-12.1-9.5-24-19.2-35.9-29-3.6-3-6.8-6.4-10.2-9.6,17.4,0,34.7-.1,52.5,0Z"/>
  <path class="st14" d="M643,459.1c-16,0-32.1.1-48.6-.3-7.1-6.3-13.4-12.4-20.3-18-7.8-6.3-16.1-12-24-18.2-15.6-12.2-31.1-24.6-46.6-36.9,3.7-.6,7.4-1.7,11.2-1.7,11.8-.2,23.5,0,35.8.4,1.3,1.4,2,2.6,3,3.3,10.8,8.4,21.8,16.6,32.6,25,17.6,13.6,35.3,27.2,52.8,41,1.7,1.3,2.7,3.6,4,5.4Z"/>
  <path class="st10" d="M713.6,344.4c-1.3-1.4-1.9-3.4-3.2-4.4-10.1-7.8-20.4-15.3-30.4-23.1-9-7-17.8-14.3-26.8-21.3-9.5-7.4-19.1-14.7-28.7-22-.6-.5-.9-1.3-1.4-2.3,17.3-.4,34.7-.4,52.5,0,1.9,2,3,4,4.6,5.2,16.5,13,33,25.8,49.6,38.7,2.7,2.1,5.6,3.9,8.4,5.9-4.2,11.7-12,19.8-24.6,23.4Z"/>
  <path class="st13" d="M513.6,270.9c3.8,3.3,7.1,6.7,10.7,9.6,11.9,9.8,23.8,19.5,35.9,29,10.3,8.1,20.9,15.7,31.1,23.7,4.8,3.7,9.1,8,13.7,12.4-14.3.4-28.7.4-43.5,0-2.3-2.4-3.8-4.6-5.8-6.2-9-7.2-18.2-14.2-27.3-21.2-11.9-9.2-23.8-18.4-35.9-27.4-2.6-1.9-5.6-3.2-8.5-4.8,7.1-10.2,17.1-14.6,29.6-15.1Z"/>
  <path class="st19" d="M643.5,459.2c-1.8-1.9-2.8-4.2-4.5-5.5-17.5-13.7-35.1-27.4-52.8-41-10.8-8.4-21.8-16.6-32.6-25-1-.8-1.7-1.9-2.6-3.3,12.6-.4,25.3-.4,38.5,0,1.2,1.3,1.7,2.4,2.6,3.1,12.8,9.9,25.6,19.7,38.3,29.6,16.3,12.7,32.6,25.4,48.8,38.2,1.2.9,1.8,2.6,2.7,3.9-12.7,0-25.4.1-38.5,0Z"/>
  <path class="st13" d="M627,384.1c14,0,28,0,42.6.3,7.4,6.5,14,12.9,21.2,18.7,12.5,10,25.3,19.5,38.1,29.1,2.6,1.9,5.6,3.3,8.5,4.9-4.9,10.3-12.4,17.6-23.9,20.5-.8-2-.8-4.4-1.9-5.3-8.3-6.9-16.7-13.5-25.3-20-5.5-4.2-11.3-8-16.8-12.3-10.5-8.2-21-16.4-31.3-24.9-4-3.3-7.5-7.2-11.2-10.9Z"/>
  <path class="st4" d="M626.5,384.1c4.2,3.7,7.7,7.7,11.7,10.9,10.3,8.5,20.8,16.7,31.3,24.9,5.5,4.3,11.3,8.1,16.8,12.3,8.5,6.6,17,13.2,25.3,20,1.1.9,1.1,3.3,1.5,5.3-6.9.8-13.8,1.4-20.7,1.8-3.1.2-6.3,0-9.9,0-1.3-1.4-2-3-3.2-4-16.2-12.8-32.5-25.5-48.8-38.2-12.8-9.9-25.6-19.7-38.3-29.6-.9-.7-1.4-1.8-2.1-3,12-.4,24-.4,36.5-.4Z"/>
  <path class="st5" d="M503.2,385.8c15.9,12.3,31.3,24.6,46.9,36.8,7.9,6.2,16.2,11.9,24,18.2,6.8,5.6,13.2,11.7,19.8,17.9-12.3.4-24.7.5-37.6.1-1-.9-1.4-1.5-1.9-1.9-10.5-8.2-21.1-16.3-31.6-24.6-4.8-3.8-9.4-7.8-14.2-11.6-6.1-4.8-12.2-9.6-18.5-14-2.6-1.8-5.8-2.7-8.7-4,4.8-8.5,11.7-14.5,21.7-17.1Z"/>
  <path class="st4" d="M483.7,286.2c3.1,1.4,6.2,2.7,8.8,4.6,12,9,23.9,18.2,35.9,27.4,9.1,7,18.3,14.1,27.3,21.2,2,1.6,3.6,3.8,5.4,6.1-16.4.4-32.9.9-49.4.3-14.3-.5-25-8-31.3-20.7-6.6-13.3-5.3-26.4,3.4-38.9Z"/>
  <path class="st15" d="M481.3,403.1c3.1,1.1,6.3,2,8.9,3.8,6.3,4.5,12.4,9.3,18.5,14,4.8,3.8,9.4,7.8,14.2,11.6,10.5,8.2,21.1,16.4,31.6,24.6.5.4.9,1,1.5,1.8-16.3.2-32.9,1.8-49.1-.3-25.2-3.3-37.9-31.9-25.5-55.4Z"/>
  <path class="st17" d="M737.5,436.8c-3.1-1.4-6.1-2.7-8.7-4.6-12.8-9.6-25.6-19.2-38.1-29.1-7.2-5.7-13.8-12.1-20.7-18.6,11.8-.4,23.6-.9,35.4-.3,26.1,1.3,42.1,27.4,32.1,52.7Z"/>
  <path class="st0" d="M738.4,320.7c-3-1.7-5.9-3.5-8.6-5.6-16.6-12.9-33.1-25.7-49.6-38.7-1.6-1.3-2.8-3.2-4.1-5.2,12.4,0,25.2-1.3,37.2,1.1,21,4.2,32.9,28.3,25.1,48.4Z"/>
</svg>