<?xml version="1.0" encoding="UTF-8"?>
<svg id="Layer_1" xmlns="http://www.w3.org/2000/svg" version="1.1" viewBox="0 0 1024 674">
  <!-- Generator: Adobe Illustrator 29.5.0, SVG Export Plug-In . SVG Version: 2.1.0 Build 137)  -->
  <defs>
    <style>
      .st0 {
        fill: #ff5b6b;
      }

      .st1 {
        fill: #ff9ba0;
      }

      .st2 {
        fill: #f8373a;
      }

      .st3 {
        fill: #fa3a46;
      }

      .st4 {
        fill: #ff737f;
      }

      .st5 {
        fill: #fb3e4d;
      }

      .st6 {
        fill: #ff7d88;
      }

      .st7 {
        fill: #fc4554;
      }

      .st8 {
        fill: #ff8e96;
      }

      .st9 {
        fill: #fc414f;
      }

      .st10 {
        fill: #fd495a;
      }

      .st11 {
        fill: #ff979d;
      }

      .st12 {
        fill: #ff5e6d;
      }

      .st13 {
        fill: #ff858e;
      }

      .st14 {
        fill: #ff6d7a;
      }

      .st15 {
        fill: #fe4f60;
      }

      .st16 {
        fill: #f9373f;
      }

      .st17 {
        fill: #ffa0a4;
      }

      .st18 {
        fill: #ff949b;
      }

      .st19 {
        fill: #ff5666;
      }

      .st20 {
        fill: #ff6372;
      }
    </style>
  </defs>
  <path class="st20" d="M452,251c17.8,21,28.8,45.3,34.9,71.9.8,3.4,1.3,6.8,1.6,10.6-8.8-5.8-17.4-11.7-25.6-18.2-12.9-10.1-25.3-20.8-38.3-30.9-15.8-12.3-31.9-24.2-47.9-36.3-3.6-2.7-7-5.5-10.4-8.4-9.9-8.2-19.7-16.5-29.8-24.5-10.1-8-20.6-15.5-30.9-23.3-2.9-2.2-5.8-4.6-8.7-6.9,28.6-1.9,56.5.9,83.8,12.2,4.8,3.6,9.1,6.9,13.4,10.2,16.2,12.5,32.3,25.1,48.5,37.5,2.9,2.2,6.2,3.9,9.3,5.9Z"/>
  <path class="st18" d="M539.6,51.7c10.5-1.9,21-3.8,32-5.3,8,6.7,15.4,13.3,23.2,19.4,8.6,6.8,17.6,13,26.2,19.7,14.1,11,27.9,22.4,42,33.4,10.5,8.3,21.4,16.2,31.9,24.5,12.5,9.8,24.8,19.8,37.3,29.6,7.2,5.6,14.6,10.8,21.8,16.4,9.5,7.4,18.8,15.1,28.3,22.6,6.5,5.1,13,10.3,19.6,15.2,4.2,3.1,8.6,5.8,12.9,8.7.7,8.4,1.5,16.7,1.8,25.5-4.9-2.9-9.6-6-14-9.4-8.9-6.9-17.6-14.1-26.5-21-9-7-18.2-13.7-27.2-20.7-8.9-6.9-17.5-14.2-26.3-21.1-.8-.6-2.4,0-3.7,0-4.2-5.5-8.3-11.2-12.8-16.5-19.8-23.6-44.9-39.1-74.8-47.9-1.5-1.7-2.4-3-3.7-4-11.6-9-23.4-17.7-35-26.8-17.8-14-35.3-28.2-53-42.3Z"/>
  <path class="st20" d="M780.2,493.6c-26.8,0-53.5.2-80.7-.2-.8-1.2-.8-2.2-1.4-2.6-7.7-6-15.4-11.9-23.2-17.9-9.1-6.9-18.2-13.8-27.2-20.8-12.1-9.5-24.1-19.1-36-28.9-1.5-1.2-2.4-3.2-3.6-4.8,15.6,0,31.2-.2,46.7-.3,12.1,0,24.2,0,36.8.5,1.5,2.2,2.2,4.5,3.7,5.7,8.3,6.7,16.8,13.3,25.3,19.8,16.1,12.4,32.4,24.5,48.1,37.4,4.2,3.4,10.8,5.2,11.7,12.1Z"/>
  <path class="st19" d="M649,493.7c-27,0-54,.1-81.5-.3-1.7-2.1-2.7-4.1-4.3-5.3-11-8.7-22.2-17.2-33.3-25.8-14.7-11.5-29.5-22.9-44-34.5-3.3-2.7-5.9-6.2-8.9-9.4,17.2,0,34.5-.2,51.7-.3,10.1,0,20.2,0,30.8.5.8,1.5.8,3,1.6,3.6,7.2,5.8,14.5,11.4,21.9,17.1,9.8,7.6,19.7,15,29.5,22.6,8.9,6.8,17.9,13.5,26.6,20.7,3.8,3.1,6.7,7.3,10,11.1Z"/>
  <path class="st2" d="M312,606.9c-34.3,0-68.5.2-102.8-.1-4.9,0-10.1-2.2-14.5-4.5-15-7.8-22.3-24.8-18.6-41.4,3.7-16.3,18.1-28.3,35-29,3-.1,6,0,9.5.4,6.8,5.9,13.1,11.5,19.6,16.8,10.2,8.3,20.6,16.3,30.9,24.6,7.4,5.9,14.7,12.1,22.2,17.9,5.3,4.1,11,7.8,16.3,11.9,1.1.8,1.6,2.3,2.4,3.5Z"/>
  <path class="st5" d="M381.2,493.7c-25.1,0-50.2.1-75.7-.3-2.3-2.6-3.9-5-6.1-6.7-13.5-10.6-27.1-21.1-40.7-31.5-12.4-9.5-24.9-18.9-37.1-28.6-2.7-2.1-4.4-5.4-6.6-8.2,25,0,50-.1,75.5.2,1.2,1.7,1.8,3.2,2.8,4.1,7.7,6.3,15.4,12.5,23.2,18.6,8.5,6.6,17.1,13,25.6,19.6,9.7,7.6,19.4,15.4,28.9,23.2,3.6,2.9,6.7,6.4,10.1,9.6Z"/>
  <path class="st8" d="M718.9,189.5c1.2-.3,2.9-.9,3.6-.3,8.9,6.9,17.5,14.2,26.3,21.1,9,7,18.2,13.7,27.2,20.7,8.9,6.9,17.6,14,26.5,21,4.4,3.4,9.1,6.6,14,9.9,1.3,20.5-.8,40.7-6.5,60.8-1.5,0-2.6-.1-3.4-.7-19.1-15-38.2-30.1-57.4-45.1-2.2-1.7-4.9-2.7-7.4-4,0-22.3-3.8-43.9-13-64.3-2.9-6.5-6.6-12.6-10-19.2Z"/>
  <path class="st7" d="M381.6,493.8c-3.7-3.3-6.9-6.7-10.5-9.7-9.5-7.9-19.2-15.6-28.9-23.2-8.4-6.6-17.1-13-25.6-19.6-7.8-6.1-15.6-12.3-23.2-18.6-1.1-.9-1.6-2.4-2.4-4,22.7-.4,45.4-.5,68.5,0,.8,1.2.9,2.2,1.5,2.6,8.1,6.5,16.3,13.1,24.5,19.4,16.5,12.7,33.1,25.4,49.7,38.1,4.2,3.2,8.4,6.5,12.3,10.1,1.3,1.1,1.7,3.2,2.5,4.9-22.7,0-45.4,0-68.4,0Z"/>
  <path class="st7" d="M437,532c22,0,44.1-.1,66.6.3,3.8,3.1,7.2,5.7,10.5,8.4,7.1,5.6,14.1,11.4,21.2,17,7.2,5.7,14.5,11.3,21.8,17,8.3,6.5,16.8,12.8,24.9,19.5,4.9,4,9.3,8.5,14,12.8-22.7,0-45.4.1-68.5-.3-5.4-5.2-10.1-10.2-15.4-14.5-8.3-6.7-17.2-12.8-25.7-19.3-14.5-11.2-29-22.5-43.3-33.9-2.4-1.9-4-4.6-6-6.9Z"/>
  <path class="st3" d="M214.5,418.4c2.6,2.9,4.4,6.2,7.1,8.3,12.2,9.7,24.8,19.1,37.1,28.6,13.6,10.5,27.2,20.9,40.7,31.5,2.2,1.7,3.7,4.2,5.6,6.6-21.7.4-43.4.5-65.5,0-1-1.7-1.3-3.5-2.2-4.2-9.1-7.2-18.3-14.2-27.4-21.3-7.9-6.1-15.9-12.2-23.8-18.4-6-4.7-11.8-9.6-17.7-14.3-5.2-4.1-10.6-8-15.6-12.2-1.3-1-1.8-3-2.6-4.5,21.4,0,42.7-.1,64.5,0Z"/>
  <path class="st3" d="M442,606.9c-22,0-44.1.1-66.5-.3-5.7-5.3-10.7-10.4-16.2-14.9-6.4-5.2-13.4-9.8-19.8-14.9-13.6-10.7-27.2-21.6-40.7-32.5-4.8-3.9-9.2-8.2-13.8-12.4,21.7,0,43.4-.1,65.6.3,1.5,1.7,2.3,3.2,3.6,4.2,8.3,6.5,16.8,12.8,25.1,19.3,11.8,9.3,23.6,18.7,35.4,28,7.3,5.7,14.6,11.4,21.8,17.2,2.1,1.7,3.7,3.9,5.6,5.9Z"/>
  <path class="st15" d="M709,606.9c-21.4,0-42.7.1-64.6-.3-1.5-1.5-2.3-2.8-3.4-3.6-4.3-3.3-8.9-6.3-13.1-9.7-11.9-9.4-23.6-19.1-35.6-28.4-10.5-8.2-21.4-16-31.9-24.2-3.1-2.5-5.6-5.8-8.4-8.7,21.7,0,43.4-.1,65.6.3,2,2.2,3.2,4.3,5,5.7,12.5,10,25.1,19.9,37.8,29.7,13.6,10.5,27.4,20.8,40.9,31.3,2.9,2.3,5.2,5.3,7.7,8Z"/>
  <path class="st1" d="M598,45.1c12.7,1.3,25.5,2.6,38.6,4.3,1.2,1.5,1.9,2.7,2.9,3.5,7.6,6.1,15.4,12,23,18.1,15.3,12.2,30.4,24.5,45.8,36.5,12.1,9.5,24.6,18.6,36.7,28,14.5,11.3,28.8,22.8,43.3,34.1,2.3,1.8,5.1,2.9,7.7,4.3,4.4,12,8.8,24.1,12.8,36.5-.9.2-1.6,0-2.1-.4-17.6-13.5-35.2-27-52.6-40.7-13.3-10.5-26.1-21.5-39.4-31.9-20.8-16.4-41.7-32.5-62.6-48.7-17-13.2-34.1-26.2-51.1-39.4-1.3-1-2.1-2.8-3.1-4.3Z"/>
  <path class="st11" d="M597.5,45.1c1.5,1.5,2.2,3.3,3.6,4.3,17,13.2,34.1,26.2,51.1,39.4,20.9,16.2,41.8,32.3,62.6,48.7,13.3,10.5,26.1,21.5,39.4,31.9,17.4,13.7,35,27.2,52.6,40.7.5.4,1.2.5,2.2.8,2.2,8.1,4.1,16.2,5.9,24.7-4.4-2.5-8.8-5.2-13-8.3-6.6-4.9-13.1-10.1-19.6-15.2-9.5-7.5-18.8-15.2-28.3-22.6-7.2-5.6-14.6-10.8-21.8-16.4-12.5-9.8-24.8-19.8-37.3-29.6-10.6-8.3-21.4-16.2-31.9-24.5-14.1-11-27.9-22.4-42-33.4-8.6-6.7-17.6-12.9-26.2-19.7-7.8-6.1-15.2-12.7-22.8-19.4,8.3-.7,16.7-1.1,25.5-1.4Z"/>
  <path class="st16" d="M284.5,531.9c5,4.2,9.4,8.6,14.2,12.5,13.5,10.9,27,21.8,40.7,32.5,6.5,5.1,13.5,9.6,19.8,14.9,5.5,4.5,10.5,9.6,15.7,14.8-20.7.4-41.4.5-62.5.5-1.3-1.3-1.8-2.8-2.9-3.6-5.4-4.1-11-7.8-16.3-11.9-7.5-5.8-14.8-12-22.2-17.9-10.3-8.2-20.7-16.3-30.9-24.6-6.5-5.3-12.7-10.9-19.1-16.7,21-.4,42-.5,63.5-.4Z"/>
  <path class="st0" d="M402.8,311.4c-9.5-14.7-20.8-27.6-36-36.7-10.1-6.1-20.8-10.3-32.6-13.3-1.1-1.9-1.6-3.5-2.8-4.4-9-7.2-18.2-14.3-27.3-21.4-15-11.7-30-23.3-44.8-35.1-1.8-1.5-2.9-3.8-4.4-5.8,7.4-2.2,14.9-4.3,22.7-6.1,2.3,2.2,4.2,4.1,6.3,5.8,9,7.3,18.1,14.5,27.2,21.6,11.3,8.9,22.7,17.7,34,26.6,15,11.8,29.8,23.7,44.8,35.3,13.2,10.2,26.6,20.1,39.8,30.3,16.4,12.8,32.6,25.9,49,38.8,3.8,3,8.1,5.3,12.2,8v6.2c-6.6,0-13.3,0-20.4-.4-.7-.9-.8-1.5-1.1-1.8-11.9-9.2-23.8-18.4-35.6-27.6-8.6-6.7-17.2-13.4-25.9-19.9-1.1-.8-3.3-.1-5-.1Z"/>
  <path class="st15" d="M476.5,418.4c3.4,3.2,6,6.8,9.3,9.5,14.6,11.7,29.3,23.1,44,34.5,11.1,8.6,22.2,17.1,33.3,25.8,1.6,1.2,2.6,3.2,3.8,5.2-19,.4-38,.5-57.5,0-1.4-1.7-2-3.4-3.2-4.3-10-7.6-20.1-14.9-30-22.6-16.6-12.8-33.1-25.7-49.4-38.9-3.1-2.5-8.2-3.7-7.8-9.3,19,0,38.1-.1,57.5-.1Z"/>
  <path class="st19" d="M709.5,607c-3-2.8-5.3-5.8-8.2-8.1-13.5-10.6-27.3-20.8-40.9-31.3-12.7-9.8-25.3-19.7-37.8-29.7-1.8-1.4-3-3.5-4.5-5.6,19.3-.4,38.7-.5,58.5,0,2.2,2.2,3.6,4.3,5.5,5.7,12.3,9.5,24.7,18.7,37,28.2,11,8.4,22,16.8,32.8,25.5,3.5,2.8,6.1,6.7,9.1,10-5.9,1.8-11.8,4.7-17.8,5.2-11,.9-22.2.3-33.7.2Z"/>
  <path class="st10" d="M418.5,418.4c0,5.7,5.2,6.9,8.3,9.4,16.3,13.2,32.8,26.1,49.4,38.9,9.9,7.7,20.1,15,30,22.6,1.2.9,1.8,2.5,2.7,4.2-19.4.4-38.7.5-58.5.4-1.3-1.7-1.7-3.8-2.9-4.9-3.9-3.5-8.1-6.8-12.3-10.1-16.5-12.7-33.2-25.3-49.7-38.1-8.3-6.4-16.4-12.9-24.5-19.4-.6-.4-.7-1.4-1-2.5,19.4-.4,38.7-.5,58.5-.4Z"/>
  <path class="st12" d="M490.9,354.6c-4.1-2.2-8.4-4.6-12.3-7.5-16.4-12.8-32.6-26-49-38.8-13.1-10.3-26.6-20.1-39.8-30.3-15-11.7-29.9-23.6-44.8-35.3-11.3-8.9-22.7-17.7-34-26.6-9.1-7.2-18.1-14.4-27.2-21.6-2.1-1.7-3.9-3.6-5.9-5.8,6.1-1.3,12.1-2.3,18.6-3.3,3.3,2.2,6.1,4.6,9,6.8,10.3,7.8,20.8,15.3,30.9,23.3,10.1,7.9,19.9,16.3,29.8,24.5,3.4,2.8,6.9,5.7,10.4,8.4,16,12.1,32.1,24,47.9,36.3,12.9,10.1,25.4,20.8,38.3,30.9,8.2,6.4,16.8,12.4,25.5,18.6,1,6.7,1.7,13.4,2.4,20.6Z"/>
  <path class="st8" d="M539.2,51.8c18,14.1,35.6,28.3,53.4,42.3,11.5,9.1,23.3,17.8,35,26.8,1.3,1,2.2,2.3,3.4,3.8-10.8-1-21.6-3.2-32.5-3.6-10.9-.3-21.8,1.2-33.1,1.5-1.6-2.1-2.5-4.2-4-5.5-6.3-5.3-12.8-10.3-19.4-15.4-15-11.6-30.1-23.2-45.2-34.8,14-5,28-10.1,42.4-15.2Z"/>
  <path class="st16" d="M149.5,418.4c1.3,1.6,1.8,3.6,3.1,4.6,5.1,4.2,10.5,8.1,15.6,12.2,6,4.7,11.8,9.6,17.7,14.3,7.9,6.2,15.9,12.3,23.8,18.4,9.2,7.1,18.4,14.1,27.4,21.3,1,.8,1.2,2.5,1.8,4.1-17.7.4-35.4.5-53.5,0-1.3-2.1-1.8-4.3-3.1-5.4-8.6-7.1-17.4-14-26.2-20.9-9.5-7.4-18.9-14.8-28.6-21.9-6.2-4.6-12.6-8.9-18.9-13.3,7.5-9.9,18.1-13.2,30-13.7,3.5-.1,6.9,0,10.9.1Z"/>
  <path class="st13" d="M496.5,67c15.4,11.5,30.5,23.1,45.5,34.7,6.5,5,13,10.1,19.4,15.4,1.5,1.3,2.4,3.4,3.6,5.5-17.1,4.2-33.4,10-48.7,18.9-5.5-4.9-10.3-9.8-15.7-14-12.4-9.8-25.1-19.2-37.5-29-2.4-1.9-4.1-4.5-6.2-6.8,13.1-8.2,26.2-16.4,39.6-24.7Z"/>
  <path class="st14" d="M780.5,493.7c-1.2-7-7.8-8.7-12-12.2-15.7-12.9-32-25-48.1-37.4-8.5-6.5-17-13.1-25.3-19.8-1.5-1.2-2.1-3.5-3.2-5.6,16-.4,32.1-.5,48.6-.1,1.9,2.4,3.1,4.7,4.9,6.1,6.4,5.2,13,10.2,19.6,15.2,8.3,6.3,16.8,12.3,25,18.6,8.8,6.7,17.6,13.5,26,20.5,4.6,3.8,8.6,8.4,12.9,12.7-3.9.7-7.8,1.9-11.7,2-12.1.2-24.2,0-36.7,0Z"/>
  <path class="st5" d="M442.5,607c-2.3-2.1-3.9-4.3-6-6-7.2-5.8-14.5-11.5-21.8-17.2-11.8-9.3-23.5-18.7-35.4-28-8.3-6.5-16.8-12.8-25.1-19.3-1.3-1-2.1-2.5-3.1-4.1,16-.4,32-.5,48.5,0,1.4,1.5,2.3,2.8,3.4,3.7,14.2,11.1,28.4,22.1,42.6,33.1,13.2,10.2,26.4,20.3,39.5,30.6,2.6,2.1,4.7,4.8,7,7.3-16.4,0-32.7.1-49.5,0Z"/>
  <path class="st12" d="M649.4,493.8c-3.8-3.8-6.6-8-10.4-11.1-8.6-7.2-17.7-13.9-26.6-20.7-9.8-7.6-19.7-15-29.5-22.6-7.3-5.6-14.7-11.3-21.9-17.1-.7-.6-.7-2.1-1.1-3.5,15.7-.4,31.4-.5,47.6-.5,1.7,1.7,2.6,3.7,4.1,4.9,11.9,9.7,23.9,19.3,36,28.9,9,7.1,18.1,13.9,27.2,20.8,7.7,5.9,15.5,11.9,23.2,17.9.5.4.6,1.5.9,2.6-16.4.4-32.7.5-49.5.4Z"/>
  <path class="st17" d="M796,173.6c-2.5-1-5.4-2.1-7.7-3.9-14.5-11.3-28.8-22.9-43.3-34.1-12.1-9.5-24.6-18.5-36.7-28-15.4-12-30.5-24.4-45.8-36.5-7.6-6.1-15.4-12-23-18.1-1-.8-1.6-2.1-2.4-3.4,39.4,7.3,74,24.6,104.1,51,23.3,20.5,41.6,44.7,54.8,73.1Z"/>
  <path class="st4" d="M829.3,491.8c-4.6-4.2-8.6-8.8-13.3-12.6-8.5-7.1-17.3-13.8-26-20.5-8.3-6.3-16.7-12.4-25-18.6-6.6-5-13.2-10-19.6-15.2-1.8-1.5-3-3.8-4.5-6,18.7-.4,37.4-.5,56.6-.1,1.9,2,3.2,3.9,4.8,5.2,9.6,7.5,19.3,15,29,22.4,7.5,5.7,15.1,11.2,22.6,16.8-3,13.9-11.1,23.5-24.7,28.8Z"/>
  <path class="st10" d="M551.5,531.9c3.2,3,5.7,6.4,8.8,8.8,10.5,8.2,21.4,16,31.9,24.2,12,9.3,23.7,19,35.6,28.4,4.3,3.4,8.8,6.4,13.1,9.7,1.1.9,2,2.1,3,3.5-15.7.4-31.3.5-47.5.4-5.1-4.4-9.6-8.9-14.4-12.9-8.2-6.7-16.6-13-24.9-19.5-7.3-5.7-14.6-11.3-21.8-17-7.1-5.6-14.1-11.3-21.2-17-3.3-2.7-6.7-5.3-10.1-8.3,15.6-.4,31.3-.5,47.5-.4Z"/>
  <path class="st6" d="M456.6,91.8c2.4,2.1,4.1,4.8,6.5,6.7,12.4,9.7,25.1,19.2,37.5,29,5.4,4.3,10.2,9.2,15.4,14.1-12.7,8.4-23.9,18.2-34.7,29.3-1.8-1.8-2.8-3.9-4.4-5.2-6.1-4.8-12.4-9.3-18.5-14-11.9-9.1-23.8-18.2-35.7-27.3,5.6-6.1,10.9-12.4,16.9-18.2,5.2-5.1,11.1-9.5,17-14.4Z"/>
  <path class="st4" d="M422.4,124.5c12.2,9,24.1,18.1,36,27.1,6.2,4.7,12.5,9.2,18.5,14,1.6,1.3,2.5,3.4,4.1,5.3-8.7,11.1-16.5,22.7-22.9,35.8-3.1-1.5-5.6-3-7.9-4.8-14.5-11.2-28.9-22.5-43.4-33.7-3.1-2.4-6.6-4.3-9.9-6.4,8.4-12.4,16.8-24.9,25.5-37.5Z"/>
  <path class="st9" d="M214.6,342.2c-.7,6.1-1.4,12.2-2.1,18.7h-75.2c0-22.2,4.1-43.6,12.9-64.6,3,.6,5.8,1.1,7.9,2.5,5.9,4.2,11.5,8.8,17.3,13.2,13.1,10,26.1,20.1,39.2,30.1Z"/>
  <path class="st14" d="M396.6,162.2c3.6,1.9,7.1,3.8,10.2,6.2,14.5,11.2,28.9,22.5,43.4,33.7,2.3,1.8,4.9,3.3,7.7,5-2.8,9.8-5.8,19.5-9.2,29.2-1.9,5.6-1.3,10.2,3.3,14.5-3-1.6-6.3-3.3-9.2-5.6-16.2-12.4-32.3-25-48.5-37.5-4.3-3.3-8.6-6.6-13.1-10.2,4.9-11.9,10-23.4,15.4-35.2Z"/>
  <path class="st7" d="M214.7,341.8c-13.2-9.7-26.3-19.7-39.3-29.8-5.8-4.4-11.4-9-17.3-13.2-2.1-1.5-4.8-1.9-7.7-2.8,5.7-11.6,11.8-23.1,18.5-34.9,3.3,1.2,6.2,2.1,8.5,3.9,11.2,8.5,22.3,17.1,33.3,25.9,6.2,4.9,12.2,10.1,18.3,15.1-6.7,11.1-11.6,22.8-14.3,35.8Z"/>
  <path class="st15" d="M288,263.1c-13,3.5-24.7,9.7-35.7,17.5-2.4-2.6-4.2-5.3-6.6-7.1-12.4-9.7-25.1-19.3-37.6-28.9-5.1-3.9-10.1-7.7-15.2-11.6,9.8-7.6,19.6-15.2,30-22.7,1.7.8,3,1.3,4,2.1,17.3,13.6,34.6,27.1,51.8,40.9,3.5,2.8,6.3,6.5,9.4,9.8Z"/>
  <path class="st19" d="M288.4,263.1c-3.5-3.3-6.3-7-9.8-9.8-17.2-13.8-34.5-27.3-51.8-40.9-1-.8-2.3-1.3-3.6-2.2,10.2-5.3,20.6-10.4,31.3-15.4,1.8,1.9,2.9,4.3,4.8,5.7,14.9,11.8,29.9,23.4,44.8,35.1,9.1,7.1,18.3,14.2,27.3,21.4,1.1.9,1.7,2.6,2.4,4.3-15.1-2.2-30.1-1.9-45.4,1.8Z"/>
  <path class="st2" d="M108.4,432.1c6.6,4.3,13,8.5,19.2,13.1,9.6,7.2,19.1,14.6,28.6,21.9,8.8,6.9,17.6,13.8,26.2,20.9,1.3,1.1,1.8,3.3,2.6,5.4-17.4.2-34.9.8-52.3-.2-14.5-.8-24.7-9.3-30.2-22.6-5.6-13.6-3.7-26.6,5.9-38.5Z"/>
  <path class="st9" d="M492.5,607c-2.8-2.5-4.9-5.3-7.5-7.4-13.1-10.3-26.3-20.4-39.5-30.6-14.2-11-28.4-22-42.6-33.1-1.1-.9-1.9-2.2-2.9-3.6,12-.4,24-.5,36.5-.4,2.4,2.4,4.1,5.1,6.5,7,14.4,11.4,28.8,22.7,43.3,33.9,8.5,6.5,17.4,12.6,25.7,19.3,5.3,4.3,10,9.4,15,14.4-11.4.4-22.7.5-34.5.4Z"/>
  <path class="st13" d="M741.9,273.4c2.5.9,5.3,1.9,7.4,3.5,19.2,15,38.2,30.1,57.4,45.1.7.6,1.8.6,3.1,1-3.1,10.9-6.7,21.7-10.8,32.7-2.2-.7-3.8-1.5-5.3-2.5-5.8-4.4-11.4-8.9-17.1-13.4-9.6-7.5-19.1-15.2-28.9-22.4-3.6-2.6-7.9-4.3-11.8-6.4,2-12.4,4-24.8,6-37.6Z"/>
  <path class="st10" d="M192.6,233.1c5.4,3.7,10.4,7.6,15.5,11.5,12.6,9.6,25.2,19.2,37.6,28.9,2.4,1.9,4.2,4.6,6.3,7.2-9.6,6.5-15.9,15.8-22.7,25.1-6.4-4.9-12.4-10-18.6-14.9-11-8.7-22.1-17.4-33.3-25.9-2.3-1.7-5.2-2.7-8.2-4.1,7.4-9.3,15.2-18.5,23.3-27.9Z"/>
  <path class="st6" d="M735.6,311.2c4.2,1.9,8.5,3.5,12.1,6.2,9.8,7.3,19.3,14.9,28.9,22.4,5.7,4.5,11.4,9,17.1,13.4,1.4,1.1,3.1,1.8,5,2.8-.2,4-2.2,5.3-6.4,5.3-25.8-.2-51.6,0-77.4,0-1.5,0-3,0-5.8,0,12-15.6,21-31.7,26.4-50Z"/>
  <path class="st0" d="M761.3,601.6c-3.3-3.3-6-7.1-9.4-9.9-10.8-8.7-21.8-17.1-32.8-25.5-12.3-9.4-24.7-18.7-37-28.2-1.9-1.5-3.4-3.5-5.1-5.6,11.7-.4,23.3-.5,35.5,0,1.6,1.6,2.6,2.9,3.8,3.9,4.3,3.6,8.5,7.2,12.9,10.6,8.2,6.4,16.5,12.7,24.6,19.2,7.5,6,14.8,12.1,22.2,18.2-3.6,6.8-7.8,13.1-14.8,17.4Z"/>
  <path class="st12" d="M776.4,583.9c-7.7-5.8-15-12-22.4-17.9-8.1-6.5-16.4-12.8-24.6-19.2-4.4-3.5-8.7-7-12.9-10.6-1.2-1-2.2-2.3-3.4-3.8,11.1-.3,22.3-1.3,33.3-.2,23.9,2.4,39.7,27.2,30,51.7Z"/>
  <path class="st19" d="M402.9,311.7c1.6-.3,3.8-1,4.9-.2,8.8,6.5,17.3,13.2,25.9,19.9,11.9,9.2,23.8,18.4,35.6,27.6.3.3.4.9.7,1.7-17.9.4-35.8.4-54.4.4-.1-17.4-4.6-33.7-12.7-49.3Z"/>
  <path class="st6" d="M854.3,462.7c-7.8-5.3-15.4-10.8-22.9-16.5-9.7-7.4-19.4-14.8-29-22.4-1.7-1.3-2.9-3.2-4.4-5.1,9.5,0,19.4-.9,28.6,1,19.3,4.1,30.7,22.4,27.7,42.9Z"/>
</svg>