<svg width="160" height="160" viewBox="0 0 160 160" fill="none" xmlns="http://www.w3.org/2000/svg">
  <circle cx="80" cy="80" r="80" fill="#FFFFFF" stroke="#E5E7EB" stroke-width="2" />
  <path d="M90.6 97.8a5.24 5.24 0 0 1-3.72-1.55l-5.74-5.74a1.25 1.25 0 0 1 1.77-1.77l5.74 5.74c1.2 1.2 3.15 1.2 4.35 0l10.49-10.49c1.2-1.2 1.2-3.15 0-4.35l-5.74-5.74a3.09 3.09 0 0 0-4.35 0l-2.19 2.19a1.25 1.25 0 1 1-1.77-1.77l2.19-2.19a5.59 5.59 0 0 1 7.89 0l5.74 5.74a5.59 5.59 0 0 1 0 7.89l-10.49 10.49a5.24 5.24 0 0 1-3.72 1.55ZM76.98 90.28a1.25 1.25 0 0 1-.89-.37l-2.19-2.19a3.09 3.09 0 0 0-4.35 0l-5.74 5.74a3.09 3.09 0 0 0 0 4.35l5.74 5.74a3.09 3.09 0 0 0 4.35 0l2.19-2.19a1.25 1.25 0 0 1 1.77 1.77l-2.19 2.19a5.59 5.59 0 0 1-7.89 0l-5.74-5.74a5.59 5.59 0 0 1 0-7.89l5.74-5.74a5.59 5.59 0 0 1 7.89 0l2.19 2.19a1.25 1.25 0 0 1-.89 2.13Z" fill="#2563EB" />
  <path d="M78.6 103.88a5.51 5.51 0 0 1-3.91-1.62l-5.74-5.74a5.54 5.54 0 0 1 0-7.82l5.74-5.74a5.54 5.54 0 0 1 7.82 0l2.19 2.19a1.25 1.25 0 1 1-1.77 1.77l-2.19-2.19a3.03 3.03 0 0 0-4.28 0l-5.74 5.74a3.03 3.03 0 0 0 0 4.28l5.74 5.74a3.03 3.03 0 0 0 4.28 0l2.19-2.19a1.25 1.25 0 1 1 1.77 1.77l-2.19 2.19a5.51 5.51 0 0 1-3.91 1.62Z" fill="#1D4ED8"/>
</svg>
