<?xml version="1.0" encoding="UTF-8"?>
<svg id="Layer_1" xmlns="http://www.w3.org/2000/svg" version="1.1" viewBox="0 0 1024 732">
  <!-- Generator: Adobe Illustrator 29.5.0, SVG Export Plug-In . SVG Version: 2.1.0 Build 137)  -->
  <defs>
    <style>
      .st0 {
        fill: #ff5969;
      }

      .st1 {
        fill: #fd4757;
      }

      .st2 {
        fill: #f8373a;
      }

      .st3 {
        fill: #ff5464;
      }

      .st4 {
        fill: #ff727f;
      }

      .st5 {
        fill: #ff7d88;
      }

      .st6 {
        fill: #fb3e4b;
      }

      .st7 {
        fill: #ff8e96;
      }

      .st8 {
        fill: #fe4c5c;
      }

      .st9 {
        fill: #ff6170;
      }

      .st10 {
        fill: #ff6876;
      }

      .st11 {
        fill: #f9373e;
      }

      .st12 {
        fill: #ff858e;
      }

      .st13 {
        fill: #ff9aa0;
      }

      .st14 {
        fill: #ff6d7a;
      }

      .st15 {
        fill: #ff5061;
      }

      .st16 {
        fill: #ff959c;
      }

      .st17 {
        fill: #fa3a44;
      }

      .st18 {
        fill: #ff5d6d;
      }

      .st19 {
        fill: #ff5666;
      }
    </style>
  </defs>
  <path class="st18" d="M812.7,571c-2.7,11.5-5.4,23-8.6,34.5-18.7-14.4-37-28.9-55.3-43.2-3.4-2.7-7.1-4.9-10.8-7.8-4.4-30.8-22.2-48.8-52.1-53.5-1.4-2.3-2.4-4.7-4.2-6.2-5.5-4.5-11.4-8.5-17-12.9-23.1-18.2-46.1-36.5-69.2-54.7-6-4.7-12.2-9-18.3-13.6-16.1-12.4-32.2-24.9-48.3-37.4-8.6-6.7-17.1-13.6-25.6-20.4-6.3-5.1-12.3-10.6-18.8-15.5-11.3-8.6-22.9-16.8-34.1-25.5-19.4-15.1-38.6-30.6-58-45.8-4.2-3.3-9.2-5.5-13.6-8.6,4.5-5.8,8.8-11.3,13.2-16.5,6.4,4.9,12.6,9.5,18.7,14.2,11.8,9.1,23.6,18.2,35.3,27.4,13.6,10.7,27.2,21.5,40.8,32.3,13.4,10.6,26.7,21.1,40.2,31.5,2.5,2,5.7,3.1,8.6,4.6,0,0,.3.2.3.8,0,4,2,5.3,5.2,5.1,6.9,7.4,13.7,14.9,20.6,22.2,5.5,5.8,11.4,11.2,16.9,17,13.4,13.9,26.6,27.9,40,41.9,5.3-2.3,10.4-4.5,15.9-6.5,14.6,11.1,28.9,21.7,42.9,32.7,14.6,11.4,29,23.1,43.6,34.5,12,9.3,24.4,18.2,36.4,27.5,15.6,12.3,31,24.9,46.5,37.2,2.5,2,5.7,3.1,8.6,4.6Z"/>
  <path class="st2" d="M389,690c-27.5-.3-55.1,1.3-82.3-1.3-47.2-4.4-88-43.9-95.4-91-2.5-15.7-1.6-31.8-1.8-48.2,2.1.3,3.9.8,5.2,1.9,3.2,2.6,6.1,5.6,9.4,8.1,10.7,8.3,21.5,16.5,32.2,24.7,10.9,8.3,21.8,16.6,32.7,24.9,2.6,2,5.2,4,7.8,6,4.5,3.6,9.1,7.3,13.5,10.9,1.9,1.5,3.5,3.4,5.4,4.9,8.6,6.5,17.4,12.7,25.8,19.4,6.6,5.2,12.5,11.4,19.1,16.5,8.7,6.7,17.8,12.8,26.6,19.3,1,.7,1.1,2.6,1.6,3.9Z"/>
  <path class="st1" d="M725.7,682.4c-43.3,14.6-84.1,9.6-121.4-17-31.2-22.2-49.6-52.7-54.3-91-1.1-9.5-.5-19.2-.2-29.1,7.9,5,15.4,10.2,22.5,15.7,13.2,10.2,26.2,20.6,39.3,30.8,10.3,8,20.9,15.6,31.2,23.7,15.7,12.4,31.5,24.7,46.9,37.5,11.9,9.9,25.9,17.1,35.8,29.3Z"/>
  <path class="st11" d="M389.5,690.1c-1-1.4-1.1-3.3-2.1-4-8.8-6.5-17.9-12.6-26.6-19.3-6.6-5.2-12.5-11.3-19.1-16.5-8.4-6.7-17.2-12.9-25.8-19.4-1.9-1.5-3.6-3.3-5.4-4.9-4.5-3.7-9-7.3-13.5-10.9-2.6-2-5.2-4.1-7.8-6-10.9-8.3-21.8-16.6-32.7-24.9-10.8-8.2-21.5-16.4-32.2-24.7-3.3-2.5-6.2-5.5-9.4-8.1-1.4-1.1-3.2-1.6-5.2-2.4-.4-15-.5-30.1,0-45.5,2.3.7,4.3,1.7,6.1,2.9,1,.7,1.7,1.9,2.8,2.7,6.8,5.1,13.8,10,20.5,15.3,7.2,5.7,14.1,11.9,21.3,17.5,6.6,5.2,13.4,10,20.2,14.8,1.1.8,2.7.8,4.1,1.2,0,5.6.5,11.3.2,16.9-1.3,23.1,17.8,40.2,39.4,39.9,12.6-.2,25.3,0,38.4.5,1.4,1.9,2,3.8,3.3,4.9,7,5.7,14.2,11.3,21.4,16.9,7.3,5.7,14.8,11.2,22.1,16.9,9.4,7.4,18.8,14.9,28.2,22.3,4.2,3.3,9.6,5.4,10.5,11.7-4.5.8-9.1,2.1-13.6,2.2-14.8.3-29.6,0-44.9,0Z"/>
  <path class="st7" d="M813.1,228c0,15,0,30-.3,45.5-2.8-1-5.4-2.2-7.6-3.9-11-8.7-21.7-17.6-32.7-26.3-8-6.3-16.2-12.5-24.4-18.6-3.2-2.4-6.7-4.5-10-6.7-.1-7.8.5-15.7-.6-23.4-3.1-20.9-18.2-33.3-39.7-33.5-10.3-.1-20.6,0-31.4-.4-2.2-2.2-3.7-4.2-5.5-5.7-9.6-7.6-19.2-15-28.9-22.5-12.7-9.8-25.4-19.6-37.9-29.5-6.2-4.9-12.1-10.1-18.2-15.2,2.8-.6,5.7-1.7,8.5-1.8,15.2-.2,30.4,0,46.1.3,1.1,1.1,1.6,2,2.3,2.6,13.8,11,27.7,22.1,41.6,33,10.3,8.1,20.6,16,31,24,11.8,9.1,23.6,18.1,35.3,27.3,8.3,6.5,16.4,13.4,24.7,19.9,11,8.7,22,17.4,33.2,25.8,4.5,3.4,9.6,6,14.4,9Z"/>
  <path class="st9" d="M812.8,570.6c-3-1.1-6.2-2.2-8.7-4.2-15.6-12.3-30.9-24.9-46.5-37.2-12-9.4-24.4-18.2-36.4-27.5-14.6-11.4-29-23.1-43.6-34.5-14.1-10.9-28.3-21.6-42.6-32.7,18.8-7.2,38.3-9.8,58.7-7.5,2,2.4,3.4,4.5,5.2,6,4.4,3.5,9.1,6.6,13.5,10.1,9.7,7.7,19.3,15.5,29,23.2,16.2,12.8,32.4,25.7,48.7,38.4,5.2,4,10.7,7.6,16,11.4,6.2,17.6,8.3,35.6,6.7,54.6Z"/>
  <path class="st16" d="M813.1,227.5c-4.9-2.5-10-5.1-14.5-8.5-11.2-8.4-22.2-17.1-33.2-25.8-8.3-6.6-16.4-13.4-24.7-19.9-11.7-9.2-23.5-18.2-35.3-27.3-10.3-8-20.7-15.9-31-24-13.9-10.9-27.7-22-41.6-33-.7-.6-1.2-1.5-1.9-2.6,21.3-.4,42.7-.4,64.5,0,1.8,1.8,3,3.5,4.5,4.7,7.1,5.4,14.4,10.6,21.4,16.1,14.3,11.2,28.6,22.6,42.9,33.8,12.9,10.2,25.7,20.4,38.6,30.4,2.4,1.9,5.2,3.1,7.9,4.7.8,6.6,2,13.1,2.2,19.7.4,10.4.1,20.9,0,31.8Z"/>
  <path class="st8" d="M726.1,682.3c-10.3-12.2-24.3-19.4-36.2-29.3-15.4-12.8-31.1-25.1-46.9-37.5-10.3-8.1-20.9-15.7-31.2-23.7-13.2-10.2-26.1-20.7-39.3-30.8-7.2-5.5-14.6-10.7-22.4-16.1.5-15.4,5.2-29.6,12.2-43.6,3.7,1.9,6.9,3.9,9.9,6.2,12.5,9.8,24.8,19.8,37.4,29.4,4.9,3.8,10.4,6.8,15.7,10.6-.2,2.3-.4,4.1-.5,5.9-1.3,22.7,7.6,40.4,26.7,52.7,14.1,9.1,29.5,10.2,45.6,7,.6,1.1,1,2.1,1.7,2.7,8.2,6.4,16.5,12.7,24.7,19.1,9.6,7.6,19.2,15.1,28.7,22.8,2.5,2,4.6,4.6,6.8,6.9-10.9,5.9-21.7,11.7-32.9,17.7Z"/>
  <path class="st10" d="M275,103.9c9.3-4.1,18.7-8.2,28.6-12.1,12.9,9.8,25.3,19.1,37.5,28.8,9.5,7.5,18.6,15.4,28.1,22.9,10.3,8,21,15.6,31.3,23.6,15.6,12.1,31,24.3,46.4,36.5,5.8,4.6,11.4,9.6,17.4,14.1,2.6,1.9,5.8,3,8.7,4.4.4,12.6-2.4,24.6-6.7,36.8-8.7-6-16.8-12.3-24.9-18.6-9.9-7.7-19.8-15.5-29.9-23-4.6-3.4-9.6-6.1-14.6-9.5-4.2-17.8-13.3-31.8-29.8-39.6-7.2-3.4-15.4-4.7-23.2-7.3-.9-1.5-1.6-3-2.7-3.8-19.2-15.1-38.6-30.1-57.8-45.2-3-2.4-5.7-5.1-8.5-7.7Z"/>
  <path class="st8" d="M360.2,348.7c-58.7,8.2-114.8-22.2-139.3-75.9-6.1-13.3-10.1-27.2-10.6-42.3,1.7.2,3.1.7,4.2,1.6,6.2,4.9,12.3,10.1,18.6,15,14.8,11.4,29.7,22.7,44.4,34.1,11,8.5,21.8,17.2,32.8,25.8,13.9,10.9,27.9,21.8,41.7,32.9,3.1,2.5,5.5,5.9,8.2,8.9Z"/>
  <path class="st14" d="M473,221.5c-3-1-6.2-2-8.8-3.9-6-4.5-11.5-9.4-17.4-14.1-15.4-12.2-30.9-24.4-46.4-36.5-10.3-8-21-15.6-31.3-23.6-9.5-7.4-18.6-15.4-28.1-22.9-12.2-9.6-24.6-19-37.1-28.8,12.6-4.6,25.7-6.2,39.6-5.4.9,1.2,1.2,2.3,1.9,2.8,5.7,4.7,11.5,9.5,17.3,14.1,17,13.4,34,26.8,51,40.2,14.5,11.5,29,23,43.7,34.4,3.2,2.5,7,4.1,10.5,6.2,1.4,5.8,3.3,11.5,4.1,17.4.9,6.5.8,13.1,1,20.1Z"/>
  <path class="st3" d="M625.2,547.1c-5.2-3.3-10.7-6.4-15.7-10.1-12.6-9.6-24.9-19.6-37.4-29.4-3-2.3-6.2-4.3-9.7-6.5.6-2.2,1.5-4.3,2.5-6.7-34.2-36.1-68.6-72.2-103-109.1-1.2-1.5-2.2-2.3-3.3-3.1-4.4-4.5-8.8-9-13-13.8,2.6.9,5.1,1.8,7.2,3.4,12.4,9.6,24.8,19.2,37.1,28.9,12.7,10,25.4,20.2,38.1,30.2,11.5,9,23.1,17.6,34.6,26.6,14.2,11.1,28.2,22.5,42.3,33.7,11.6,9.1,23.2,18,34.7,27.4-7.4,8.5-11.8,18.2-14.7,28.6Z"/>
  <path class="st15" d="M360.7,348.6c-3.1-3-5.5-6.4-8.6-8.9-13.8-11.1-27.8-21.9-41.7-32.9-10.9-8.6-21.8-17.3-32.8-25.8-14.8-11.4-29.7-22.7-44.4-34.1-6.3-4.9-12.4-10-18.6-15-1.1-.9-2.5-1.4-4.2-2.1-.4-9.1-.3-18.1.1-27.6,2.4.7,4.6,1.6,6.4,3,15.5,12.1,30.9,24.3,46.4,36.4,11.7,9.2,23.5,18.2,35.1,27.4,10,7.8,19.9,15.8,30,23.6,8.2,6.4,16.6,12.6,24.9,18.9,10.4,8.1,20.9,16.2,31.1,24.6,1.4,1.1,1.8,3.6,2.7,5.4-8.6,2.3-17.3,4.6-26.3,6.9Z"/>
  <path class="st12" d="M575.5,87.8c6.4,5,12.3,10.3,18.5,15.2,12.6,9.9,25.3,19.7,37.9,29.5,9.6,7.5,19.3,14.9,28.9,22.5,1.9,1.5,3.4,3.5,5.1,5.6-27.2.4-54.5.8-81.8.3-14.5-.2-25.2-8-31.5-21-6.4-13.2-5-26.1,3.1-38.3,4.7-7,11.1-11.7,19.7-13.8Z"/>
  <path class="st19" d="M640,518.1c-11.6-9-23.3-18-34.9-27.1-14.2-11.2-28.2-22.5-42.3-33.7-11.4-9-23.1-17.7-34.6-26.6-12.8-10-25.4-20.1-38.1-30.2-12.3-9.7-24.7-19.4-37.1-28.9-2-1.6-4.6-2.5-7.3-3.7-11.2-11.3-22.1-22.5-32.8-33.9-2.2-2.3-4-3.2-7.3-1.1-11.2-9-21.6-18.2-32.4-26.8-13.5-10.9-27.4-21.3-40.7-32,5.8.2,11.2.5,16.7,1.1,5.6,4.2,11.3,8,16.6,12.1,17.2,13.5,34.1,27.3,51.4,40.7,15.9,12.4,32.2,24.4,48.1,36.8,9.2,7.1,18,14.6,27.1,21.8,8.3,6.6,16.8,12.8,25.1,19.4,10.8,8.5,21.3,17.4,32.2,25.8,12.6,9.7,25.5,18.9,38.1,28.6,15.3,11.8,30.6,23.8,45.6,36,5.6,4.5,10.5,9.8,15.6,15-3.1,2.5-6,4.6-8.9,6.8Z"/>
  <path class="st3" d="M332,274.1c13.7,10.6,27.6,21.1,41.1,32,10.8,8.7,21.2,17.8,32.1,26.9-5.6,3-11.5,5.8-17.8,8.6-1.2-1.8-1.6-4.2-3-5.3-10.3-8.3-20.7-16.5-31.1-24.6-8.2-6.4-16.6-12.6-24.9-18.9-10-7.8-20-15.8-30-23.6-11.7-9.2-23.5-18.2-35.1-27.4-15.5-12.1-30.9-24.3-46.4-36.4-1.8-1.4-3.9-2.3-6.3-3.4,1.6-8.9,3.7-17.7,6.3-26.8,7.3,4.7,14,9.4,20.5,14.5,12.3,9.5,24.4,19.3,36.7,28.8,3.5,2.7,7.3,5,11,7.9,2,9.1,4.9,17.3,10.2,24.6,9.1,12.7,21.7,19.8,36.7,23.2Z"/>
  <path class="st17" d="M448.4,687.9c-1.2-6.3-6.7-8.4-10.9-11.7-9.5-7.4-18.8-14.9-28.2-22.3-7.3-5.7-14.7-11.2-22.1-16.9-7.2-5.6-14.4-11.1-21.4-16.9-1.3-1.1-1.9-2.9-2.8-4.8,25.5-.4,50.9-.7,76.4-.3,14.7.3,28.3,12.3,32.5,27,4.3,15.2-1.5,32.2-14,40.8-2.9,2-6.1,3.4-9.5,5Z"/>
  <path class="st17" d="M284.7,557.6c-1.5,0-3.1,0-4.2-.7-6.8-4.8-13.7-9.7-20.2-14.8-7.2-5.7-14.1-11.8-21.3-17.5-6.7-5.3-13.7-10.2-20.5-15.3-1-.8-1.7-2-2.8-2.7-1.8-1.3-3.7-2.3-6-3.4-.4-13.9-.7-27.8-.4-41.8.1-4.3,2-8.6,3.6-12.9,4.4,3,8.3,6,12.2,9,14.5,11.2,28.8,22.4,43.4,33.4,5.1,3.8,10.7,6.8,16.1,10.2,0,18.7.1,37.4.1,56.5Z"/>
  <path class="st12" d="M738,218.5c3.4,1.8,6.8,3.9,10.1,6.3,8.2,6.1,16.4,12.2,24.4,18.6,11,8.7,21.7,17.6,32.7,26.3,2.2,1.7,4.8,2.9,7.5,4.4.4,13.7.6,27.4.3,41.1,0,3.9-1.6,7.7-2.9,11.5-12.4-9.1-24.5-18.1-36.4-27.4-10.4-8.1-20.7-16.6-31.1-24.7-1.2-.9-3.1-1-4.6-1.5,0-18,0-36,0-54.5Z"/>
  <path class="st9" d="M397.1,208c4.8,3,9.9,5.8,14.4,9.2,10.1,7.5,19.9,15.3,29.9,23,8.1,6.3,16.2,12.5,24.6,18.9-.8,3.5-1.6,7.2-3.3,10.3-2.4,4.2-1,6.7,2,9.8,23.7,24.7,47.2,49.5,70.9,74.5-2.8-1.2-6-2.3-8.5-4.3-13.5-10.4-26.8-21-40.2-31.5-13.6-10.7-27.1-21.6-40.8-32.3-11.7-9.2-23.5-18.3-35.3-27.4-6.1-4.7-12.4-9.3-18.7-14.6,4.9-11.8,6.8-23.5,5-35.7Z"/>
  <path class="st4" d="M468,183.6c-3.6-1.6-7.4-3.3-10.6-5.8-14.6-11.3-29.1-22.9-43.7-34.4-17-13.4-34-26.8-51-40.2-5.8-4.6-11.6-9.3-17.3-14.1-.7-.6-1-1.6-1.5-2.7,27.9-.2,52.9,8.6,75.1,25,23,17,39.2,39,47.9,66.4.5,1.7.8,3.5,1,5.7Z"/>
  <path class="st5" d="M738,273.5c1.6,0,3.5.1,4.7,1,10.4,8.2,20.6,16.6,31.1,24.7,11.9,9.2,23.9,18.2,36.1,27.6-4.6,13.3-18.1,22.8-32.5,23.2-16.3.4-30.7-8.2-36.2-22.3-1.9-4.8-3-10.2-3.1-15.4-.4-12.8-.1-25.6,0-38.9Z"/>
  <path class="st6" d="M284.7,500.6c-5.5-2.9-11.2-5.9-16.2-9.8-14.6-11-29-22.3-43.4-33.4-3.9-3-7.8-6-11.9-9.3,5.1-13.7,19.4-22.6,35.3-22.2,15.4.4,29.4,10.6,34.2,25.4,1.3,3.9,2,8.1,2.1,12.2.3,12.2,0,24.3,0,36.9Z"/>
  <path class="st19" d="M738.1,555c3.6,2.4,7.3,4.7,10.7,7.3,18.3,14.3,36.6,28.8,55.1,43.4-3.8,12.9-10.8,23.8-19.6,34-4.6-3.6-8.4-7.5-12.6-10.9-9.4-7.5-18.9-14.9-28.5-22.1-5.9-4.4-12-8.5-17.9-13.1,9.2-11.5,12.8-24.5,12.8-38.7Z"/>
  <path class="st13" d="M810.9,175.6c-2.7-1.2-5.5-2.4-7.9-4.3-12.9-10.1-25.8-20.3-38.6-30.4-14.3-11.3-28.5-22.6-42.9-33.8-7-5.5-14.3-10.7-21.4-16.1-1.5-1.2-2.7-2.8-4-4.6,53.2-3.2,103.4,34.7,114.9,89.2Z"/>
  <path class="st15" d="M725.2,594c6,4.2,12.2,8.3,18,12.7,9.6,7.2,19.1,14.6,28.5,22.1,4.2,3.4,8,7.3,12.3,11.1-7.9,8.3-16.2,16.4-24.7,24.6-2.6-2.2-4.6-4.7-7.1-6.8-9.5-7.7-19.1-15.3-28.7-22.8-8.2-6.4-16.5-12.7-24.7-19.1-.7-.6-1.1-1.5-1.5-2.9,11.2-4,20.4-10.1,27.9-18.9Z"/>
  <path class="st9" d="M274.6,104c3.2,2.5,5.9,5.3,8.9,7.7,19.2,15.1,38.6,30.1,57.8,45.2,1.1.9,1.8,2.3,2.2,3.9-5.2.9-10.2.7-14.6,2.1-7.2,2.4-14,5.9-20.9,8.6-.7-1.6-1.1-3.2-2.1-4.1-5.3-4.5-10.7-8.8-16.2-13.1-9.9-7.7-19.8-15.4-29.8-23-3.5-2.7-7.3-5-11-7.4,8.5-6.6,16.9-13.3,25.8-20Z"/>
  <path class="st0" d="M285,226c-3.6-2.5-7.4-4.8-10.9-7.5-12.3-9.5-24.4-19.3-36.7-28.8-6.5-5.1-13.3-9.8-20.3-14.7,3.7-8.8,7.8-17.6,12.4-26.6,2.1.4,3.8.8,5,1.8,18.6,14.3,37.1,28.6,55.6,43.3-4.9,10.6-5.8,21.5-5.1,32.6Z"/>
  <path class="st18" d="M290.1,193c-18.5-14.3-37.1-28.7-55.7-43-1.3-1-2.9-1.4-4.8-2,6-7.9,12.3-15.9,18.9-23.9,4,2.3,7.7,4.6,11.3,7.3,10,7.6,19.9,15.3,29.8,23,5.5,4.3,10.9,8.6,16.2,13.1,1,.9,1.4,2.5,1.9,4.3-2.3,2.2-4.7,3.4-6.2,5.4-4,5.1-7.6,10.6-11.4,15.9Z"/>
  <path class="st10" d="M806.2,515.5c-5.3-3.4-10.8-7-16-11-16.3-12.7-32.5-25.5-48.7-38.4-9.7-7.7-19.3-15.5-29-23.2-4.4-3.5-9.1-6.6-13.5-10.1-1.9-1.5-3.3-3.6-4.9-5.8,27.5,1.7,51.5,12.3,72.3,29.9,18.5,15.7,32.3,34.8,39.8,58.5Z"/>
  <path class="st9" d="M541.1,359.6c-3.1.5-4.9-.8-5-4.6,1.6,1.2,3.2,2.7,5,4.6Z"/>
  <path class="st19" d="M458.9,382.4c.9.5,2,1.3,3,2.5-1-.5-1.9-1.4-3-2.5Z"/>
  <path class="st0" d="M649.1,511c-5.2-4.9-10.2-10.2-15.8-14.8-15.1-12.2-30.3-24.2-45.6-36-12.6-9.7-25.5-18.9-38.1-28.6-10.9-8.4-21.4-17.2-32.2-25.8-8.3-6.6-16.8-12.8-25.1-19.4-9.1-7.2-17.9-14.7-27.1-21.8-16-12.4-32.2-24.4-48.1-36.8-17.2-13.4-34.2-27.2-51.4-40.7-5.3-4.2-11-7.9-16.4-12.4,11.1-2.4,20.5-7.5,29.3-14,4.6,2.7,9.6,5,13.8,8.3,19.5,15.1,38.6,30.6,58,45.8,11.2,8.7,22.9,16.9,34.1,25.5,6.4,4.9,12.5,10.4,18.8,15.5,8.5,6.9,17,13.7,25.6,20.4,16,12.5,32.2,25,48.3,37.4,6,4.6,12.3,8.9,18.3,13.6,23.1,18.2,46.1,36.5,69.2,54.7,5.6,4.4,11.5,8.4,17,12.9,1.8,1.4,2.8,3.8,3.7,6.2-13.5-.5-25.3,3.2-36.4,9.9Z"/>
</svg>