<?xml version="1.0" encoding="UTF-8"?>
<svg id="Layer_1" xmlns="http://www.w3.org/2000/svg" version="1.1" viewBox="0 0 1024 748">
  <!-- Generator: Adobe Illustrator 29.5.0, SVG Export Plug-In . SVG Version: 2.1.0 Build 137)  -->
  <defs>
    <style>
      .st0 {
        fill: #ff7481;
      }

      .st1 {
        fill: #ff5c6c;
      }

      .st2 {
        fill: #ff989d;
      }

      .st3 {
        fill: #f93840;
      }

      .st4 {
        fill: #fc404e;
      }

      .st5 {
        fill: #ff6675;
      }

      .st6 {
        fill: #ff7a85;
      }

      .st7 {
        fill: #f8373a;
      }

      .st8 {
        fill: #ff8b93;
      }

      .st9 {
        fill: #fe4c5d;
      }

      .st10 {
        fill: #ff5868;
      }

      .st11 {
        fill: #ff6170;
      }

      .st12 {
        fill: #ff848d;
      }

      .st13 {
        fill: #fd4959;
      }

      .st14 {
        fill: #ff707d;
      }

      .st15 {
        fill: #fa3b48;
      }

      .st16 {
        fill: #ff939a;
      }

      .st17 {
        fill: #ff7e88;
      }

      .st18 {
        fill: #fd4454;
      }

      .st19 {
        fill: #fe5061;
      }

      .st20 {
        fill: #ff6b79;
      }
    </style>
  </defs>
  <path class="st15" d="M407,582.7c-38.9-.2-78,1.3-116.8-1.1-46.3-2.8-86-38.6-97-83.7-2.4-9.6-3.4-19.7-3.8-29.6-.6-15.8-.1-31.6.3-47.9,6.9,4.2,13.5,8.8,19.9,13.7,6.1,4.6,11.9,9.4,17.9,14.1,6,4.6,12,9.3,18,13.8,6.5,4.8,13.1,9.3,19.8,14.3,1.8,15.7,18.7,31.7,35.7,30.8,5.3-.3,10.6.1,16,.6,1,2,1.7,4.1,3.1,5.2,11.9,9.3,23.9,18.2,35.8,27.5,7.1,5.6,13.8,11.8,20.9,17.4,9.5,7.5,19.2,14.6,28.7,22,.8.6,1,1.9,1.5,2.9Z"/>
  <path class="st19" d="M189.5,228c0-16.4-.1-32.7.2-49.5,1.7,0,3.1.1,4,.9,21.1,16.3,42.1,32.7,63.2,48.9,2.2,1.7,5.2,2.5,7.9,4.2.2,5.9-.3,11.5.7,16.8,3.6,19.4,18.7,31.1,39.6,31.4,11.6.1,23.2.2,34.9.6,1.1,1.8,2,3.4,3.4,4.6,7.7,6.4,15.5,12.8,23.4,19.1,12.8,10.1,25.7,20.1,38.6,30,3.8,2.9,7.8,5.6,11.4,8.7,4.5,3.9,8.8,8.2,12.6,12.4-25.5,0-50.5,0-75.6-.4-1.3-1.8-2.4-3.6-3.9-4.8-6.2-4.9-12.6-9.5-19-14.3-4.2-3.2-8.5-6.3-12.6-9.5-9.6-7.6-19-15.4-28.6-23-12.7-10.1-25.6-20-38.4-29.9-13.2-10.2-26.4-20.5-39.6-30.7-2.4-1.9-4.5-4.4-7.2-5.9-5.2-3-8.4-9.2-15.3-9.5Z"/>
  <path class="st16" d="M869,177c0,14.4,0,28.7-.3,43.5-1.4,0-2.6-.3-3.5-.9-8.8-6.9-17.7-13.8-26.4-20.7-10.3-8.2-20.5-16.5-31-24.5-4.2-3.2-9.1-5.6-13.8-8.8-1.1-4.6-1.5-9-3.2-12.9-7.2-16.7-20.8-23.2-38.2-23.5-9.5-.1-19-.1-28.5-.5-3-3.4-5.6-7-8.9-9.6-12.7-9.9-25.8-19.4-38.5-29.2-12.2-9.4-24.3-18.8-36.2-28.5-2.5-2-4.2-4.9-6.3-7.4,25.7,0,51.4,0,77.6.3,1.3,1.4,2,2.6,3,3.4,12.3,9.5,24.8,18.8,37,28.4,17,13.4,33.7,27,50.7,40.4,15.5,12.1,31.1,24,46.8,36,6.5,5,13.3,9.7,19.9,14.5Z"/>
  <path class="st7" d="M362,695.9c-19.1,0-38.3.2-57.4.2-25.5,0-50.9,0-76.4,0-21,0-36-13.5-38.7-34.2-2.6-19.9,14.1-40.2,34.2-40.9,14.8-.5,29.6-.2,44.9.2,1.6,1.6,2.7,2.8,4,3.8,8.4,6.4,16.8,12.7,25.1,19.2,6,4.7,11.6,9.8,17.6,14.3,8.2,6.3,16.8,12.1,25,18.4,4.8,3.7,9.3,7.8,13.9,11.7,2.7,2.3,5.3,4.8,7.9,7.2Z"/>
  <path class="st10" d="M800,573.7c-14,6.4-28.9,8.9-44.1,9.1-13.6.2-27.3,0-41.4-.4-2.3-2.7-3.8-5.4-6-7.1-13.6-10.7-27.5-21-41.2-31.7-13.7-10.7-27.2-21.6-40.7-32.5-1.1-.9-1.7-2.5-2.1-3.9,13.4-.1,26.4-.2,39.3-.1,19.7,0,39.5.2,59.2.6.4,1.6.5,3.2,1.4,3.9,5.8,4.9,11.7,9.7,17.7,14.3,7.1,5.4,14.3,10.6,21.4,16,8.6,6.6,17.3,13.2,25.7,20.2,4,3.4,7.3,7.7,10.8,11.5Z"/>
  <path class="st2" d="M869,176.5c-6.7-4.4-13.5-9.1-20-14.1-15.6-11.9-31.3-23.8-46.8-36-17-13.3-33.7-27-50.7-40.4-12.2-9.6-24.7-18.9-37-28.4-1-.8-1.7-2-2.5-3.3,17.8-.3,35.7-1.5,53.3,0,33.7,2.8,61,18.4,81.5,45.4,17.1,22.6,23.5,48.3,22.2,76.7Z"/>
  <path class="st15" d="M542,695.9c-30,0-60.1.1-90.6-.3-6.7-5.6-12.3-11.4-19.2-15.9-10.8-7-20.6-15.7-30.7-23.8-5.8-4.6-11.2-9.6-17-14.1-5.3-4.2-11.2-7.7-16.3-12-2.8-2.4-4.8-5.9-7.1-8.8,20.2,0,40.5-.2,60.7-.2,9.5,0,18.9,0,28.9.5,1.3,1.5,1.8,2.8,2.8,3.6,8.6,7,17.2,13.9,25.9,20.7,12.8,10,25.7,19.8,38.5,29.8,7.4,5.8,14.7,11.7,22,17.6.9.8,1.5,2,2.2,3Z"/>
  <path class="st19" d="M624,507.4c.8,1.3,1.4,2.9,2.5,3.8,13.5,10.9,27,21.8,40.7,32.5,13.6,10.7,27.5,21,41.2,31.7,2.2,1.7,3.7,4.4,5.6,7-29.7.4-59.4.5-89.5,0-1.2-1.6-1.7-3.2-2.8-4-18.2-14.5-36.5-29-54.8-43.5-9.7-7.7-19.6-15.2-29.3-23-1.3-1-1.8-3-2.1-4.6,29.8,0,59.2,0,88.5,0Z"/>
  <path class="st3" d="M360.5,620.9c2.8,3.1,4.7,6.6,7.6,8.9,5.2,4.3,11,7.8,16.3,12,5.8,4.5,11.3,9.5,17,14.1,10.1,8.1,19.9,16.8,30.7,23.8,7,4.5,12.5,10.3,18.8,15.8-29.3.4-58.7.5-88.5.4-3.1-2.5-5.7-4.9-8.3-7.3-4.6-4-9.1-8.1-13.9-11.7-8.2-6.3-16.8-12.1-25-18.4-6-4.6-11.6-9.7-17.6-14.3-8.3-6.5-16.8-12.8-25.1-19.2-1.3-1-2.3-2.2-3.5-3.7,19.2-.4,38.4-.5,57.7-.6,11.1,0,22.2,0,33.8.1Z"/>
  <path class="st6" d="M867,373c.7,10.9,1.5,21.7,2.1,32.6.2,4.1,0,8.3-.4,12.9-4.6-2.5-8.9-5.1-12.9-8.3-12.1-9.5-24.1-19.3-36.2-28.9-6.3-5-12.9-9.7-19.3-14.7-9.8-7.7-19.3-15.6-29.1-23.2-12.7-9.8-25.5-19.4-38.2-29.1-10.1-7.8-20.2-15.5-30.1-23.6-3.6-2.9-6.6-6.6-9.4-10,19.5,0,38.5,0,57.6.4,1.7,2.1,3.1,4.2,5,5.7,9.5,7.3,19.3,14.3,28.8,21.7,8.6,6.7,16.9,13.7,25.4,20.5,12.2,9.8,24.4,19.7,36.8,29.4,6.5,5.1,13.3,9.7,19.9,14.5Z"/>
  <path class="st13" d="M535,507.4c.8,1.5,1.3,3.5,2.6,4.5,9.7,7.8,19.5,15.3,29.3,23,18.3,14.5,36.6,28.9,54.8,43.5,1.1.8,1.6,2.4,2.3,3.9-26.3.4-52.7.5-79.5,0-1.5-2.3-2.1-4.6-3.6-5.8-6.7-5.3-13.6-10.3-20.4-15.4-7.3-5.4-14.6-10.7-21.8-16.2-13.6-10.5-27.1-21-40.5-31.7-1.8-1.4-2.7-3.9-3.6-6,27.2,0,53.8,0,80.5,0Z"/>
  <path class="st4" d="M542.5,696c-1.2-1.1-1.8-2.3-2.7-3.1-7.3-5.9-14.6-11.8-22-17.6-12.8-10-25.7-19.8-38.5-29.8-8.7-6.8-17.3-13.8-25.9-20.7-1-.8-1.6-2.1-2.4-3.5,26-.4,52-.5,78.5,0,1.5,2.1,2.3,4.1,3.7,5.2,10.2,8.1,20.5,16.1,30.8,24,4.6,3.5,9.2,7,13.8,10.4,5.3,4,10.7,7.8,15.9,11.8,7,5.4,14.1,10.9,20.9,16.7,1.9,1.6,3,4.3,4.4,6.5-25.4,0-50.7.1-76.5,0Z"/>
  <path class="st0" d="M693,280.9c3.3,3.3,6.3,7,9.9,10,9.9,8,20,15.8,30.1,23.6,12.7,9.8,25.5,19.3,38.2,29.1,9.8,7.6,19.3,15.5,29.1,23.2,6.4,5,13,9.7,19.3,14.7,12.1,9.6,24.1,19.3,36.2,28.9,4,3.1,8.3,5.8,12.8,8.7.4,11.1.4,22.1,0,33.5-1.7-.3-3.2-.8-4.3-1.7-13-10-25.9-20-38.9-30.1-9-7-18-14-27-20.9-1.2-.9-3-1.2-4.5-2.2-.3-19.5-8.6-33.3-24.8-38.7-7.2-2.4-15.4-2.1-23.1-3.3-8.6-7.2-17.1-14.2-25.8-21-8.7-6.8-17.6-13.5-26.4-20.3-10.2-7.9-20.5-15.7-30.5-23.8-3.4-2.8-6.2-6.4-8.8-9.7,13.2,0,25.8,0,38.5,0Z"/>
  <path class="st4" d="M407.5,582.8c-.9-1.1-1.2-2.4-1.9-2.9-9.5-7.4-19.3-14.5-28.7-22-7.1-5.6-13.8-11.8-20.9-17.4-11.8-9.3-23.9-18.3-35.8-27.5-1.4-1.1-2.1-3.2-2.6-5.3,23.5-.4,46.5-.3,69.5.1,1.1,6.6,6.5,8.4,10.8,11.7,12.2,9.2,23.9,18.9,35.9,28.3,12.8,10,25.9,19.9,38.7,30,1.3,1.1,1.8,3.3,2.7,4.9-22.4,0-44.7.1-67.5,0Z"/>
  <path class="st9" d="M189.4,228.5c7-.2,10.2,6,15.4,9,2.6,1.5,4.7,4,7.2,5.9,13.2,10.3,26.4,20.5,39.6,30.7,12.8,10,25.6,19.9,38.4,29.9,9.6,7.6,19,15.3,28.6,23,4.1,3.3,8.4,6.4,12.6,9.5,6.3,4.7,12.7,9.4,19,14.3,1.5,1.2,2.6,3,3.4,4.9-15.4.4-30.5.3-45.5,0-4.4-4.1-8.6-8-13.1-11.5-9.2-7.2-18.5-14.2-27.8-21.4-9.8-7.5-19.6-15.1-29.3-22.7-10.6-8.4-21.1-17-31.8-25.3-4.5-3.5-9.4-6.4-14.2-9.6-.9-12-1.7-24.1-2.5-36.6Z"/>
  <path class="st18" d="M475.5,582.8c-1.3-1.8-1.8-4-3.1-5-12.8-10.1-25.8-19.9-38.7-30-12-9.4-23.8-19.1-35.9-28.3-4.3-3.3-9.7-5.1-10.3-11.8,22.5-.4,44.5-.3,66.5-.3,1.3,2,2.3,4.5,4,5.9,13.4,10.7,27,21.2,40.5,31.7,7.2,5.5,14.5,10.8,21.8,16.2,6.8,5.1,13.8,10.1,20.4,15.4,1.5,1.2,2.1,3.6,3.2,5.7-22.7.4-45.4.5-68.5.4Z"/>
  <path class="st19" d="M706,621c23,0,46-.1,69.6.3,6.8,5.9,13,11.5,19.5,16.8,7.3,5.9,15,11.4,22.4,17.2,9.4,7.4,18.7,15,27.9,22.6,3.6,2.9,7,6.1,10.5,9.1-6.6,5.9-14.3,9-23.1,9.1-11.6.2-23.3,0-35.4-.4-2.4-2.5-4.1-4.8-6.2-6.5-11.8-9.4-23.6-18.6-35.5-27.9-8.6-6.7-17.1-13.5-25.7-20.2-6.4-5-12.9-9.8-19.2-14.8-1.8-1.5-3.2-3.5-4.8-5.3Z"/>
  <path class="st11" d="M800.3,573.7c-3.9-3.8-7.2-8.1-11.2-11.5-8.3-7-17-13.6-25.7-20.2-7.1-5.4-14.3-10.6-21.4-16-6-4.6-11.9-9.4-17.7-14.3-.8-.7-.9-2.3-.9-4,9.3-.5,18.1-.9,26.9-.4,15.7.9,28.3-4.5,37.8-17,7.6,5.8,15.1,11.3,22.4,16.9,7.3,5.6,14.7,11.2,21.7,17.1,4.9,4.1,9.3,8.7,13.9,13.1-12,16-27,28.4-45.9,36.3Z"/>
  <path class="st17" d="M455,54.1c21,0,42,0,63.6.3,3.6,3.1,6.6,5.9,9.8,8.4,12.4,10.1,24.8,20.2,37.4,30,14.1,10.9,28.4,21.5,42.5,32.4,1,.7,1.2,2.5,1.3,3.8-21.5,0-42.5,0-63.6-.4-5.9-5.4-11.5-10.6-17.6-15.4-11.1-8.8-22.5-17.4-33.7-26.1-9.8-7.6-19.6-15.2-29.2-23-3.8-3.1-7-6.7-10.5-10.1Z"/>
  <path class="st18" d="M619.5,696c-1.9-2.3-2.9-5-4.9-6.6-6.8-5.8-13.8-11.2-20.9-16.7-5.2-4-10.6-7.9-15.9-11.8-4.6-3.4-9.2-6.9-13.8-10.4-10.3-8-20.6-15.9-30.8-24-1.4-1.1-2.2-3.1-3.2-5.1,20-.4,40-.5,60.6-.1,1.5,1.7,2.3,3.2,3.6,4.2,6.5,5.2,13.1,10.4,19.7,15.5,14,10.8,28,21.6,42.1,32.4,6.4,4.9,13,9.6,19.3,14.6,2.9,2.3,5.2,5.3,7.8,8-21,0-42,.1-63.5,0Z"/>
  <path class="st9" d="M705.5,620.9c2.1,1.9,3.4,3.9,5.3,5.4,6.3,5,12.9,9.8,19.2,14.8,8.6,6.7,17.1,13.5,25.7,20.2,11.8,9.3,23.7,18.5,35.5,27.9,2.2,1.7,3.8,4,5.8,6.4-19.7.4-39.3.5-59.5,0-1.8-1.8-3-3.4-4.5-4.7-5.5-4.5-11.1-8.9-16.7-13.3-11.3-8.9-22.6-17.8-34-26.6-10.2-7.8-20.6-15.4-30.7-23.3-2.2-1.7-3.7-4.5-5.5-6.8,19.7,0,39.4-.1,59.5,0Z"/>
  <path class="st0" d="M361,54.1c19.7,0,39.4,0,59.6.3,3.6,3.1,6.5,5.9,9.7,8.4,11.6,9.2,23.3,18.3,35,27.4,12.5,9.7,25.1,19.4,37.5,29.3,3.6,2.9,6.8,6.4,9.7,9.7-20.2,0-39.8,0-59.6-.4-.7-1.3-1.2-2.4-2-3.1-7.6-5.8-15.4-11.3-23-17.2-10.6-8.3-20.9-17-31.5-25.4-9.1-7.2-18.4-14-27.5-21.1-2.9-2.3-5.3-5.2-7.9-7.8Z"/>
  <path class="st12" d="M866,268c-3.3,16.4-10.3,31-20.6,44.1-1.2,1.6-2.5,3.1-4.4,4.6-7.4-5.4-14.2-10.9-21-16.2-12.8-9.9-25.6-19.8-38.2-30,9-9.7,12.6-20.9,12.1-33.8-.3-7.6,0-15.2.5-22.8,1.4.5,2.6.7,3.4,1.4,8.5,6.5,17.1,13,25.6,19.6,14.2,11,28.4,22,42.7,33.1Z"/>
  <path class="st8" d="M633.5,54c2.5,2.5,4.3,5.5,6.8,7.5,12,9.6,24.1,19.1,36.2,28.5,12.8,9.8,25.8,19.3,38.5,29.2,3.3,2.6,5.9,6.1,8.4,9.6-19.5.4-38.5.3-57.5,0-.6-1.4-1-2.8-1.9-3.6-3-2.4-6.2-4.4-9.2-6.8-7.7-6.1-15.2-12.3-22.8-18.3-8.4-6.7-16.9-13.3-25.4-19.9-8.1-6.3-16.3-12.4-24.4-18.7-2.9-2.3-5.5-4.9-8.2-7.4,19.7,0,39.4,0,59.5,0Z"/>
  <path class="st10" d="M264.8,232c-2.6-1.2-5.6-2-7.8-3.7-21.1-16.2-42.1-32.6-63.2-48.9-1-.7-2.4-.9-3.9-1.3-1.5-18.1.6-35.7,8.1-52.7,3.3,1.5,6.1,2.9,8.6,4.8,14.2,11,28.2,22.2,42.4,33.1,5.1,3.9,10.6,7.2,15.9,11.2,0,19.5,0,38.5,0,57.5Z"/>
  <path class="st12" d="M573.5,54c3.2,2.5,5.8,5.2,8.7,7.5,8.1,6.3,16.3,12.4,24.4,18.7,8.5,6.6,17,13.2,25.4,19.9,7.6,6.1,15.2,12.3,22.8,18.3,3,2.4,6.2,4.4,9.2,6.8.9.7,1.3,2.1,1.5,3.6-18.8.4-37.2.4-55.5.3-.6-1.3-.8-3-1.7-3.8-14.1-10.9-28.4-21.5-42.5-32.4-12.6-9.8-25-20-37.4-30-3.2-2.6-6.2-5.3-9.3-8.4,18-.4,36-.4,54.5-.4Z"/>
  <path class="st20" d="M274,57.9c7.6-1.3,15.2-3.3,22.8-3.8,10.1-.7,20.2-.2,30.8.2,1.9,2.4,3,4.7,4.8,6.2,9.8,7.8,19.9,15.4,29.8,23.1,14.9,11.7,29.9,23.4,44.7,35.3,3.9,3.1,7.5,6.7,10.7,10.1-18.8,0-37.2,0-55.6-.4-2.1-2.7-3.9-5.3-6.3-7.2-7.5-5.9-15.4-11.5-22.9-17.4-10.4-8.1-20.5-16.6-30.9-24.7-9.2-7.2-18.5-14.3-27.8-21.4Z"/>
  <path class="st13" d="M645.5,620.9c2.3,2.4,3.7,5.2,5.9,6.9,10.1,7.9,20.5,15.5,30.7,23.3,11.4,8.8,22.7,17.7,34,26.6,5.6,4.4,11.2,8.8,16.7,13.3,1.5,1.2,2.7,2.8,4.1,4.6-17.7.4-35.3.5-53.5.4-3-2.8-5.3-5.8-8.2-8.1-6.3-5.1-12.9-9.7-19.3-14.6-14-10.8-28.1-21.6-42.1-32.4-6.6-5.1-13.2-10.2-19.7-15.5-1.2-1-2.1-2.5-3.1-4.1,18-.4,36-.5,54.5-.4Z"/>
  <path class="st13" d="M191.9,265.4c4.8,2.8,9.7,5.7,14.2,9.2,10.7,8.3,21.2,16.9,31.8,25.3,9.7,7.6,19.5,15.2,29.3,22.7,9.2,7.1,18.6,14.1,27.8,21.4,4.5,3.5,8.7,7.5,12.6,11.6-5.5,1-10.6,1.4-15.6,2.2-10.1,1.6-15.8,9-22,16.2-3.6-2.6-6.9-5.1-10.1-7.7-13-10.3-25.8-20.7-38.9-30.8-3.3-2.5-7.5-3.8-11.3-5.7,2.7-3.8,5.4-7.5,8.5-11.8-13.1-15-22.4-32.3-26.2-52.7Z"/>
  <path class="st5" d="M273.6,57.9c9.7,7.1,19,14.2,28.2,21.4,10.4,8.2,20.5,16.6,30.9,24.7,7.5,5.9,15.4,11.4,22.9,17.4,2.4,1.9,4.2,4.6,5.9,7.3-20.8.5-41.1.5-61.5.2-1.1-1.6-2-3-3.2-4-6.9-5.6-13.9-11.1-20.9-16.5-13.7-10.6-27.4-21.1-41.2-31.6,11.4-9.3,24.3-15.4,38.8-18.9Z"/>
  <path class="st18" d="M209.3,330.1c4,1.6,8.2,2.9,11.5,5.4,13.1,10,26,20.5,38.9,30.8,3.2,2.6,6.5,5,10.1,8-3.3,7-5,13.9-4.9,21.4.2,10.4,0,20.9-.5,31.3-1.4-.4-2.7-.5-3.6-1.2-7.8-6.2-15.6-12.5-23.4-18.9-11-9-21.9-18.1-33.1-26.8-3.9-3-8.6-4.8-12.9-7.2,2.8-15.5,8.5-29.7,17.8-42.8Z"/>
  <path class="st4" d="M191.3,373.2c4.5,2,9.2,3.9,13.1,6.9,11.2,8.7,22.1,17.9,33.1,26.8,7.8,6.3,15.6,12.6,23.4,18.9.9.7,2.1.8,3.6,1.7.5,16.5.6,32.5.6,48.5-6.5-4.7-13.1-9.2-19.6-14-6.1-4.5-12.1-9.1-18-13.8-6-4.7-11.8-9.5-17.9-14.1-6.4-4.8-13-9.4-19.8-14.1.2-15.5.8-31,1.5-46.8Z"/>
  <path class="st14" d="M794,398c1.5.6,3.2.9,4.5,1.8,9.1,6.9,18,13.9,27,20.9,12.9,10,25.9,20.1,38.9,30.1,1.2.9,2.6,1.4,4.2,2.2.7,15.6,1.4,31.2-4,46.6-2.2-1.2-4-2.7-5.8-4.1-17.9-13.6-35.7-27.2-53.7-40.7-3.5-2.6-7.4-4.6-11.3-7.3,0-16.8,0-33.2,0-49.5Z"/>
  <path class="st8" d="M866.3,267.7c-14.5-10.7-28.7-21.8-42.9-32.8-8.5-6.6-17-13.1-25.6-19.6-.9-.7-2-.9-3.5-1.8-.4-16.2-.4-31.9-.3-47.5,4.6,2.8,9.5,5.1,13.7,8.4,10.5,8,20.7,16.3,31,24.5,8.8,6.9,17.6,13.9,26.4,20.7.9.7,2,.9,3.4,1.4.3,15.5,1.7,31.1-2.3,46.7Z"/>
  <path class="st17" d="M781.7,270.9c12.8,9.9,25.6,19.7,38.3,29.7,6.9,5.3,13.6,10.8,20.7,16.3,1,1.7,1.4,3.5,2.5,4.8,12.1,14.9,20.3,31.5,23.8,50.9-6.7-4.4-13.5-9-19.9-14.1-12.4-9.7-24.6-19.5-36.8-29.4-8.5-6.8-16.8-13.8-25.4-20.5-9.5-7.4-19.3-14.4-28.8-21.7-1.9-1.5-3.3-3.5-4.6-5.8,11.5-.3,21.5-3.3,30.2-10.3Z"/>
  <path class="st10" d="M856.3,686.8c-3.8-2.9-7.2-6.1-10.8-9-9.3-7.6-18.6-15.2-27.9-22.6-7.4-5.8-15.1-11.3-22.4-17.2-6.5-5.2-12.7-10.9-19.1-16.7,20.1-.3,40.3-1.1,60.3,0,13.4.7,23.3,8.7,29,20.8,6.1,12.8,5.1,25.5-2.7,37.5-1.7,2.6-4.1,4.8-6.5,7.3Z"/>
  <path class="st5" d="M794,448c3.7,2.3,7.7,4.2,11.2,6.8,18,13.5,35.8,27.1,53.7,40.7,1.8,1.4,3.5,2.9,5.6,4.5-3.1,13.6-9.1,26-18,37.2-4.9-4.2-9.3-8.8-14.2-12.9-7.1-5.9-14.4-11.5-21.7-17.1-7.3-5.6-14.8-11.1-22.3-17.2,1.6-5.6,4.2-10.5,4.8-15.6,1-8.7.7-17.5.9-26.3Z"/>
  <path class="st11" d="M234.5,77c14,10.4,27.8,20.9,41.5,31.5,7,5.4,14,10.9,20.9,16.5,1.2,1,2.1,2.4,2.8,4.2-12.9,1.4-22.1,8.1-29.6,17.9-6.3-5.1-12.1-10.1-18.1-15-7.5-6.1-15-12.3-22.8-18.2-5.9-4.5-12.1-8.5-18.1-12.8,6.3-9.3,13.8-17.4,23.4-24.1Z"/>
  <path class="st14" d="M418,129c-3.7-3.4-7.3-6.9-11.2-10.1-14.8-11.9-29.8-23.6-44.7-35.3-9.9-7.8-19.9-15.3-29.8-23.1-1.8-1.5-2.9-3.8-4.4-6.1,10.7-.4,21.4-.5,32.5-.4,3.1,2.7,5.5,5.6,8.4,7.9,9.1,7.2,18.4,14,27.5,21.1,10.6,8.4,20.9,17,31.5,25.4,7.5,5.9,15.3,11.4,23,17.2.9.7,1.4,1.8,1.6,3.2-11.8.4-23.1.3-34.5.3Z"/>
  <path class="st6" d="M513,129c-3.4-3.2-6.6-6.7-10.2-9.6-12.4-9.9-25-19.5-37.5-29.3-11.7-9.1-23.4-18.2-35-27.4-3.2-2.5-6.1-5.3-9.3-8.3,11-.4,22-.4,33.5-.4,4,3.5,7.2,7.1,11,10.2,9.6,7.8,19.4,15.4,29.2,23,11.2,8.7,22.6,17.3,33.7,26.1,6,4.8,11.7,10,17.1,15.5-11.1.4-21.8.3-32.5.3Z"/>
  <path class="st1" d="M210.8,101.2c6.3,4.1,12.5,8.1,18.4,12.6,7.7,5.9,15.2,12.1,22.8,18.2,6,4.9,11.8,9.9,18,15.3-.9,2.8-2.5,5.1-2.9,7.5-1,6.3-1.6,12.7-2.3,19.1-5.3-3.6-10.8-6.9-15.9-10.8-14.2-10.9-28.2-22.1-42.4-33.1-2.5-1.9-5.3-3.3-8.3-5.1,3.9-8,8.1-15.8,12.6-23.9Z"/>
  <path class="st10" d="M340,281.3c24.3-.4,48.7-.5,73.5,0,3.1,2.9,5.6,5.5,8.4,7.7,8.4,6.7,16.9,13.1,25.3,19.8,8.2,6.6,16.1,13.5,24.4,20,9.6,7.5,19.6,14.5,29.2,21.9,1.5,1.2,2.1,3.5,3.1,5.2-24.4,0-48.7.1-73.5,0-4.8-4.2-9-8.5-13.6-12.4-3.6-3.1-7.6-5.7-11.4-8.7-12.9-10-25.8-20-38.6-30-7.9-6.2-15.7-12.6-23.4-19.1-1.3-1.1-2.2-2.8-3.4-4.6Z"/>
  <path class="st14" d="M607,280.9c15.4,0,30.7,0,46.5,0,3.5,3.3,6.3,6.9,9.8,9.6,10,8.1,20.3,15.9,30.5,23.8,8.8,6.8,17.6,13.4,26.4,20.3,8.7,6.8,17.2,13.8,25.8,21-15.6.4-31.3.4-47.5,0-12.4-9.9-24.2-19.4-36.1-28.8-16.2-12.8-32.6-25.4-48.8-38.2-2.6-2-4.3-5.1-6.4-7.7Z"/>
  <path class="st5" d="M489,280.9c25,0,50,0,75.6.3,9.5,8.1,18.4,15.8,27.5,23.3,4.8,4,10.1,7.3,15.1,11.2,6.4,5,12.5,10.3,18.8,15.3,8.3,6.6,16.7,12.9,24.9,19.6,1.7,1.4,2.8,3.6,4.1,5.4-24.4,0-48.7.1-73.6-.3-.8-1-1-1.7-1.5-2.1-16.4-13.1-32.7-26.2-49.3-39.1-13.1-10.2-26.6-20.1-39.8-30.2-.9-.7-1.3-2.2-1.9-3.3Z"/>
  <path class="st20" d="M655.5,355.9c-1.8-1.9-2.9-4.1-4.6-5.4-8.2-6.6-16.7-13-24.9-19.6-6.3-5-12.5-10.3-18.8-15.3-4.9-3.9-10.2-7.2-15.1-11.2-9.1-7.5-18-15.2-27-23.2,13.7-.4,27.3-.4,41.5-.4,2.6,2.6,4.3,5.7,6.9,7.7,16.2,12.9,32.6,25.4,48.8,38.2,11.9,9.4,23.8,19,35.7,28.8-14,.4-28,.4-42.5.4Z"/>
  <path class="st18" d="M375.1,445.1c-7.7,24.7-41.6,32.6-60.5,14.1-16.8-16.5-15.7-42,3.2-57.2,4.6,2.5,8.6,4.6,12.2,7.5,15.1,11.8,30,23.7,45,35.6Z"/>
  <path class="st11" d="M488.5,280.8c1.1,1.2,1.4,2.7,2.3,3.4,13.2,10.1,26.6,20,39.8,30.2,16.5,12.9,32.9,26,49.3,39.1.5.4.7,1.1,1,2-12.7.4-25.3.4-38.5,0-6.1-5-11.6-9.6-17.3-14.1-9.9-7.7-20-15.2-29.9-22.9-13.6-10.5-27.1-21.1-40.4-31.9-1.7-1.4-2.6-3.9-3.8-5.9,12.4,0,24.7-.1,37.5,0Z"/>
  <path class="st1" d="M450.5,280.8c1.7,2.1,2.5,4.6,4.3,6,13.4,10.8,26.9,21.4,40.4,31.9,9.9,7.7,20,15.2,29.9,22.9,5.7,4.4,11.2,9.1,16.8,14-12.3.4-24.7.4-37.5.4-1.5-1.8-2.1-4.2-3.6-5.3-9.6-7.4-19.6-14.4-29.2-21.9-8.3-6.4-16.2-13.4-24.4-20-8.4-6.7-16.9-13.1-25.3-19.8-2.8-2.2-5.3-4.9-7.9-7.7,12-.4,24-.5,36.5-.4Z"/>
  <path class="st9" d="M486.2,450.1c-7.5,13.1-23.8,22.1-40.3,18.7-15.9-3.2-28.6-17.3-29.9-32.8-1-11.6,2.1-21.7,10.6-30.1,4.8,3.5,9.1,6.7,13.4,10.1,9.3,7.3,18.3,15,27.7,22.1,5.9,4.4,12.3,8,18.5,12Z"/>
  <path class="st19" d="M486.5,449.8c-6.5-3.8-12.9-7.4-18.8-11.8-9.4-7.1-18.5-14.7-27.7-22.1-4.3-3.4-8.6-6.6-13.1-10.3,9.9-10.7,22.2-13.9,35.8-10.5,14,3.4,23.2,12.6,27.2,26.4,2.7,9.6,1.6,19.1-3.4,28.2Z"/>
  <path class="st13" d="M375.3,444.9c-15.3-11.6-30.2-23.6-45.3-35.4-3.6-2.8-7.7-5-11.9-7.5,12-10.1,29.6-10.7,43.7-1.5,12.7,8.2,19,26.1,14.8,41.3-.3,1-.6,1.9-1.2,3.1Z"/>
  <path class="st1" d="M372.4,224.2c-7.2,12.9-18.7,18.9-33,18.4-15.8-.5-27.7-8.4-33.7-23.2-6-14.7-3.4-28.3,8-40.3,10.2,6.8,19.9,13.2,29.2,20.4,10.1,7.9,19.7,16.4,29.5,24.6Z"/>
  <path class="st5" d="M485.1,225.2c-8.3,13.3-23.7,20.1-40.3,16.6-15.2-3.2-27.7-17.5-28.8-32.5-.8-10.9,1.6-20.8,9.8-29.1,2.1.6,3.7,1.2,5,2.2,13.3,10.3,26.6,20.6,39.9,30.9,4.9,3.8,9.6,8,14.4,11.9Z"/>
  <path class="st20" d="M485.4,224.9c-5.1-3.8-9.8-7.9-14.7-11.7-13.2-10.4-26.6-20.7-39.9-30.9-1.3-1-2.9-1.5-4.7-2.4,15.8-20.6,51.7-14.9,62,9.9,5,12,4.2,23.7-2.7,35.1Z"/>
  <path class="st11" d="M372.7,223.9c-10.1-8-19.7-16.5-29.8-24.4-9.2-7.2-19-13.6-28.9-20.6,9.7-10.9,22.3-13.7,36.1-10.3,14.6,3.6,23.1,13.8,26.8,28.1,2.4,9.5.7,18.5-4.3,27.2Z"/>
</svg>