<?xml version="1.0" encoding="UTF-8"?>
<svg id="Layer_1" xmlns="http://www.w3.org/2000/svg" version="1.1" viewBox="0 0 1024 840">
  <!-- Generator: Adobe Illustrator 29.5.0, SVG Export Plug-In . SVG Version: 2.1.0 Build 137)  -->
  <defs>
    <style>
      .st0 {
        fill: #fc404f;
      }

      .st1 {
        fill: #ff5969;
      }

      .st2 {
        fill: #ffa2a6;
      }

      .st3 {
        fill: #ff9299;
      }

      .st4 {
        fill: #ff7a85;
      }

      .st5 {
        fill: #fa3944;
      }

      .st6 {
        fill: #ff6775;
      }

      .st7 {
        fill: #ff6573;
      }

      .st8 {
        fill: #ff8790;
      }

      .st9 {
        fill: #ff808a;
      }

      .st10 {
        fill: #fd4959;
      }

      .st11 {
        fill: #ff8e95;
      }

      .st12 {
        fill: #fd4555;
      }

      .st13 {
        fill: #ff5e6e;
      }

      .st14 {
        fill: #f56;
      }

      .st15 {
        fill: #ff7581;
      }

      .st16 {
        fill: #fe4f60;
      }

      .st17 {
        fill: #ff9da2;
      }

      .st18 {
        fill: #ff6f7c;
      }

      .st19 {
        fill: #fb3d4a;
      }

      .st20 {
        fill: #f8363a;
      }

      .st21 {
        fill: #ff949b;
      }
    </style>
  </defs>
  <path class="st20" d="M347,758.9c-14.3,0-28.6.2-43,.2-44.5,0-88.9,0-133.4,0-19.1,0-33.6-11.2-38.1-29.1-5.5-22.2,10.9-45.4,33.6-46,29.6-.7,59.3-.3,89.4.1.8,1,1,1.8,1.4,2.2,14.4,11.5,28.9,23,43.4,34.4,6.5,5.1,13.2,10,19.7,15,5.5,4.3,11,8.6,16.4,13.1,3.7,3.1,7,6.7,10.6,10.1Z"/>
  <path class="st17" d="M633,79.2c22.7,0,45.4,0,68.6.3,1.5,1.8,2.3,3.5,3.6,4.5,7.2,5.6,14.6,10.9,21.8,16.5,12.5,9.8,24.9,19.8,37.3,29.6,16.2,12.8,32.4,25.7,48.8,38.4,5,3.9,10.7,7,16.1,10.4.3,1.9.8,3.9.8,5.8,0,19.1,0,38.2-.3,57.8-4.2-2.1-8.2-4.4-11.8-7.2-12.5-9.6-24.9-19.3-37.3-29-3.9-3-7.4-6.4-11.4-9.3-4.7-3.5-9.7-6.6-14.5-9.9-3.3-14.2-10.8-24.9-24.9-30.2-2-.7-4.1-1.3-6.5-2.3-.9-1.8-1.1-3.5-2.1-4.3-19-15.1-38-30.2-57.1-45.1-8.8-6.9-18-13.5-26.8-20.4-1.8-1.4-3-3.7-4.4-5.5Z"/>
  <path class="st0" d="M263.7,500c0,30.4.1,60.7-.3,91.5-1.4,0-2.6-.4-3.4-1.1-7.9-6.2-15.6-12.5-23.5-18.7-14.2-11.2-28.5-22.4-42.8-33.4-1.5-1.1-3.5-1.5-5.3-2.3,0-21.9-.2-43.8-.2-65.7,0-8.1,0-16.3.5-24.9,1.8,0,3.3.3,4.4,1.2,6.5,5.4,12.8,11.2,19.5,16.5,7.3,5.7,15.2,10.8,22.5,16.5,7.5,5.7,14.5,11.9,22,17.7,1.8,1.4,4.4,1.9,6.7,2.7Z"/>
  <path class="st6" d="M479,383.2c4.4-.7,8.8-1.9,13.2-2,24.3-.2,48.6,0,73.4.4,8.4,7.1,16.3,13.8,24.3,20.3,9.8,8.1,19.7,16.1,29.6,24,3.7,3,7.4,6,11.3,8.9,6.6,4.9,13.4,9.6,19.9,14.7,1.3,1,1.6,3.4,2.3,5.2-4.4.7-8.8,2-13.2,2-23.6.2-47.2,0-71.3-.4-2.2-2.6-3.5-5.2-5.6-6.8-10.5-8.2-21.2-16.1-31.9-24.2-10.4-7.9-20.7-15.9-31-23.9-5.3-4.1-10.7-8.2-15.9-12.5-1.9-1.6-3.4-3.8-5.1-5.8Z"/>
  <path class="st16" d="M591,607.8c-34.3,0-68.6.5-102.8,0-19.7-.3-35.4-17.3-35.9-37.1-.4-19.3,14.5-36,33.9-37.8,5-.5,10-.4,15.4,0,1.5,1.9,2.2,3.7,3.5,4.7,8.5,6.6,17.1,13,25.6,19.6,11,8.5,21.9,17.2,32.8,25.8,7.4,5.8,15,11.5,22.2,17.5,2.2,1.9,3.6,4.8,5.4,7.3Z"/>
  <path class="st1" d="M263.7,253c0,28,.1,56-.3,84.5-1.6-.2-2.8-.7-3.8-1.4-9.9-7.7-19.7-15.4-29.6-23.1-9.4-7.2-18.7-14.6-28.2-21.6-4.3-3.1-9-5.6-13.5-8.4,0-28-.1-56,.3-84.5,2.6.6,5.1,1.3,7,2.7,9.8,7.3,19.6,14.7,29.2,22.3,7.8,6.1,15.2,12.6,23,18.7,5.1,3.9,10.6,7.2,15.9,10.8Z"/>
  <path class="st9" d="M526.9,154.2c-.6.1-1.3.4-1.9.4-27.7,0-55.4,0-83.6-.6-1.2-1.9-1.6-3.7-2.7-4.6-9.2-7.5-18.6-14.8-28-22.1-18.4-14.2-36.9-28.3-55.2-42.6-1.6-1.3-2.4-3.7-3.5-5.6,28,0,56,0,84.5.3,1.9,2.1,3,4.2,4.7,5.5,6.2,5,12.6,9.6,18.8,14.6,12.7,10.1,25.2,20.4,38,30.4,8.6,6.7,17.4,13.1,26.1,19.8,1.3,1,1.9,2.9,2.8,4.4Z"/>
  <path class="st16" d="M788,758.9c-28.4,0-56.7.1-85.6-.3-1.5-1.5-2.3-2.7-3.5-3.6-7.8-6.1-15.7-12-23.5-18.1-18.1-14.1-36.2-28.2-54.2-42.4-4-3.2-7.5-7.1-11.2-10.6,22.4,0,44.8-.2,67.2-.2,6.3,0,12.6,0,19.4.5,2.2,2.8,3.5,5.6,5.8,7.3,17,13.1,34.3,25.9,51.3,39,11.1,8.5,22,17.3,32.9,26,.7.5,1,1.6,1.4,2.5Z"/>
  <path class="st16" d="M188.3,283.5c4.6,2.3,9.3,4.8,13.6,8,9.5,7,18.8,14.3,28.2,21.6,9.9,7.7,19.7,15.4,29.6,23.1,1,.8,2.2,1.3,3.7,1.9.4,27,.5,54.1,0,81.5-2.8-.7-5.4-1.6-7.4-3.1-6.3-4.9-12.2-10.1-18.4-15.1-12.6-10-25.1-19.9-37.9-29.6-3.5-2.6-7.5-4.5-11.3-6.7,0-27-.1-54,0-81.5Z"/>
  <path class="st5" d="M188.3,536.5c1.9.3,3.9.7,5.4,1.8,14.3,11.1,28.6,22.2,42.8,33.4,7.9,6.2,15.6,12.5,23.5,18.7.9.7,2,1,3.3,1.6.3,17.7.3,35.3.3,53.4h-75.5c0-36,0-72.2,0-108.9Z"/>
  <path class="st19" d="M508,758.9c-26.7,0-53.4.1-80.6-.3-10.3-8.9-19.9-17.7-30-25.7-9.4-7.4-19.4-13.9-29-21.1-7-5.2-13.7-10.8-20.4-16.4-4.2-3.6-8-7.6-12-11.5,18.9,0,37.8-.2,56.7-.2,8.5,0,16.9,0,25.9.5,2.4,2.7,4.1,5.3,6.4,7.1,11.3,8.9,22.8,17.6,34.2,26.4,9.9,7.7,19.6,15.6,29.4,23.4,5.6,4.5,11.3,9.1,16.8,13.8,1.2,1,1.8,2.6,2.7,4Z"/>
  <path class="st7" d="M263.8,252.6c-5.4-3.1-10.9-6.5-16-10.4-7.8-6-15.2-12.6-23-18.7-9.6-7.6-19.4-15-29.2-22.3-1.9-1.4-4.3-2.1-6.9-3.2-1.5-27.2,5.7-51.8,22.7-73.4,5.6,4.3,10.7,8.4,15.8,12.5,7.7,6,15.5,12,23.3,18,6.7,5.1,13.3,10.1,20,15.2-4.9,7.6-7,15.9-6.8,25,.3,18.9,0,37.9,0,57.3Z"/>
  <path class="st10" d="M188.3,365.5c3.9,1.8,7.9,3.6,11.4,6.3,12.7,9.7,25.3,19.7,37.9,29.6,6.2,4.9,12.2,10.2,18.4,15.1,2,1.6,4.6,2.4,7.3,3.6.4,26.4.5,52.7.4,79.6-2.3-.4-4.9-.9-6.8-2.3-7.4-5.7-14.5-11.9-22-17.7-7.4-5.7-15.2-10.8-22.5-16.5-6.7-5.2-13-11-19.5-16.5-1-.9-2.6-1.1-4.3-1.6-.4-26.4-.5-52.7-.4-79.6Z"/>
  <path class="st5" d="M335.5,683.8c4.5,3.9,8.3,8,12.5,11.6,6.6,5.7,13.4,11.2,20.4,16.4,9.6,7.2,19.6,13.7,29,21.1,10.2,8.1,19.7,16.9,29.6,25.7-26.3.4-52.7.4-79.5.4-4-3.4-7.3-7-11-10.1-5.3-4.5-10.8-8.8-16.4-13.1-6.5-5.1-13.2-9.9-19.7-15-14.5-11.4-29-22.9-43.4-34.4-.5-.4-.6-1.1-1-2.1,18.2-.4,36.4-.5,54.7-.6,8.1,0,16.3,0,24.8.1Z"/>
  <path class="st1" d="M543,532.6c6.5-.1,12.9-.3,19.4-.3,21.9,0,43.8,0,66.1.5,2,2.3,3.3,4.5,5.2,6,8.4,6.8,17,13.4,25.6,20,6.4,4.9,13,9.5,19.5,14.3-.8,19-16.9,34.1-37.2,34.9-2.6.1-5.3,0-8.3-.6-2.4-3.2-4-6.3-6.5-8.3-7.9-6.2-16.3-11.8-24.2-18-8.8-7-17.1-14.6-25.9-21.5-10.4-8.1-21.3-15.7-31.9-23.7-.9-.7-1.2-2.1-1.8-3.2Z"/>
  <path class="st0" d="M508.5,758.9c-1.4-1.4-2-3.1-3.2-4.1-5.5-4.7-11.1-9.3-16.8-13.8-9.8-7.8-19.5-15.7-29.4-23.4-11.3-8.9-22.9-17.5-34.2-26.4-2.3-1.8-3.9-4.4-5.9-7,23.3-.4,46.7-.5,70.5,0,1.4,1.8,2.1,3.4,3.3,4.3,7.1,5.6,14.5,11,21.6,16.6,9.7,7.7,19.1,15.8,28.9,23.5,8.7,6.8,18,13,26.4,20.1,3.6,3,9.4,4.3,10.2,10.2-23.7,0-47.4.1-71.5,0Z"/>
  <path class="st8" d="M527.4,154.4c-1.4-1.7-1.9-3.6-3.2-4.6-8.6-6.7-17.5-13.1-26.1-19.8-12.7-10-25.3-20.3-38-30.4-6.2-4.9-12.6-9.6-18.8-14.6-1.7-1.4-2.9-3.4-4.3-5.5,22-.4,44-.4,66.5,0,3.6,3.5,6.4,6.9,9.8,9.6,9.2,7.4,18.6,14.4,27.9,21.6,13.9,10.7,27.8,21.3,41.5,32.3,4.1,3.3,7.5,7.5,11.2,11.3-5.5.2-10.9.4-16.4.4-16.6,0-33.2,0-50.2-.3Z"/>
  <path class="st15" d="M600,305.5c-15.9.1-31.8.2-47.7.3-8.1,0-16.2,0-24.8-.5-1.4-2-2.1-4-3.4-5.1-3.9-3.1-8.1-5.6-12-8.7-18.1-14.1-36.1-28.3-54.2-42.5,6.8-11.7,16.6-18.1,30.4-18,6.6,0,13.2-.5,20.3-.4,1.3,1.5,1.9,2.9,3,3.7,9.1,7.1,18.3,14.1,27.4,21.2,17.4,13.5,34.9,27,52.1,40.7,3.3,2.6,5.9,6.2,8.9,9.3Z"/>
  <path class="st15" d="M251.9,90.8c11.1-6.5,23.3-9.2,35.8-10.7,6.7-.8,13.5-.7,20.8-.6,2.9,3.3,4.9,6.6,7.7,8.9,11.1,8.9,22.4,17.4,33.7,26,15,11.5,30,22.9,44.9,34.5,1.7,1.3,2.7,3.4,4.1,5.2-3.6.2-7.3.5-10.9.5-19.4,0-38.8,0-58.6-.6-1.5-1.7-2.3-3.1-3.5-4.1-6.5-5.1-13.1-10.1-19.6-15.2-14.4-11.3-28.9-22.5-43.3-33.9-3.9-3.1-7.4-6.8-11.1-10.2Z"/>
  <path class="st12" d="M580.5,758.9c-1.3-6-7.1-7.2-10.7-10.3-8.4-7.1-17.7-13.3-26.4-20.1-9.7-7.7-19.2-15.8-28.9-23.5-7.1-5.7-14.4-11-21.6-16.6-1.2-1-1.9-2.6-2.9-4.2,21.3-.4,42.7-.5,64.5-.1,2.9,3.1,5,6.2,7.8,8.4,13,10.1,26.3,19.8,39.4,29.8,11.9,9.1,23.8,18.3,35.5,27.6,3.4,2.7,6.5,5.9,9.7,8.9-22,0-44,.1-66.5,0Z"/>
  <path class="st13" d="M478.6,383.2c2,1.9,3.5,4.2,5.4,5.8,5.2,4.3,10.6,8.4,15.9,12.5,10.3,8,20.6,16,31,23.9,10.6,8.1,21.3,16,31.9,24.2,2.1,1.6,3.5,4.2,5.2,6.7-27.6.2-55.2.5-82.7-.3-15.1-.4-27.6-12.2-31.6-27.6-3.9-14.7,1.9-31.4,14.1-39.7,3.3-2.2,7-3.7,10.9-5.5Z"/>
  <path class="st9" d="M543,230.2c22.7,0,45.4,0,68.6.3,1.6,2,2.5,4,4,5.1,6,4.4,12.3,8.2,18.2,12.7,14.2,11.1,28.2,22.4,42.3,33.7-8.7,17.5-22.9,25.1-42.6,23.3-1.4-2-2-4.1-3.4-5.1-5.4-4.3-11.2-8.1-16.7-12.4-14-11-28-22.1-42-33.1-8.9-7-18-13.9-26.9-21-.9-.7-1-2.2-1.5-3.4Z"/>
  <path class="st18" d="M653.3,454.8c-1.1-1.7-1.4-4.1-2.7-5.2-6.5-5.1-13.3-9.8-19.9-14.7-3.8-2.9-7.5-5.9-11.3-8.9-9.9-8-19.8-16-29.6-24-8-6.6-15.9-13.3-23.9-20.3,26.9-.1,53.8-.6,80.7.5,14.4.6,24.2,9.7,29.6,22.8,5.5,13.3,3.4,26.1-5.4,37.6-4.5,5.8-10.3,9.8-17.6,12.3Z"/>
  <path class="st6" d="M413.2,258c4.2,17.9-2.9,34.4-18.1,42.9-14.3,7.9-33,5.6-44.4-5.6-11.3-11.1-14.5-28.5-7.9-43.3,6.2-13.9,20.8-22.9,35.4-21.9,17.1,1.2,29.8,11.2,34.9,27.8Z"/>
  <path class="st18" d="M251.6,90.8c4,3.3,7.5,7,11.5,10.1,14.3,11.4,28.8,22.6,43.3,33.9,6.5,5.1,13.1,10.1,19.6,15.2,1.2,1,2.1,2.4,3.1,3.9-8.6.5-17.2.8-25.9.7-13.2-.2-23.9,4.8-32.2,15.4-6.9-4.9-13.6-9.9-20.3-15-7.8-6-15.6-11.9-23.3-18-5.2-4-10.3-8.2-15.6-12.7,10.1-15,23.6-25.7,39.8-33.6Z"/>
  <path class="st14" d="M788.5,758.9c-.9-.9-1.2-2-1.9-2.6-10.9-8.7-21.8-17.5-32.9-26-17.1-13.1-34.3-25.9-51.3-39-2.2-1.7-3.6-4.5-5.3-7.2,18-.4,36-.5,54.6-.1,3.7,3.5,6.6,6.9,10.1,9.6,10.6,8.4,21.5,16.4,32.2,24.7,13.1,10.1,26.2,20.3,39,30.6,3.4,2.8,6.1,6.5,9.1,9.8-17.7,0-35.4.1-53.5,0Z"/>
  <path class="st10" d="M647.5,758.9c-3.7-3.1-6.7-6.3-10.2-9-11.8-9.3-23.6-18.5-35.5-27.6-13.1-10-26.4-19.7-39.4-29.8-2.8-2.2-4.9-5.3-7.3-8.3,18-.4,36-.5,54.5-.4,4.2,3.6,7.7,7.5,11.7,10.7,18,14.2,36.1,28.3,54.2,42.4,7.8,6.1,15.7,12,23.5,18.1,1.1.9,2,2.1,3,3.5-18,.4-36,.4-54.5.4Z"/>
  <path class="st2" d="M829.2,178.5c-5.4-3-11-6.1-16.1-10-16.4-12.6-32.6-25.5-48.8-38.4-12.5-9.9-24.8-19.8-37.3-29.6-7.2-5.6-14.6-10.9-21.8-16.5-1.3-1-2.1-2.7-3.2-4.5,26.3-1.7,51.6,1.6,74.2,16.2,30,19.4,48.5,46.4,53,82.8Z"/>
  <path class="st21" d="M754.8,187.5c4.8,2.8,9.8,6,14.5,9.5,3.9,2.9,7.5,6.3,11.4,9.3,12.4,9.7,24.8,19.4,37.3,29,3.6,2.8,7.6,5.1,11.7,7.6.4,17.4.4,34.7,0,52.5-1.7-.3-3.2-.8-4.3-1.7-13.5-10.4-27-20.9-40.4-31.4-4.4-3.4-8.6-7.2-13.2-10.4-5.4-3.9-11.2-7.4-16.8-11,0-17.7-.2-35.3-.3-53.5Z"/>
  <path class="st8" d="M830,347c0,17,0,34-.3,51.5-2.7-.8-5.1-1.9-7.1-3.5-7.5-5.9-14.9-12-22.4-17.9-8.1-6.4-16.4-12.7-24.6-19-5.6-4.3-11.2-8.7-16.9-12.9-1-.7-2.4-.8-3.6-1.2,0-17.4,0-34.7.3-52.5,1.2-.2,2.1-.2,2.7.3,10,7.9,19.9,15.8,29.8,23.7,11.8,9.3,23.6,18.6,35.5,27.7,2,1.5,4.4,2.6,6.6,3.8Z"/>
  <path class="st1" d="M842.5,758.9c-3.5-3.4-6.1-7.1-9.5-9.9-12.9-10.4-25.9-20.5-39-30.6-10.7-8.3-21.6-16.3-32.2-24.7-3.5-2.7-6.4-6.1-9.6-9.5,18.7-.4,37.3-.5,56.5,0,3.2,3.1,5.6,6,8.5,8.3,8.8,7.2,17.8,14.3,26.7,21.4,12.1,9.4,24.2,18.8,36.3,28.2-8.5,14.3-21.9,17.6-37.6,16.9Z"/>
  <path class="st18" d="M830,532c0,16.7.1,33.4-.3,50.5-1.6,0-3-.4-4-1.1-6.3-4.7-12.5-9.5-18.8-14.4-13.2-10.4-26.4-20.8-39.7-31.1-3.8-2.9-8.1-5.3-12.2-7.9,0-17.4,0-34.7.3-52.5,10.1,7,19.7,14.3,29.4,21.7,11.9,9.1,23.7,18.4,35.5,27.5,3.2,2.5,6.5,4.8,9.8,7.3Z"/>
  <path class="st21" d="M632.5,79.2c1.9,1.9,3.1,4.2,4.9,5.6,8.8,6.9,18,13.5,26.8,20.4,19.1,14.9,38.1,30,57.1,45.1,1,.8,1.1,2.5,1.7,4.2-16.4.3-32.7.2-49.6-.3-.9-1.3-1.2-2.4-1.9-3-8.8-7-17.7-13.8-26.5-20.8-9.6-7.5-19.1-15.1-28.8-22.6-7.8-6.1-15.9-11.8-23.5-18.1-3.7-3-6.5-7-9.8-10.5,16.4,0,32.7,0,49.5,0Z"/>
  <path class="st11" d="M830.1,346.5c-2.3-.8-4.7-1.8-6.7-3.4-11.9-9.2-23.7-18.4-35.5-27.7-10-7.9-19.9-15.8-29.8-23.7-.6-.5-1.5-.5-2.7-.7-.4-16.4-.4-32.7-.4-49.5,5.7,3.2,11.4,6.7,16.8,10.6,4.6,3.2,8.8,7,13.2,10.4,13.4,10.5,26.9,20.9,40.4,31.4,1.2.9,2.6,1.4,4.3,2.1.4,16.7.4,33.4.4,50.6Z"/>
  <path class="st9" d="M755,344.5c1.3,0,2.7,0,3.7.8,5.7,4.2,11.3,8.6,16.9,12.9,8.2,6.3,16.5,12.6,24.6,19,7.5,5.9,14.9,12,22.4,17.9,2,1.6,4.4,2.6,7,3.9.4,16.4.5,32.7,0,49.5-1.9-.4-3.4-1-4.7-2-7.3-5.6-14.7-11.3-21.9-17-12.2-9.5-24.2-19.2-36.5-28.6-3.5-2.7-7.7-4.6-11.5-6.9,0-16.4,0-32.7,0-49.5Z"/>
  <path class="st7" d="M830,628v17.6h-75.1c0-24.1,0-47.9.4-72.1,1.5,0,2.7.3,3.5.9,7.4,5.9,14.5,12.1,22,17.8,13.8,10.6,27.7,21,41.6,31.4,2.3,1.7,5,2.9,7.5,4.3Z"/>
  <path class="st6" d="M830.1,627.5c-2.6-1-5.3-2.2-7.6-3.9-13.9-10.4-27.8-20.8-41.6-31.4-7.5-5.8-14.7-11.9-22-17.8-.8-.7-2-.9-3.4-1.4-.4-14.7-.5-29.4-.4-44.5,4.2,2.2,8.4,4.5,12.3,7.4,13.3,10.2,26.5,20.7,39.7,31.1,6.2,4.9,12.5,9.7,18.8,14.4,1,.8,2.3,1.1,3.9,1.6.4,14.7.5,29.4.5,44.5Z"/>
  <path class="st3" d="M582.5,79.2c3.7,3.6,6.6,7.6,10.2,10.6,7.6,6.3,15.7,12,23.5,18.1,9.6,7.5,19.2,15.1,28.8,22.6,8.8,6.9,17.7,13.8,26.5,20.8.7.5.9,1.7,1.4,2.8-14.4.4-28.7.5-43.6.1-1.3-1.7-1.8-3.1-2.9-4-5.5-4.5-11-8.9-16.7-13.2-11.8-9-23.7-17.9-35.4-27.1-11.2-8.8-22.1-17.8-33.1-26.8-1.1-.9-1.6-2.6-2.4-3.9,14.4,0,28.7,0,43.5,0Z"/>
  <path class="st4" d="M399.4,154.4c-1.8-1.9-2.8-4.1-4.5-5.4-14.9-11.6-29.9-23-44.9-34.5-11.3-8.6-22.6-17.2-33.7-26-2.9-2.3-4.9-5.7-7.3-8.9,14-.4,28-.4,42.5-.4,1.6,2,2.4,4.4,4,5.7,18.3,14.3,36.8,28.4,55.2,42.6,9.4,7.3,18.7,14.6,28,22.1,1.1.9,1.5,2.7,2.3,4.4-13.7.4-27.4.5-41.6.5Z"/>
  <path class="st14" d="M542.6,532.5c1,1.2,1.4,2.7,2.3,3.4,10.6,7.9,21.4,15.5,31.9,23.7,8.9,6.9,17.1,14.6,25.9,21.5,7.9,6.2,16.3,11.8,24.2,18,2.5,2,4.1,5.2,6.1,8.2-13.7.5-27.4.6-41.5.6-2.2-2.5-3.6-5.5-5.8-7.4-7.2-6.1-14.8-11.7-22.2-17.5-10.9-8.6-21.8-17.2-32.8-25.8-8.5-6.6-17.1-13-25.6-19.6-1.3-1-2-2.8-3.1-4.6,13.4-.4,26.7-.5,40.6-.5Z"/>
  <path class="st15" d="M830.1,531.5c-3.3-1.9-6.7-4.3-9.9-6.8-11.9-9.2-23.6-18.4-35.5-27.5-9.6-7.4-19.3-14.8-29.3-22.2-.4-13.4-.4-26.8,0-40.6,1.9.1,3.6.4,4.8,1.3,7.8,6.1,15.5,12.3,23.2,18.4,8.7,6.9,17.3,13.8,26,20.6,5.6,4.4,11.3,8.7,17,12.9,1,.7,2.4.8,3.6,1.2,0,14,0,28,0,42.5Z"/>
  <path class="st4" d="M830.1,488.5c-1.3,0-2.7,0-3.7-.8-5.7-4.2-11.4-8.5-17-12.9-8.7-6.8-17.3-13.8-26-20.6-7.7-6.1-15.4-12.4-23.2-18.4-1.2-.9-2.9-1.2-4.8-1.8-.4-13-.5-26-.4-39.5,3.9,1.8,8.1,3.7,11.6,6.4,12.3,9.4,24.3,19.1,36.5,28.6,7.3,5.7,14.6,11.4,21.9,17,1.3,1,2.9,1.6,4.7,2.4.4,13.1.4,26.1.4,39.6Z"/>
  <path class="st12" d="M411.2,585.1c-5.1,13.7-20.2,23.5-35.4,22.9-16.8-.7-30.1-10.8-34.7-26.7-4.3-14.9-.4-27.9,10.9-39.1,4.7,2.7,9,5.2,12.9,8.3,12.1,9.5,24,19.3,36.1,28.8,3.1,2.4,6.8,3.9,10.3,5.8Z"/>
  <path class="st14" d="M410.1,436.2c-5.6,12.3-23.1,22.1-36.2,20.4-18.7-2.5-31.1-13.7-33.8-30.8-2.3-13.9,1.9-25.6,12.4-35.1,2.3,1.6,4.2,2.9,6,4.3,13.8,10.5,27.7,20.9,41.4,31.6,3.7,2.9,6.9,6.4,10.3,9.7Z"/>
  <path class="st11" d="M538.5,79.2c1.2,1.4,1.7,3,2.8,4,11,9,21.9,18,33.1,26.8,11.7,9.2,23.6,18,35.4,27.1,5.6,4.3,11.2,8.7,16.7,13.2,1.1.9,1.6,2.4,2.5,3.9-11.4.4-22.8.5-34.6.4-4.2-4-7.6-8.2-11.7-11.5-13.7-10.9-27.7-21.5-41.5-32.3-9.3-7.2-18.7-14.3-27.9-21.6-3.4-2.7-6.2-6.1-9.3-9.5,11.3-.4,22.7-.4,34.5-.4Z"/>
  <path class="st4" d="M542.5,230.1c1,1.2,1.1,2.8,2,3.5,8.9,7.1,17.9,14,26.9,21,14,11,27.9,22.1,42,33.1,5.5,4.3,11.2,8.1,16.7,12.4,1.4,1.1,2,3.1,3,5-10.7.4-21.4.5-32.6.4-3.4-3.3-6-6.8-9.3-9.5-17.3-13.7-34.7-27.2-52.1-40.7-9.1-7.1-18.3-14.1-27.4-21.2-1.1-.8-1.7-2.2-2.5-3.7,11-.4,22-.5,33.5-.4Z"/>
  <path class="st13" d="M880.4,741.9c-12.4-9.2-24.6-18.6-36.6-28-9-7-17.9-14.1-26.7-21.4-2.9-2.4-5.4-5.3-8.1-8.3,15.7-.3,31.6-1.7,47.1.2,26.3,3.2,39.7,35.7,24.3,57.5Z"/>
  <path class="st18" d="M457.5,249.1c18.3,14,36.3,28.2,54.5,42.3,3.9,3,8.2,5.6,12,8.7,1.4,1.1,2,3.1,3,5-14.6.2-29.4,1.5-43.8-.5-24.9-3.4-39-32.1-25.7-55.5Z"/>
  <path class="st1" d="M410.4,436c-3.7-3-6.9-6.6-10.6-9.4-13.7-10.6-27.5-21.1-41.4-31.6-1.8-1.4-3.7-2.7-5.7-4.4,13.1-11.8,32.6-12.3,47.2-1.4,14,10.3,18.3,29.5,10.4,46.9Z"/>
  <path class="st10" d="M411.5,584.8c-3.7-1.7-7.5-3.2-10.5-5.6-12.1-9.5-24-19.3-36.1-28.8-3.9-3-8.1-5.6-12.6-8.4,11.5-11.1,29.8-12.7,44.3-3.9,14,8.4,20.9,25.5,16.8,41.3-.5,1.8-1.1,3.5-1.9,5.5Z"/>
  <path class="st8" d="M676.3,281.8c-14.4-11-28.4-22.4-42.6-33.4-5.8-4.5-12.2-8.4-18.2-12.7-1.5-1.1-2.3-3.1-3.5-5,11.4-.2,22.9-.7,34.3.2,22.8,1.8,39.5,26.9,30,51Z"/>
  <path class="st6" d="M678.9,572.6c-6.6-4.3-13.2-8.9-19.6-13.8-8.6-6.5-17.2-13.2-25.6-20-1.9-1.5-3.1-3.7-4.7-5.9,13-1.5,25.7-.9,36.4,8,9.6,8.1,14.5,18.5,13.6,31.7Z"/>
</svg>