<?xml version="1.0" encoding="UTF-8"?>
<svg id="Layer_1" xmlns="http://www.w3.org/2000/svg" version="1.1" viewBox="0 0 1024 820">
  <!-- Generator: Adobe Illustrator 29.5.0, SVG Export Plug-In . SVG Version: 2.1.0 Build 137)  -->
  <defs>
    <style>
      .st0 {
        fill: #ff9399;
      }

      .st1 {
        fill: #ff9a9f;
      }

      .st2 {
        fill: #ff8992;
      }

      .st3 {
        fill: #f8373a;
      }

      .st4 {
        fill: #fd4858;
      }

      .st5 {
        fill: #ff6977;
      }

      .st6 {
        fill: #ff838d;
      }

      .st7 {
        fill: #ff6271;
      }

      .st8 {
        fill: #fb3f4d;
      }

      .st9 {
        fill: #fe4d5d;
      }

      .st10 {
        fill: #f9373e;
      }

      .st11 {
        fill: #ff7f8a;
      }

      .st12 {
        fill: #ff717e;
      }

      .st13 {
        fill: #ff5d6c;
      }

      .st14 {
        fill: #fa3a45;
      }

      .st15 {
        fill: #ff5666;
      }

      .st16 {
        fill: #ff7985;
      }

      .st17 {
        fill: #ffa4a8;
      }

      .st18 {
        fill: #fc4150;
      }
    </style>
  </defs>
  <path class="st3" d="M364.3,785.7c-26.6,0-53.5,2.5-79.8-2.6-72.4-14-120.5-56.6-144.5-126.2-6.2-18-8.6-36.8-7.8-56.1,2.8,1.1,5.3,2.2,7.4,3.8,4,3.1,7.7,6.6,11.7,9.8,5.9,4.9,11.8,9.7,17.8,14.5,4,3.3,7.8,6.7,11.9,9.8,5.2,3.9,10.7,7.4,15.8,11.3,3.3,2.6,6.1,6,9.4,8.5,4.6,3.4,9.7,5.9,14.2,9.4,5.7,4.4,10.8,9.4,16.3,14,.5.4,1.6,0,2.7.2,5.3,4.2,10.3,8.3,15.3,12.7,1,.8,2,1.2,3.3,1.7,1.7.9,3.1,1.8,4.5,3,2.7,3.1,5.2,6.2,8.2,8.6,6.1,5,12.5,9.8,18.8,14.6,5.5,4.1,11.2,8,16.6,12.2,5.5,4.3,10.7,9.1,16.2,13.3,5.2,4,11,7.3,16.1,11.4,7.7,6.2,15.2,12.8,22.5,19.5,1.7,1.6,2.4,4.3,3.6,6.5Z"/>
  <path class="st14" d="M577.1,785.7c-16,0-32,.2-47.9.2-33.9,0-67.8,0-102.2-.4-5.3-4.9-9.8-9.8-14.9-13.9-7.7-6-16-11.2-23.7-17.1-6.5-4.9-12.6-10.3-18.9-15.4-7.2-5.8-14.9-11.1-21.8-17.3-2.8-2.5-8.1-3.7-7.1-9.3,49.5-.1,98.6-.1,147.7-.1.8,0,1.6.1,2.4.5.9,1.6,1.5,3.2,2.6,4.2,4.3,3.6,8.8,6.9,13.2,10.4,6,4.8,11.8,9.9,17.9,14.6,8.5,6.5,17.1,12.8,25.7,19.3,6.6,5,13.4,9.9,19.7,15.3,2.9,2.5,4.9,6,7.3,9.1Z"/>
  <path class="st11" d="M864.8,440.1c.3,8.8.6,17.6.4,26.8-1.6,0-3,0-4-.7-3.9-3-7.6-6.4-11.5-9.4-13.1-10.3-26.3-20.5-39.4-30.8-7.1-5.6-13.9-11.5-21.1-16.9-2.7-2.1-6.1-3.2-9.4-5-15.7-27.1-37.5-46.3-67.9-54.1-10.3-2.6-21.2-3.3-31.8-5.2-1-1.6-1.8-3.1-2.9-4.1-4.6-3.8-9.3-7.4-14-11.1-12.4-9.8-24.7-19.6-37.1-29.3-8.1-6.3-16.5-12.4-24.5-18.8-3.3-2.7-6-6.1-8.9-9.2,19.1,0,38.3,0,57.9.3,6.4,5.5,12.1,10.9,18.3,15.7,12.6,9.8,25.5,19.1,38.1,28.8,10.2,7.9,20,16.1,30.1,24.1,12.8,10,25.6,20,38.5,29.9,8.3,6.4,16.7,12.6,24.8,19,19.5,15.3,38.8,30.8,58.3,46.2,1.9,1.5,4.1,2.7,6.2,4Z"/>
  <path class="st12" d="M307,162.3c19.2-.1,38.4-.2,57.5-.3,11.6,0,23.2,0,35.3.4,1.4,1.7,2.2,3.2,3.4,4.1,11.3,8.9,22.8,17.7,34.2,26.6,8.8,6.8,17.5,13.6,26.2,20.5,7.3,5.7,14.7,11.4,22,17.3,1.3,1,2,2.8,3,4.2-30.8,0-61.6,0-92.9-.3-6.4-5.5-12.1-10.9-18.2-15.7-13-10.1-26.3-19.9-39.3-30-8.8-6.8-17.3-13.9-25.8-21-2-1.7-3.6-3.8-5.4-5.8Z"/>
  <path class="st18" d="M577.5,785.8c-2.9-3.1-4.9-6.7-7.8-9.2-6.3-5.4-13.1-10.3-19.7-15.3-8.5-6.5-17.2-12.7-25.7-19.3-6.1-4.7-11.9-9.7-17.9-14.6-4.4-3.5-8.9-6.8-13.2-10.4-1.2-1-1.8-2.6-2.2-4.3,11.6-.4,22.7-.5,33.8-.5,19,0,38,.2,57.1.6,3.1,3.3,5.9,6.5,9.2,9.1,12.3,9.5,24.9,18.8,37.2,28.3,10.8,8.3,21.6,16.7,31.9,25.5,3.1,2.7,8.6,4,8.1,9.9-30.1,0-60.3.1-90.9,0Z"/>
  <path class="st4" d="M668.9,785.8c0-5.9-5.5-7.3-8.6-9.9-10.3-8.9-21.2-17.2-31.9-25.5-12.3-9.5-24.9-18.8-37.2-28.3-3.3-2.6-6.2-5.8-8.8-9.2,12.2-.5,24-.5,35.7-.5,18.4,0,36.7.2,55.1.6.9,1.6,1.7,3.1,2.8,4,3.8,2.9,7.9,5.5,11.7,8.4,9.8,7.7,19.5,15.6,29.3,23.4,8.6,6.7,17.3,13.2,25.8,20.1,1.5,1.2,2.2,3.6,3.2,5.5-15,5.8-30.4,9.4-46.4,10.7-10.1.8-20.3.7-30.9.9Z"/>
  <path class="st8" d="M132,469.3c-1.6-27.6,2-54.5,12.6-80.3,3.4,1.9,6.6,3.5,9.4,5.7,5.8,4.6,11.3,9.7,17.1,14.3,7,5.6,14.2,11,21.5,16.1,4.6,3.2,7.7,9,14.3,9.6-.6,8-1.7,15.5-1.8,23.1-.3,22-.2,43.9-.6,65.9-2.8-1.4-5.5-2.6-7.7-4.3-9.6-7.7-19-15.5-28.5-23.2-4.5-3.6-9.1-7.1-13.7-10.6-2.5-1.9-5-3.7-7.6-5.5-5-3.6-10.1-7.2-15.1-10.8Z"/>
  <path class="st0" d="M656.7,125c-20.3,0-40.6.2-60.9.3-6.6,0-13.2,0-20.3-.5-3.4-3.5-6-6.9-9.3-9.5-13.3-10.4-26.8-20.4-40.1-30.7-10.8-8.3-21.5-16.8-32-25.4-2.5-2-4.3-4.8-6.4-7.3,11.3,0,22.5-.3,33.8-.3,15.6,0,31.3,0,47.4.5,2.6,2.7,4.4,5.4,6.8,7.3,9.4,7.3,19,14.2,28.4,21.5,9.1,7.1,18.1,14.3,27.2,21.5,7.6,6,15.2,11.8,22.7,17.9,1.3,1.1,1.9,3.1,2.8,4.7Z"/>
  <path class="st2" d="M684.9,272.2c11.8,1.3,23.7,1.9,35.3,4.1,31.8,5.8,59.4,20.4,83.4,41.7,27.2,24.2,46.2,53.8,55.1,89.6-1.5,0-2.8-.3-3.8-1.1-8.2-6.3-16.3-12.6-24.4-18.9-11.8-9.1-23.8-18.1-35.5-27.4-16.8-13.3-33.2-26.9-50.1-40-17.4-13.6-35-26.7-52.5-40.2-2.8-2.2-5.1-5.2-7.6-7.8Z"/>
  <path class="st2" d="M487.2,51.8c2.6,2.5,4.4,5.4,6.8,7.4,10.6,8.6,21.3,17,32,25.4,13.3,10.3,26.8,20.3,40.1,30.7,3.3,2.6,5.9,6,8.9,9.4-24.6.4-49.3.4-74.4,0-5.3-4.9-9.8-9.8-15-13.9-14-11-28.3-21.6-42.4-32.4-8.8-6.7-17.5-13.6-26.1-20.6-1.8-1.5-2.9-4-4.3-6,15.3,0,30.6-.2,45.9-.3,9.3,0,18.7,0,28.5.2Z"/>
  <path class="st1" d="M657.2,125.1c-1.4-1.7-2-3.7-3.3-4.8-7.5-6.1-15.1-11.9-22.7-17.9-9.1-7.1-18-14.4-27.2-21.5-9.4-7.2-19-14.2-28.4-21.5-2.4-1.9-4.2-4.6-6.4-7.2,13.5-.4,27-.6,40.6-.6,13.1,0,26.1,0,39.6.5.9,1.1,1.1,1.9,1.7,2.3,8.4,6.7,16.7,13.4,25.1,20.1,10.8,8.5,21.7,16.9,32.4,25.7,2,1.7,3.1,4.6,4.6,6.9-6.9,12.6-18.4,17.4-31.9,18.1-7.9.4-15.8,0-24.1,0Z"/>
  <path class="st5" d="M385.7,272.2c24.6,0,49.3,0,74.4.3,2.3,2.4,4,4.6,6.1,6.3,9.3,7.4,18.8,14.5,28.1,21.8,14.7,11.5,29.3,23,43.8,34.7,3.8,3,7.2,6.5,10.3,9.9-25.1,0-49.7,0-74.4-.4-3.8-3.7-7.3-7.4-11.3-10.5-12.7-10-25.5-19.9-38.4-29.7-10-7.7-20.3-15.1-30.2-22.9-3.3-2.6-5.7-6.2-8.5-9.4Z"/>
  <path class="st14" d="M131.9,469.7c5.1,3.1,10.2,6.7,15.2,10.3,2.5,1.8,5.1,3.6,7.6,5.5,4.6,3.5,9.2,6.9,13.7,10.6,9.5,7.7,18.9,15.6,28.5,23.2,2.2,1.8,4.9,2.9,7.8,4.8.4,24.8.3,49.1,0,73.4-1.3-.8-2.4-1.5-3.4-2.3-6-5.1-11.8-10.3-17.9-15.2-6.2-5-12.6-9.8-18.9-14.7-.9-.7-1.8-1.3-2.7-2-4.6-3.3-9.2-6.5-13.9-9.8-5.3-3.8-10.5-7.5-15.8-11.3,0-24-.1-48,0-72.4Z"/>
  <path class="st6" d="M684.5,272.1c3,2.7,5.2,5.6,8,7.8,17.4,13.5,35.1,26.6,52.5,40.2,16.8,13.2,33.3,26.8,50.1,40,11.7,9.3,23.7,18.3,35.5,27.4,8.1,6.3,16.2,12.7,24.4,18.9,1,.7,2.3,1,3.8,1.4,2.3,10.4,4.2,20.8,6,31.7-2.1-.9-4.3-2.1-6.2-3.6-19.4-15.4-38.8-30.8-58.3-46.2-8.2-6.5-16.6-12.6-24.8-19-12.9-9.9-25.7-19.8-38.5-29.9-10.1-7.9-19.9-16.2-30.1-24.1-12.6-9.7-25.5-19-38.1-28.8-6.2-4.8-11.9-10.2-17.8-15.7,11-.4,22-.4,33.5-.4Z"/>
  <path class="st15" d="M219.5,299c16.4-10.6,34.3-17.8,53.3-22.1,1.1-.3,2.2-.5,3.7-.5,1,1.1,1.4,2.1,2.1,2.6,11.3,9,22.6,17.9,34,26.8,4.5,3.6,9.3,6.8,13.8,10.4,9,7,17.9,14,26.8,21.2,2.7,2.2,4.8,5,6.8,7.6-3.5,0-6.6,0-9.6.1-23.3.3-46.8-1.7-69.6,5.1-.3-.9-.5-1.6-1-2-5.3-4.1-10.7-8.1-16-12.2-13.3-10.3-26.6-20.6-39.7-31.1-1.9-1.5-3-4-4.5-6Z"/>
  <path class="st4" d="M206.9,434.3c-6.6-.2-9.7-6-14.3-9.2-7.4-5.1-14.5-10.6-21.5-16.1-5.8-4.6-11.3-9.7-17.1-14.3-2.7-2.2-5.9-3.8-9.1-6,5.9-18,15.8-33.5,27.2-48.1,2.5-3.2,5.3-6.1,8.5-9.1,6.3,4.1,12,8.2,17.6,12.4,6.2,4.6,12.3,9.3,18.4,14,7.5,5.7,15.1,11.5,22.4,17.5-12.1,13.4-22.6,27.4-27.9,44.6-1.5,4.8-2.8,9.6-4.2,14.4Z"/>
  <path class="st16" d="M592.2,272.1c3.4,3.1,6.1,6.6,9.4,9.2,8,6.5,16.4,12.5,24.5,18.8,12.4,9.7,24.8,19.5,37.1,29.3,4.7,3.7,9.4,7.3,14,11.1,1.2,1,2,2.5,2.5,4.1-23.1.4-45.8.3-68.5,0-2.3-2.8-4.3-5.5-7-7.5-9.8-7.4-20-14.4-29.8-22-14.5-11.2-28.7-22.6-42.9-34.1-3.4-2.7-6.5-5.9-9.7-8.9,23.3,0,46.7,0,70.5,0Z"/>
  <path class="st16" d="M780,404.2c3.1,1.6,6.5,2.7,9.2,4.8,7.2,5.4,14,11.3,21.1,16.9,13.1,10.3,26.3,20.5,39.4,30.8,3.9,3.1,7.6,6.4,11.5,9.4.9.7,2.3.8,3.9,1.1.4,21.7.5,43.4,0,65.6-3.1-1-5.9-2.2-8.3-4-6.5-5-12.7-10.3-19.2-15.3-9.3-7.4-18.5-14.8-28-21.9-5.6-4.2-11.6-7.8-17.5-12.2-.1-3.2-.1-5.9-.2-8.7-.2-9.7,0-19.4-.8-29-1.2-13.2-5.7-25.7-11.3-37.7Z"/>
  <path class="st15" d="M838.6,697.8c-7.7,12.4-16,24.4-27.1,34.1-5.5,4.8-10.8,9.9-16.8,14.9-2.4-1.6-4.2-3.2-6.1-4.7-9.7-7.7-19.1-15.7-29.1-22.8-8.9-6.3-16.2-15-26.6-19.1,21.3-11.2,36.7-27.9,48.5-48.4.8.2,1.3.3,1.7.6,13.9,10.9,27.9,21.8,41.7,32.9,4.9,3.9,9.3,8.3,14,12.5Z"/>
  <path class="st7" d="M385.2,272.1c3.3,3.2,5.7,6.8,9,9.4,9.9,7.9,20.2,15.3,30.2,22.9,12.8,9.8,25.7,19.7,38.4,29.7,4,3.1,7.5,6.7,10.8,10.5-22.5.4-44.5.3-66.6,0-.8-1.3-1.4-2.5-2.4-3.3-9.8-7.7-19.7-15.4-29.6-23.1-17.7-13.9-35.4-27.7-53-41.7-1.2-1-1.6-2.9-2.4-4.4,21.7,0,43.4,0,65.6,0Z"/>
  <path class="st10" d="M131.9,542.6c5.4,3.3,10.6,7.1,15.9,10.9,4.6,3.3,9.2,6.5,13.9,9.8.9.6,1.8,1.3,2.7,2,6.3,4.9,12.7,9.6,18.9,14.7,6.1,4.9,11.9,10.2,17.9,15.2,1,.8,2,1.5,3.5,2.8,0,13.4,1.8,25.8,5.8,38.2,5.7,17.8,16,32.6,28.6,46-.8,0-1.9.3-2.4,0-5.5-4.6-10.6-9.6-16.3-14-4.5-3.5-9.6-6-14.2-9.4-3.4-2.5-6.1-5.9-9.4-8.5-5.1-4-10.6-7.4-15.8-11.3-4.1-3.1-7.9-6.6-11.9-9.8-5.9-4.9-11.9-9.6-17.8-14.5-3.9-3.2-7.7-6.7-11.7-9.8-2.1-1.6-4.6-2.8-7.2-4.2-.4-19.2-.5-38.3-.5-57.9Z"/>
  <path class="st6" d="M659.7,235c-21.1,0-42.1,0-63.7-.3-1-1-1.3-1.8-1.9-2.2-8-6.2-16-12.4-24-18.6-17.4-13.5-34.8-27-52.1-40.6-4.2-3.3-7.8-7.4-11.7-11.1,21.1,0,42.1,0,63.7.3,1.7,1.8,2.8,3.5,4.3,4.6,14.1,10.9,28.2,21.7,42.3,32.6,11.9,9.2,23.8,18.4,35.6,27.8,2.8,2.2,5.1,5,7.7,7.5Z"/>
  <path class="st10" d="M340,712.6c-.5,5.5,4.7,6.6,7.5,9.2,6.9,6.2,14.5,11.5,21.8,17.3,6.4,5.1,12.4,10.5,18.9,15.4,7.8,5.9,16.1,11.1,23.7,17.1,5.2,4,9.7,8.9,14.5,13.8-20.4.4-40.8.4-61.7.4-1.6-2.3-2.3-5-4-6.6-7.3-6.7-14.8-13.3-22.5-19.5-5.1-4.1-10.9-7.4-16.1-11.4-5.6-4.3-10.7-9-16.2-13.3-5.4-4.2-11.1-8.1-16.6-12.2-6.3-4.8-12.7-9.6-18.8-14.6-3-2.4-5.5-5.5-7.8-8.5,3.6,1.2,6.6,3.3,10,4.2,11.9,3.2,23.8,7,36,8.7,10.2,1.4,20.9.2,31.3,0Z"/>
  <path class="st12" d="M521.3,272.1c3.7,3.1,6.7,6.3,10.1,9,14.2,11.5,28.5,22.9,42.9,34.1,9.8,7.5,19.9,14.5,29.8,22,2.6,2,4.6,4.8,6.5,7.6-20.8.4-41.3.3-61.7.3-3.6-3.3-7-6.8-10.8-9.8-14.5-11.6-29.2-23.2-43.8-34.7-9.3-7.3-18.8-14.5-28.1-21.8-2.1-1.7-3.7-3.9-5.6-6.2,20.1-.4,40.2-.4,60.7-.4Z"/>
  <path class="st5" d="M865.5,591.7c.3,19.5-.5,38.9-6.5,58-7.9-5.3-15.2-10.7-22.5-16.3-10.2-8-20.2-16.3-30.6-24.1-4.2-3.1-9-5.3-13.7-8.4,0-21.2,0-42,.4-62.7,4.7,2.9,9.2,5.6,13.3,8.9,10.6,8.2,21,16.8,31.5,25.1,7.6,5.9,15.2,11.8,22.9,17.5,1.4,1.1,3.4,1.3,5.1,2Z"/>
  <path class="st0" d="M619.9,162.1c18.1,0,36.3,0,54.9.3,1,1.2,1.3,2.2,2,2.8,6.5,5.2,13,10.4,19.7,15.4,14.6,11.2,29.3,22.3,43.8,33.6,9.5,7.4,18.9,14.9,28.2,22.5,1.4,1.2,2,3.4,3,5.1-8.6,4.3-17.4,4.7-26.8,2.4-11.7-2.9-23.7-4.9-35.9-7.7-1.8-2.4-3-4.6-4.5-6.4-1.1-1.3-2.9-2-4.3-3.1-8.6-6.9-17-14.1-25.8-20.9-14.7-11.4-29.7-22.5-44.4-34-3.7-2.9-6.6-6.8-9.8-10.2Z"/>
  <path class="st1" d="M771.7,241.9c-1.3-1.7-1.9-3.9-3.3-5.1-9.3-7.7-18.7-15.2-28.2-22.5-14.5-11.3-29.2-22.4-43.8-33.6-6.6-5.1-13.1-10.2-19.7-15.4-.7-.6-1-1.6-1.6-2.7,3.2-.6,6.4-1,9.5-.9,24,.7,47.7,3.4,70.9,9.5,9.7,2.5,19.2,5.2,26.6,13,11.6,12.3,13.4,30.5,4.1,44.5-3.7,5.6-7.8,10.7-14.6,13.4Z"/>
  <path class="st12" d="M865.6,591.2c-1.8-.2-3.8-.5-5.2-1.5-7.7-5.7-15.4-11.6-22.9-17.5-10.5-8.3-20.9-16.8-31.5-25.1-4.1-3.2-8.6-5.9-13.4-9.3-.4-19.6-.3-38.7-.2-57.9,5.8,3.9,11.8,7.5,17.4,11.7,9.5,7.1,18.7,14.5,28,21.9,6.4,5.1,12.7,10.4,19.2,15.3,2.4,1.8,5.2,3,8.2,4.5.4,19.1.4,38.3.4,57.8Z"/>
  <path class="st9" d="M732.5,700.5c10.6,3.8,17.9,12.5,26.8,18.8,10.1,7.1,19.5,15.1,29.1,22.8,1.9,1.5,3.7,3.1,5.8,4.8-14.1,12-30.3,20.5-47.8,27.4-1.4-1.9-2-4.2-3.6-5.5-8.5-6.8-17.2-13.3-25.8-20.1-9.8-7.7-19.5-15.7-29.3-23.4-3.8-3-7.9-5.5-11.7-8.4-1.2-.9-1.9-2.4-2.4-4.1,7.2-.7,14-.6,20.7-1.2,13.4-1.2,26-5.4,38.1-11.2Z"/>
  <path class="st11" d="M505.7,162.1c4.3,3.8,8,7.9,12.2,11.2,17.3,13.7,34.7,27.1,52.1,40.6,8,6.2,16,12.4,24,18.6.6.5,1,1.2,1.5,2.2-18.8.4-37.6.4-56.9,0-7.7-6.3-14.7-12.4-22-18.1-10.4-8-21.1-15.6-31.4-23.7-9.2-7.2-18.2-14.6-27.2-22.1-3.2-2.7-6.1-5.8-9.2-8.7,18.8,0,37.6,0,56.9,0Z"/>
  <path class="st5" d="M306.6,162.2c2.2,2,3.8,4.1,5.9,5.8,8.5,7.1,17.1,14.2,25.8,21,13,10.1,26.3,19.9,39.3,30,6.2,4.8,11.9,10.2,17.8,15.6-18.8.4-37.6.4-56.9,0-1.6-1.5-2.6-2.8-3.8-3.7-3.7-2.8-7.6-5.3-11.2-8.2-13.7-10.6-27.3-21.4-41-32-8-6.2-16.1-12.2-24-18.5-1.3-1-2-2.8-3-4.2,8.9-1.4,17.8-2.9,26.7-4,7.9-1,15.9-1.4,24.3-2Z"/>
  <path class="st7" d="M255.1,168.2c1.4,1.4,2.1,3.2,3.3,4.2,7.9,6.2,16,12.3,24,18.5,13.7,10.6,27.3,21.4,41,32,3.7,2.8,7.5,5.4,11.2,8.2,1.2.9,2.2,2.2,3.4,3.6-12.4.6-24.9.6-37.3,1.3-9,.5-18,2-27.3,2.7-1.6-2.2-2.5-4.4-4.1-5.7-8.4-6.7-17.1-13.1-25.5-19.8-7.5-5.9-14.7-11.9-22.2-17.8-3.1-2.5-6.5-4.6-9.8-6.9,4.9-8.8,13.3-12.8,22.3-15.4,6.8-2,13.7-3.3,21-4.9Z"/>
  <path class="st6" d="M412.4,51.8c1.9,2.1,2.9,4.6,4.8,6.1,8.6,7,17.3,13.8,26.1,20.6,14.1,10.8,28.4,21.4,42.4,32.4,5.2,4.1,9.7,8.9,14.6,13.8-17.8.4-35.7.5-54,0-1-1.4-1.2-2.6-2-3.3-6.9-5.6-13.7-11.1-20.7-16.5-12.5-9.5-25.1-18.8-37.5-28.4-8.4-6.5-16.6-13.2-24.7-20-1.3-1.1-2-3.1-2.9-4.7,17.8,0,35.7-.1,54-.1Z"/>
  <path class="st7" d="M792.3,601.4c4.5,2.6,9.4,4.8,13.6,7.9,10.4,7.8,20.4,16.1,30.6,24.1,7.2,5.6,14.6,11,22.2,16.6-3.7,17-10.5,32.7-19.9,47.6-4.9-4-9.4-8.4-14.2-12.3-13.8-11.1-27.8-21.9-41.7-32.9-.4-.3-.9-.4-1.6-.9,7-16.2,11.1-32.7,11-50.1Z"/>
  <path class="st2" d="M619.4,162.1c3.7,3.5,6.6,7.3,10.3,10.2,14.7,11.5,29.7,22.6,44.4,34,8.7,6.8,17.2,13.9,25.8,20.9,1.4,1.1,3.1,1.8,4.3,3.1,1.6,1.8,2.8,4,4.1,6.3-15.9-.2-31.8-.8-48.1-1.5-3-2.6-5.4-5.4-8.2-7.6-11.8-9.4-23.7-18.6-35.6-27.8-14.1-10.9-28.2-21.7-42.3-32.6-1.5-1.1-2.5-2.8-3.8-4.5,16.2-.4,32.4-.4,49.1-.4Z"/>
  <path class="st16" d="M448.4,162.1c3.5,3,6.4,6.1,9.6,8.8,9,7.5,18,14.9,27.2,22.1,10.4,8.1,21.1,15.6,31.4,23.7,7.3,5.7,14.3,11.8,21.5,18.1-16.2.4-32.4.4-49,.4-1.4-1.5-2.2-3.2-3.5-4.2-7.2-5.8-14.6-11.5-22-17.3-8.7-6.8-17.5-13.7-26.2-20.5-11.4-8.9-22.8-17.7-34.2-26.6-1.2-.9-2-2.5-3-4.1,15.9-.4,31.8-.4,48.1-.4Z"/>
  <path class="st9" d="M239.1,375.1c-7.5-5.7-15.1-11.5-22.6-17.2-6.1-4.7-12.2-9.4-18.4-14-5.6-4.2-11.3-8.3-17.3-12.5,10.6-13,23.8-23.1,38.3-32.2,1.8,1.9,3,4.4,4.9,5.9,13.1,10.5,26.4,20.8,39.7,31.1,5.3,4.1,10.7,8.1,16,12.2.5.4.6,1.1.6,2.1-9.4,5.1-18.6,9.4-27.4,14.5-4.9,2.8-9.3,6.8-13.8,10.2Z"/>
  <path class="st11" d="M358.1,51.8c1.4,1.7,2,3.7,3.3,4.8,8.1,6.8,16.3,13.5,24.7,20,12.4,9.6,25.1,18.9,37.5,28.4,7,5.4,13.9,10.9,20.7,16.5.8.6,1.1,1.9,1.6,3.2-15.9.4-31.8.5-48.1,0-.8-1.1-.9-2.1-1.4-2.6-17.7-14.2-35.4-28.3-53.2-42.3-10.1-8-20.3-15.8-30.3-23.9-1-.8-1.4-2.3-2-3.5,4.8-.3,9.6-.8,14.4-.8,10.8-.1,21.6,0,32.8.1Z"/>
  <path class="st13" d="M319.2,272.1c1.2,1.5,1.7,3.5,2.9,4.4,17.6,14,35.3,27.9,53,41.7,9.9,7.7,19.8,15.4,29.6,23.1,1,.8,1.6,2,1.9,3.4-15.7.4-30.9.3-46.2.3-2.4-2.5-4.6-5.3-7.2-7.5-8.8-7.2-17.8-14.2-26.8-21.2-4.5-3.5-9.3-6.8-13.8-10.4-11.4-8.9-22.7-17.8-34-26.8-.7-.6-1.1-1.5-1.7-2.6,13.9-1.7,27.9-3.1,42.3-4.4Z"/>
  <path class="st16" d="M310.5,52.5c1.1,1.2,1.4,2.7,2.4,3.5,10.1,8,20.2,15.9,30.3,23.9,17.8,14.1,35.5,28.2,53.2,42.3.5.4.6,1.4.9,2.5-14.6.4-29.2.4-44.3,0-1.1-1.5-1.5-2.9-2.4-3.6-13.4-10.5-26.9-21-40.3-31.5-3-2.4-6.2-4.6-9.1-7.1-5.6-4.5-11.1-9.2-16.7-13.8,5.9-9.6,14.3-15.1,25.9-16.3Z"/>
  <path class="st13" d="M211.5,188.7c3.6,2.1,7,4.2,10.1,6.7,7.5,5.9,14.7,11.9,22.2,17.8,8.5,6.6,17.1,13,25.5,19.8,1.6,1.3,2.5,3.5,3.7,5.7-9.2,2.6-18.3,5.7-27.6,6.9-13.9,1.7-25.5-3.8-33.5-15.2-8.3-11.8-9-24.5-2.8-37.6.6-1.3,1.4-2.5,2.4-4Z"/>
  <path class="st12" d="M284.3,69c5.8,4.4,11.4,9,16.9,13.6,3,2.4,6.1,4.7,9.1,7.1,13.4,10.5,26.9,20.9,40.3,31.5.9.7,1.3,2.1,2,3.5-14.7.1-29.4.9-44-.4-22.6-2-36.6-29-26.9-50.7.7-1.5,1.5-2.9,2.5-4.5Z"/>
  <path class="st17" d="M713.5,106.9c-1.8-2.1-2.8-5-4.9-6.7-10.6-8.7-21.6-17.1-32.4-25.7-8.4-6.7-16.8-13.3-25.1-20.1-.6-.4-.8-1.3-1.2-2.3,13.2,0,26.7-1.4,39.6.7,21.8,3.5,33.5,26.1,28,45-.9,3.1-2.5,5.9-4,9.1Z"/>
  <path class="st10" d="M254.6,694.9c.9.1,1.8.6,2.9,1.4-.8-.2-1.8-.6-2.9-1.4Z"/>
  <path class="st15" d="M619,551.9c-3.2,8.6-8.9,15.4-16.2,20.6-7.5,5.3-15.4,10.1-23.4,14.8-1.7-2-2.7-4-4.4-5.3-11.8-9.6-23.7-19.1-35.7-28.5-6.4-5-13.2-9.6-19.8-14.4,4.9-3.3,9.8-6.6,15.3-10.3-8.6-5.5-16.9-10.7-25.2-16-28.9-18.3-57.9-36.6-86.7-55.1-18.3-11.7-23.4-32.6-12.4-51,2.1-3.5,5.5-6.2,9-9.3,2.3.6,4.2,1,5.5,2,15.1,11.7,30.2,23.5,45.2,35.3,11,8.7,21.8,17.5,32.8,26.1,6.3,4.9,13,9.4,19.3,14.4,10.2,8,20.2,16.4,30.5,24.4,8.6,6.7,17.6,12.9,26.2,19.6,13.5,10.7,26.7,21.7,40,32.6Z"/>
  <path class="st13" d="M619.3,551.7c-13.6-10.6-26.8-21.7-40.3-32.3-8.5-6.8-17.6-12.9-26.2-19.6-10.3-8-20.2-16.4-30.5-24.4-6.3-5-13-9.4-19.3-14.4-11-8.6-21.8-17.5-32.8-26.1-15-11.8-30.1-23.6-45.2-35.3-1.3-1-3.2-1.4-5.2-2.1,10.5-9.3,27.8-10.7,40.4-2.8,46.6,29.4,93.2,58.8,139.5,88.6,23,14.8,30.6,42.8,19.6,68.6Z"/>
  <path class="st9" d="M519.2,539.1c6.9,4.7,13.7,9.3,20.1,14.4,12,9.3,23.8,18.9,35.7,28.5,1.6,1.3,2.7,3.3,4,5.4-17.8,11.7-35.6,23.1-54.1,34.4-8.8-6.6-17-13-25.2-19.5-13.5-10.8-27-21.7-40.6-32.5-13.2-10.5-26.4-21-39.9-31.2-3.3-2.5-7.4-4.1-11.1-6,4.1-11.5,18.6-23.4,37.6-21.6,14.3,1.4,27.7,12.5,31.2,27.2,1,4.3,1,9,1.2,13.5.2,4.1,0,8.3,0,13.3,14.1-8.9,27.4-17.3,41.1-25.8Z"/>
  <path class="st4" d="M407.9,532.7c4,1.7,8,3.2,11.4,5.8,13.4,10.2,26.6,20.7,39.9,31.2,13.6,10.8,27,21.7,40.6,32.5,8.2,6.5,16.4,13,24.9,19.6-13.2,8.8-26.6,17.4-40.6,25.9-1.7-1.7-2.8-3.3-4.2-4.5-6.7-5.4-13.6-10.8-20.4-16.1-8.4-6.6-16.8-13.2-25.2-19.8-5.5-4.3-10.9-8.9-16.5-13.1-4-3-8.4-5.5-12.6-8.3.3-16,.6-31.9,1-47.9,0-1.7,1.1-3.3,1.8-5.2Z"/>
  <path class="st18" d="M405,586.3c4.3,2.3,8.7,4.8,12.7,7.8,5.6,4.2,11,8.7,16.5,13.1,8.4,6.6,16.8,13.2,25.2,19.8,6.8,5.4,13.6,10.7,20.4,16.1,1.4,1.2,2.5,2.8,3.9,4.5-8.2,5.7-16.3,11.6-25,16.3-24.4,13.2-53.6-4.3-53.8-32.1-.1-15,0-30.1.1-45.5Z"/>
</svg>